%TF.GenerationSoftware,KiCad,Pcbnew,8.0.7*%
%TF.CreationDate,2025-09-21T15:12:51-04:00*%
%TF.ProjectId,buzzcar_main,62757a7a-6361-4725-9f6d-61696e2e6b69,rev?*%
%TF.SameCoordinates,Original*%
%TF.FileFunction,Soldermask,Bot*%
%TF.FilePolarity,Negative*%
%FSLAX46Y46*%
G04 Gerber Fmt 4.6, Leading zero omitted, Abs format (unit mm)*
G04 Created by KiCad (PCBNEW 8.0.7) date 2025-09-21 15:12:51*
%MOMM*%
%LPD*%
G01*
G04 APERTURE LIST*
G04 Aperture macros list*
%AMRoundRect*
0 Rectangle with rounded corners*
0 $1 Rounding radius*
0 $2 $3 $4 $5 $6 $7 $8 $9 X,Y pos of 4 corners*
0 Add a 4 corners polygon primitive as box body*
4,1,4,$2,$3,$4,$5,$6,$7,$8,$9,$2,$3,0*
0 Add four circle primitives for the rounded corners*
1,1,$1+$1,$2,$3*
1,1,$1+$1,$4,$5*
1,1,$1+$1,$6,$7*
1,1,$1+$1,$8,$9*
0 Add four rect primitives between the rounded corners*
20,1,$1+$1,$2,$3,$4,$5,0*
20,1,$1+$1,$4,$5,$6,$7,0*
20,1,$1+$1,$6,$7,$8,$9,0*
20,1,$1+$1,$8,$9,$2,$3,0*%
G04 Aperture macros list end*
%ADD10R,2.000000X1.200000*%
%ADD11O,2.000000X1.200000*%
%ADD12C,1.600000*%
%ADD13O,1.600000X1.600000*%
%ADD14R,1.700000X1.700000*%
%ADD15O,1.700000X1.700000*%
%ADD16R,1.800000X1.800000*%
%ADD17C,1.800000*%
%ADD18C,3.000000*%
%ADD19RoundRect,0.102000X-0.585000X-0.585000X0.585000X-0.585000X0.585000X0.585000X-0.585000X0.585000X0*%
%ADD20C,1.374000*%
%ADD21C,2.184000*%
G04 APERTURE END LIST*
D10*
%TO.C,U1*%
X107950000Y-33020000D03*
D11*
X107950000Y-35560000D03*
X107950000Y-38100000D03*
X107950000Y-40640000D03*
X107950000Y-43180000D03*
X107950000Y-45720000D03*
X107950000Y-48260000D03*
X107950000Y-50800000D03*
X107950000Y-53340000D03*
X107950000Y-55880000D03*
X107950000Y-58420000D03*
X107950000Y-60960000D03*
X107950000Y-63500000D03*
X107950000Y-66040000D03*
X107950000Y-68580000D03*
X107950000Y-71120000D03*
X130810000Y-71120000D03*
X130810000Y-68580000D03*
X130810000Y-66040000D03*
X130810000Y-63500000D03*
X130810000Y-60960000D03*
X130810000Y-58420000D03*
X130810000Y-55880000D03*
X130810000Y-53340000D03*
X130810000Y-50800000D03*
X130810000Y-48260000D03*
X130810000Y-45720000D03*
X130810000Y-43180000D03*
X130810000Y-40640000D03*
X130810000Y-38100000D03*
X130810000Y-35560000D03*
X130810000Y-33020000D03*
%TD*%
D12*
%TO.C,R1*%
X50800000Y-45720000D03*
D13*
X50800000Y-35560000D03*
%TD*%
D14*
%TO.C,J8*%
X88900000Y-88900000D03*
D15*
X91440000Y-88900000D03*
%TD*%
D14*
%TO.C,J9*%
X25400000Y-33020000D03*
D15*
X25400000Y-35560000D03*
X25400000Y-38100000D03*
X25400000Y-40640000D03*
%TD*%
D16*
%TO.C,D1*%
X55880000Y-27940000D03*
D17*
X53340000Y-27940000D03*
%TD*%
D12*
%TO.C,R4*%
X33020000Y-27940000D03*
D13*
X43180000Y-27940000D03*
%TD*%
D18*
%TO.C,H3*%
X165100000Y-88900000D03*
%TD*%
D14*
%TO.C,SW2*%
X101600000Y-22860000D03*
D15*
X101600000Y-25400000D03*
%TD*%
D18*
%TO.C,TP5*%
X165100000Y-35560000D03*
%TD*%
%TO.C,H2*%
X165100000Y-22860000D03*
%TD*%
D19*
%TO.C,U2*%
X53020000Y-71120000D03*
D20*
X53020000Y-73660000D03*
X53020000Y-76200000D03*
X53020000Y-78740000D03*
X53020000Y-81280000D03*
X53020000Y-83820000D03*
X53020000Y-86360000D03*
X60960000Y-86360000D03*
X60960000Y-83820000D03*
X60960000Y-81280000D03*
X60960000Y-78740000D03*
X60960000Y-76200000D03*
X60960000Y-73660000D03*
X60960000Y-71120000D03*
%TD*%
D12*
%TO.C,R2*%
X50800000Y-60960000D03*
D13*
X50800000Y-50800000D03*
%TD*%
D21*
%TO.C,U3*%
X142240000Y-48260000D03*
X142240000Y-50800000D03*
X142240000Y-53340000D03*
X142240000Y-55880000D03*
X142240000Y-58420000D03*
X142240000Y-60960000D03*
X142240000Y-63500000D03*
X142240000Y-66040000D03*
X157480000Y-66040000D03*
X157480000Y-63500000D03*
X157480000Y-60960000D03*
X157480000Y-58420000D03*
X157480000Y-55880000D03*
X157480000Y-53340000D03*
X157480000Y-50800000D03*
X157480000Y-48260000D03*
%TD*%
D18*
%TO.C,H4*%
X25400000Y-88900000D03*
%TD*%
%TO.C,TP10*%
X93980000Y-22860000D03*
%TD*%
D14*
%TO.C,J11*%
X25400000Y-68580000D03*
D15*
X25400000Y-71120000D03*
X25400000Y-73660000D03*
X25400000Y-76200000D03*
%TD*%
D18*
%TO.C,TP6*%
X165100000Y-45720000D03*
%TD*%
%TO.C,TP3*%
X78740000Y-22860000D03*
%TD*%
D14*
%TO.C,J3*%
X45720000Y-50800000D03*
D15*
X45720000Y-53340000D03*
X45720000Y-55880000D03*
X45720000Y-58420000D03*
%TD*%
D12*
%TO.C,R3*%
X91440000Y-33020000D03*
D13*
X101600000Y-33020000D03*
%TD*%
D14*
%TO.C,SW1*%
X35560000Y-22860000D03*
D15*
X33020000Y-22860000D03*
%TD*%
D18*
%TO.C,TP8*%
X137160000Y-88900000D03*
%TD*%
D14*
%TO.C,J6*%
X165100000Y-53340000D03*
D15*
X165100000Y-55880000D03*
X165100000Y-58420000D03*
X165100000Y-60960000D03*
%TD*%
D18*
%TO.C,TP2*%
X81280000Y-43180000D03*
%TD*%
%TO.C,TP7*%
X101600000Y-88900000D03*
%TD*%
D14*
%TO.C,J7*%
X83820000Y-66040000D03*
D15*
X83820000Y-68580000D03*
X83820000Y-71120000D03*
X83820000Y-73660000D03*
X83820000Y-76200000D03*
%TD*%
D18*
%TO.C,TP9*%
X137160000Y-83820000D03*
%TD*%
D14*
%TO.C,J1*%
X43180000Y-22860000D03*
D15*
X45720000Y-22860000D03*
%TD*%
D14*
%TO.C,J4*%
X149860000Y-22860000D03*
D15*
X152400000Y-22860000D03*
%TD*%
D18*
%TO.C,H1*%
X25400000Y-22860000D03*
%TD*%
D14*
%TO.C,J12*%
X115015000Y-90725000D03*
D15*
X117555000Y-90725000D03*
X120095000Y-90725000D03*
X122635000Y-90725000D03*
X125175000Y-90725000D03*
%TD*%
D18*
%TO.C,TP1*%
X71120000Y-22860000D03*
%TD*%
D14*
%TO.C,J5*%
X147320000Y-88900000D03*
D15*
X149860000Y-88900000D03*
%TD*%
D14*
%TO.C,J10*%
X25400000Y-50800000D03*
D15*
X25400000Y-53340000D03*
X25400000Y-55880000D03*
X25400000Y-58420000D03*
%TD*%
D14*
%TO.C,J2*%
X45720000Y-35560000D03*
D15*
X45720000Y-38100000D03*
X45720000Y-40640000D03*
X45720000Y-43180000D03*
%TD*%
D18*
%TO.C,TP4*%
X86360000Y-22860000D03*
%TD*%
M02*
