%TF.GenerationSoftware,KiCad,Pcbnew,8.0.7*%
%TF.CreationDate,2025-09-21T15:12:51-04:00*%
%TF.ProjectId,buzzcar_main,62757a7a-6361-4725-9f6d-61696e2e6b69,rev?*%
%TF.SameCoordinates,Original*%
%TF.FileFunction,Copper,L1,Top*%
%TF.FilePolarity,Positive*%
%FSLAX46Y46*%
G04 Gerber Fmt 4.6, Leading zero omitted, Abs format (unit mm)*
G04 Created by KiCad (PCBNEW 8.0.7) date 2025-09-21 15:12:51*
%MOMM*%
%LPD*%
G01*
G04 APERTURE LIST*
%TA.AperFunction,ComponentPad*%
%ADD10R,2.000000X1.200000*%
%TD*%
%TA.AperFunction,ComponentPad*%
%ADD11O,2.000000X1.200000*%
%TD*%
%TA.AperFunction,ComponentPad*%
%ADD12C,1.600000*%
%TD*%
%TA.AperFunction,ComponentPad*%
%ADD13O,1.600000X1.600000*%
%TD*%
%TA.AperFunction,ComponentPad*%
%ADD14R,1.700000X1.700000*%
%TD*%
%TA.AperFunction,ComponentPad*%
%ADD15O,1.700000X1.700000*%
%TD*%
%TA.AperFunction,ComponentPad*%
%ADD16R,1.800000X1.800000*%
%TD*%
%TA.AperFunction,ComponentPad*%
%ADD17C,1.800000*%
%TD*%
%TA.AperFunction,ComponentPad*%
%ADD18C,3.000000*%
%TD*%
%TA.AperFunction,ComponentPad*%
%ADD19R,1.170000X1.170000*%
%TD*%
%TA.AperFunction,ComponentPad*%
%ADD20C,1.170000*%
%TD*%
%TA.AperFunction,ComponentPad*%
%ADD21C,1.980000*%
%TD*%
%TA.AperFunction,ViaPad*%
%ADD22C,0.600000*%
%TD*%
%TA.AperFunction,Conductor*%
%ADD23C,1.370000*%
%TD*%
%TA.AperFunction,Conductor*%
%ADD24C,0.780000*%
%TD*%
G04 APERTURE END LIST*
D10*
%TO.P,U1,1,3V3*%
%TO.N,unconnected-(U1-3V3-Pad1)*%
X107950000Y-33020000D03*
D11*
%TO.P,U1,2,EN/RESET*%
%TO.N,Net-(U1-EN{slash}RESET)*%
X107950000Y-35560000D03*
%TO.P,U1,3,GPIO4/MTMS*%
%TO.N,Net-(J12-Pin_5)*%
X107950000Y-38100000D03*
%TO.P,U1,4,GPIO5/MTDI*%
%TO.N,Net-(J12-Pin_4)*%
X107950000Y-40640000D03*
%TO.P,U1,5,GPIO6*%
%TO.N,Net-(J12-Pin_3)*%
X107950000Y-43180000D03*
%TO.P,U1,6,GPIO7*%
%TO.N,Net-(J12-Pin_2)*%
X107950000Y-45720000D03*
%TO.P,U1,7,GPIO0*%
%TO.N,Net-(J12-Pin_1)*%
X107950000Y-48260000D03*
%TO.P,U1,8,GPIO1*%
%TO.N,/sens_c*%
X107950000Y-50800000D03*
%TO.P,U1,9,GPIO8/BOOT*%
%TO.N,unconnected-(U1-GPIO8{slash}BOOT-Pad9)*%
X107950000Y-53340000D03*
%TO.P,U1,10,GPIO10*%
%TO.N,unconnected-(U1-GPIO10-Pad10)*%
X107950000Y-55880000D03*
%TO.P,U1,11,GPIO11*%
%TO.N,Net-(U1-GPIO11)*%
X107950000Y-58420000D03*
%TO.P,U1,12,GPIO2*%
%TO.N,/sens_b*%
X107950000Y-60960000D03*
%TO.P,U1,13,GPIO3*%
%TO.N,/sens_a*%
X107950000Y-63500000D03*
%TO.P,U1,14,5V*%
%TO.N,+5V*%
X107950000Y-66040000D03*
%TO.P,U1,15,GND*%
%TO.N,GND*%
X107950000Y-68580000D03*
%TO.P,U1,16,NC*%
%TO.N,unconnected-(U1-NC-Pad16)*%
X107950000Y-71120000D03*
%TO.P,U1,17,NC*%
%TO.N,unconnected-(U1-NC-Pad17)*%
X130810000Y-71120000D03*
%TO.P,U1,18,GND*%
%TO.N,GND*%
X130810000Y-68580000D03*
%TO.P,U1,19,GPIO12/USB_D-*%
%TO.N,unconnected-(U1-GPIO12{slash}USB_D--Pad19)*%
X130810000Y-66040000D03*
%TO.P,U1,20,GPIO13/USB_D+*%
%TO.N,unconnected-(U1-GPIO13{slash}USB_D+-Pad20)*%
X130810000Y-63500000D03*
%TO.P,U1,21,GND*%
%TO.N,unconnected-(U1-GND-Pad21)*%
X130810000Y-60960000D03*
%TO.P,U1,22,GPIO9/BOOT*%
%TO.N,unconnected-(U1-GPIO9{slash}BOOT-Pad22)*%
X130810000Y-58420000D03*
%TO.P,U1,23,GPIO18*%
%TO.N,unconnected-(U1-GPIO18-Pad23)*%
X130810000Y-55880000D03*
%TO.P,U1,24,GPIO19*%
%TO.N,/motor_b_pwm*%
X130810000Y-53340000D03*
%TO.P,U1,25,GPIO20*%
%TO.N,/motor_a_pwm*%
X130810000Y-50800000D03*
%TO.P,U1,26,GPIO21*%
%TO.N,/i2c_scn_scl*%
X130810000Y-48260000D03*
%TO.P,U1,27,GPIO22*%
%TO.N,/i2c_scn_sda*%
X130810000Y-45720000D03*
%TO.P,U1,28,GPIO23*%
%TO.N,/spk_sig*%
X130810000Y-43180000D03*
%TO.P,U1,29,GPIO15/JTAG*%
%TO.N,unconnected-(U1-GPIO15{slash}JTAG-Pad29)*%
X130810000Y-40640000D03*
%TO.P,U1,30,GPIO17/U0RXD*%
%TO.N,unconnected-(U1-GPIO17{slash}U0RXD-Pad30)*%
X130810000Y-38100000D03*
%TO.P,U1,31,GPIO16/U0TXD*%
%TO.N,unconnected-(U1-GPIO16{slash}U0TXD-Pad31)*%
X130810000Y-35560000D03*
%TO.P,U1,32,GND*%
%TO.N,GND*%
X130810000Y-33020000D03*
%TD*%
D12*
%TO.P,R1,1*%
%TO.N,+9V*%
X50800000Y-45720000D03*
D13*
%TO.P,R1,2*%
%TO.N,Net-(J2-Pin_1)*%
X50800000Y-35560000D03*
%TD*%
D14*
%TO.P,J8,1,Pin_1*%
%TO.N,/vo-*%
X88900000Y-88900000D03*
D15*
%TO.P,J8,2,Pin_2*%
%TO.N,/vo+*%
X91440000Y-88900000D03*
%TD*%
D14*
%TO.P,J9,1,Pin_1*%
%TO.N,+5V*%
X25400000Y-33020000D03*
D15*
%TO.P,J9,2,Pin_2*%
%TO.N,+3.3V*%
X25400000Y-35560000D03*
%TO.P,J9,3,Pin_3*%
%TO.N,GND*%
X25400000Y-38100000D03*
%TO.P,J9,4,Pin_4*%
%TO.N,/sig_c*%
X25400000Y-40640000D03*
%TD*%
D16*
%TO.P,D1,1,K*%
%TO.N,GND*%
X55880000Y-27940000D03*
D17*
%TO.P,D1,2,A*%
%TO.N,Net-(D1-A)*%
X53340000Y-27940000D03*
%TD*%
D12*
%TO.P,R4,1*%
%TO.N,+9V*%
X33020000Y-27940000D03*
D13*
%TO.P,R4,2*%
%TO.N,Net-(D1-A)*%
X43180000Y-27940000D03*
%TD*%
D14*
%TO.P,SW2,1,1*%
%TO.N,+5V*%
X101600000Y-22860000D03*
D15*
%TO.P,SW2,2,2*%
%TO.N,Net-(U1-GPIO11)*%
X101600000Y-25400000D03*
%TD*%
D18*
%TO.P,TP5,1,1*%
%TO.N,+9V*%
X165100000Y-35560000D03*
%TD*%
D19*
%TO.P,U2,1,1OUT*%
%TO.N,/sens_c*%
X53020000Y-71120000D03*
D20*
%TO.P,U2,2,1IN-*%
%TO.N,+3.3V*%
X53020000Y-73660000D03*
%TO.P,U2,3,1IN+*%
%TO.N,/sig_c*%
X53020000Y-76200000D03*
%TO.P,U2,4,VCC*%
%TO.N,+5V*%
X53020000Y-78740000D03*
%TO.P,U2,5,2IN+*%
%TO.N,/sig_b*%
X53020000Y-81280000D03*
%TO.P,U2,6,2IN-*%
%TO.N,+3.3V*%
X53020000Y-83820000D03*
%TO.P,U2,7,2OUT*%
%TO.N,/sens_b*%
X53020000Y-86360000D03*
%TO.P,U2,8,3OUT*%
%TO.N,/sens_a*%
X60960000Y-86360000D03*
%TO.P,U2,9,3IN-*%
%TO.N,+3.3V*%
X60960000Y-83820000D03*
%TO.P,U2,10,3IN+*%
%TO.N,/sig_a*%
X60960000Y-81280000D03*
%TO.P,U2,11,GND*%
%TO.N,GND*%
X60960000Y-78740000D03*
%TO.P,U2,12,4IN+*%
%TO.N,unconnected-(U2-4IN+-Pad12)*%
X60960000Y-76200000D03*
%TO.P,U2,13,4IN-*%
%TO.N,unconnected-(U2-4IN--Pad13)*%
X60960000Y-73660000D03*
%TO.P,U2,14,4OUT*%
%TO.N,unconnected-(U2-4OUT-Pad14)*%
X60960000Y-71120000D03*
%TD*%
D12*
%TO.P,R2,1*%
%TO.N,+9V*%
X50800000Y-60960000D03*
D13*
%TO.P,R2,2*%
%TO.N,Net-(J3-Pin_1)*%
X50800000Y-50800000D03*
%TD*%
D21*
%TO.P,U3,1,VM*%
%TO.N,+9V*%
X142240000Y-48260000D03*
%TO.P,U3,2,VCC*%
%TO.N,+3.3V*%
X142240000Y-50800000D03*
%TO.P,U3,3,GND*%
%TO.N,GND*%
X142240000Y-53340000D03*
%TO.P,U3,4,A01*%
%TO.N,Net-(J4-Pin_2)*%
X142240000Y-55880000D03*
%TO.P,U3,5,A02*%
%TO.N,Net-(J4-Pin_1)*%
X142240000Y-58420000D03*
%TO.P,U3,6,B02*%
%TO.N,Net-(J5-Pin_1)*%
X142240000Y-60960000D03*
%TO.P,U3,7,B01*%
%TO.N,Net-(J5-Pin_2)*%
X142240000Y-63500000D03*
%TO.P,U3,8,GND*%
%TO.N,GND*%
X142240000Y-66040000D03*
%TO.P,U3,9,GND*%
X157480000Y-66040000D03*
%TO.P,U3,10,PWMB*%
%TO.N,/motor_b_pwm*%
X157480000Y-63500000D03*
%TO.P,U3,11,BI2*%
%TO.N,GND*%
X157480000Y-60960000D03*
%TO.P,U3,12,BI1*%
%TO.N,+3.3V*%
X157480000Y-58420000D03*
%TO.P,U3,13,STBY*%
X157480000Y-55880000D03*
%TO.P,U3,14,AI1*%
X157480000Y-53340000D03*
%TO.P,U3,15,AI2*%
%TO.N,GND*%
X157480000Y-50800000D03*
%TO.P,U3,16,PWMA*%
%TO.N,/motor_a_pwm*%
X157480000Y-48260000D03*
%TD*%
D18*
%TO.P,TP10,1,1*%
%TO.N,Net-(U1-GPIO11)*%
X93980000Y-22860000D03*
%TD*%
D14*
%TO.P,J11,1,Pin_1*%
%TO.N,+5V*%
X25400000Y-68580000D03*
D15*
%TO.P,J11,2,Pin_2*%
%TO.N,+3.3V*%
X25400000Y-71120000D03*
%TO.P,J11,3,Pin_3*%
%TO.N,GND*%
X25400000Y-73660000D03*
%TO.P,J11,4,Pin_4*%
%TO.N,/sig_a*%
X25400000Y-76200000D03*
%TD*%
D18*
%TO.P,TP6,1,1*%
%TO.N,+3.3V*%
X165100000Y-45720000D03*
%TD*%
%TO.P,TP3,1,1*%
%TO.N,+5V*%
X78740000Y-22860000D03*
%TD*%
D14*
%TO.P,J3,1,Pin_1*%
%TO.N,Net-(J3-Pin_1)*%
X45720000Y-50800000D03*
D15*
%TO.P,J3,2,Pin_2*%
%TO.N,+9V*%
X45720000Y-53340000D03*
%TO.P,J3,3,Pin_3*%
%TO.N,+3.3V*%
X45720000Y-55880000D03*
%TO.P,J3,4,Pin_4*%
%TO.N,GND*%
X45720000Y-58420000D03*
%TD*%
D12*
%TO.P,R3,1*%
%TO.N,+5V*%
X91440000Y-33020000D03*
D13*
%TO.P,R3,2*%
%TO.N,Net-(U1-EN{slash}RESET)*%
X101600000Y-33020000D03*
%TD*%
D14*
%TO.P,SW1,1,A*%
%TO.N,Net-(J1-Pin_1)*%
X35560000Y-22860000D03*
D15*
%TO.P,SW1,2,B*%
%TO.N,+9V*%
X33020000Y-22860000D03*
%TD*%
D18*
%TO.P,TP8,1,1*%
%TO.N,GND*%
X137160000Y-88900000D03*
%TD*%
D14*
%TO.P,J6,1,Pin_1*%
%TO.N,/i2c_scn_sda*%
X165100000Y-53340000D03*
D15*
%TO.P,J6,2,Pin_2*%
%TO.N,/i2c_scn_scl*%
X165100000Y-55880000D03*
%TO.P,J6,3,Pin_3*%
%TO.N,+3.3V*%
X165100000Y-58420000D03*
%TO.P,J6,4,Pin_4*%
%TO.N,GND*%
X165100000Y-60960000D03*
%TD*%
D18*
%TO.P,TP2,1,1*%
%TO.N,GND*%
X81280000Y-43180000D03*
%TD*%
%TO.P,TP7,1,1*%
%TO.N,+5V*%
X101600000Y-88900000D03*
%TD*%
D14*
%TO.P,J7,1,Pin_1*%
%TO.N,GND*%
X83820000Y-66040000D03*
D15*
%TO.P,J7,2,Pin_2*%
%TO.N,+3.3V*%
X83820000Y-68580000D03*
%TO.P,J7,3,Pin_3*%
%TO.N,/spk_sig*%
X83820000Y-71120000D03*
%TO.P,J7,4,Pin_4*%
%TO.N,/vo+*%
X83820000Y-73660000D03*
%TO.P,J7,5,Pin_5*%
%TO.N,/vo-*%
X83820000Y-76200000D03*
%TD*%
D18*
%TO.P,TP9,1,1*%
%TO.N,GND*%
X137160000Y-83820000D03*
%TD*%
D14*
%TO.P,J1,1,Pin_1*%
%TO.N,Net-(J1-Pin_1)*%
X43180000Y-22860000D03*
D15*
%TO.P,J1,2,Pin_2*%
%TO.N,GND*%
X45720000Y-22860000D03*
%TD*%
D14*
%TO.P,J4,1,Pin_1*%
%TO.N,Net-(J4-Pin_1)*%
X149860000Y-22860000D03*
D15*
%TO.P,J4,2,Pin_2*%
%TO.N,Net-(J4-Pin_2)*%
X152400000Y-22860000D03*
%TD*%
D14*
%TO.P,J12,1,Pin_1*%
%TO.N,Net-(J12-Pin_1)*%
X115015000Y-90725000D03*
D15*
%TO.P,J12,2,Pin_2*%
%TO.N,Net-(J12-Pin_2)*%
X117555000Y-90725000D03*
%TO.P,J12,3,Pin_3*%
%TO.N,Net-(J12-Pin_3)*%
X120095000Y-90725000D03*
%TO.P,J12,4,Pin_4*%
%TO.N,Net-(J12-Pin_4)*%
X122635000Y-90725000D03*
%TO.P,J12,5,Pin_5*%
%TO.N,Net-(J12-Pin_5)*%
X125175000Y-90725000D03*
%TD*%
D18*
%TO.P,TP1,1,1*%
%TO.N,+9V*%
X71120000Y-22860000D03*
%TD*%
D14*
%TO.P,J5,1,Pin_1*%
%TO.N,Net-(J5-Pin_1)*%
X147320000Y-88900000D03*
D15*
%TO.P,J5,2,Pin_2*%
%TO.N,Net-(J5-Pin_2)*%
X149860000Y-88900000D03*
%TD*%
D14*
%TO.P,J10,1,Pin_1*%
%TO.N,+5V*%
X25400000Y-50800000D03*
D15*
%TO.P,J10,2,Pin_2*%
%TO.N,+3.3V*%
X25400000Y-53340000D03*
%TO.P,J10,3,Pin_3*%
%TO.N,GND*%
X25400000Y-55880000D03*
%TO.P,J10,4,Pin_4*%
%TO.N,/sig_b*%
X25400000Y-58420000D03*
%TD*%
D14*
%TO.P,J2,1,Pin_1*%
%TO.N,Net-(J2-Pin_1)*%
X45720000Y-35560000D03*
D15*
%TO.P,J2,2,Pin_2*%
%TO.N,+9V*%
X45720000Y-38100000D03*
%TO.P,J2,3,Pin_3*%
%TO.N,+5V*%
X45720000Y-40640000D03*
%TO.P,J2,4,Pin_4*%
%TO.N,GND*%
X45720000Y-43180000D03*
%TD*%
D18*
%TO.P,TP4,1,1*%
%TO.N,+3.3V*%
X86360000Y-22860000D03*
%TD*%
D22*
%TO.N,GND*%
X129540000Y-81280000D03*
X111760000Y-76200000D03*
%TO.N,+9V*%
X40640000Y-58420000D03*
X45720000Y-63500000D03*
%TO.N,+5V*%
X35560000Y-40640000D03*
%TO.N,+3.3V*%
X127000000Y-22860000D03*
X81280000Y-53340000D03*
X50800000Y-55880000D03*
%TO.N,Net-(J4-Pin_2)*%
X149860000Y-55880000D03*
%TO.N,/i2c_scn_sda*%
X137160000Y-48260000D03*
X137160000Y-68580000D03*
%TO.N,/i2c_scn_scl*%
X134620000Y-50800000D03*
X134620000Y-63500000D03*
X152758503Y-68938504D03*
%TO.N,/spk_sig*%
X101600000Y-73660000D03*
%TO.N,/vo-*%
X83396461Y-83396461D03*
X86360000Y-78740000D03*
%TO.N,/sens_a*%
X89323539Y-81703539D03*
X81280000Y-81280000D03*
%TO.N,/sens_c*%
X83820000Y-78740000D03*
%TO.N,/motor_b_pwm*%
X134620000Y-76200000D03*
X127000000Y-66040000D03*
%TO.N,/sig_a*%
X52349150Y-80289150D03*
%TO.N,+9V*%
X50317000Y-37617000D03*
%TD*%
D23*
%TO.N,GND*%
X160020000Y-66040000D02*
X165100000Y-60960000D01*
X137780078Y-62003000D02*
X137780078Y-56399851D01*
X133999922Y-62003000D02*
X137780078Y-62003000D01*
X137780078Y-62003000D02*
X141817078Y-66040000D01*
X140839929Y-53340000D02*
X142240000Y-53340000D01*
X133123000Y-66267000D02*
X133123000Y-62879922D01*
X134620000Y-81280000D02*
X137160000Y-83820000D01*
X137780078Y-56399851D02*
X140839929Y-53340000D01*
X130810000Y-68580000D02*
X133123000Y-66267000D01*
X141817078Y-66040000D02*
X142240000Y-66040000D01*
X129540000Y-81280000D02*
X134620000Y-81280000D01*
X157480000Y-66040000D02*
X160020000Y-66040000D01*
X133123000Y-62879922D02*
X133999922Y-62003000D01*
X111760000Y-76200000D02*
X111760000Y-72390000D01*
X137160000Y-83820000D02*
X137160000Y-88900000D01*
X142240000Y-66040000D02*
X157480000Y-66040000D01*
X111760000Y-72390000D02*
X107950000Y-68580000D01*
%TO.N,Net-(J1-Pin_1)*%
X35560000Y-22860000D02*
X43180000Y-22860000D01*
D24*
%TO.N,+9V*%
X40640000Y-60960000D02*
X40640000Y-58420000D01*
D23*
X35912919Y-18765000D02*
X67025000Y-18765000D01*
X44517919Y-53340000D02*
X45720000Y-53340000D01*
X33020000Y-27940000D02*
X43180000Y-38100000D01*
X33020000Y-41842081D02*
X44517919Y-53340000D01*
X33020000Y-21657919D02*
X35912919Y-18765000D01*
X139700000Y-30480000D02*
X142240000Y-33020000D01*
X67025000Y-18765000D02*
X71120000Y-22860000D01*
X33020000Y-27940000D02*
X33020000Y-41842081D01*
X75215000Y-18765000D02*
X127985000Y-18765000D01*
X139700000Y-30480000D02*
X144780000Y-30480000D01*
X142240000Y-48260000D02*
X142240000Y-33020000D01*
X162560000Y-33020000D02*
X165100000Y-35560000D01*
X33020000Y-22860000D02*
X33020000Y-27940000D01*
X144780000Y-30480000D02*
X147320000Y-33020000D01*
D24*
X43180000Y-63500000D02*
X40640000Y-60960000D01*
D23*
X33020000Y-22860000D02*
X33020000Y-21657919D01*
X127985000Y-18765000D02*
X139700000Y-30480000D01*
D24*
X45720000Y-63500000D02*
X43180000Y-63500000D01*
D23*
X43180000Y-38100000D02*
X45720000Y-38100000D01*
X71120000Y-22860000D02*
X75215000Y-18765000D01*
X147320000Y-33020000D02*
X162560000Y-33020000D01*
%TO.N,+5V*%
X98227100Y-66040000D02*
X98227100Y-68170022D01*
X45720000Y-40640000D02*
X72827100Y-40640000D01*
X45720000Y-40640000D02*
X47455000Y-42375000D01*
X47455000Y-73175000D02*
X53020000Y-78740000D01*
X91440000Y-30480000D02*
X99060000Y-22860000D01*
X47455000Y-42375000D02*
X47455000Y-73175000D01*
X78740000Y-35560000D02*
X81280000Y-33020000D01*
X91440000Y-33020000D02*
X91440000Y-30480000D01*
X98227100Y-66040000D02*
X107950000Y-66040000D01*
X72827100Y-40640000D02*
X73660000Y-40640000D01*
X98227100Y-68170022D02*
X103097000Y-73039922D01*
X81280000Y-33020000D02*
X91440000Y-33020000D01*
X73660000Y-40640000D02*
X78740000Y-35560000D01*
X72827100Y-40640000D02*
X98227100Y-66040000D01*
X99060000Y-22860000D02*
X101600000Y-22860000D01*
X45720000Y-40640000D02*
X35560000Y-40640000D01*
X103097000Y-87403000D02*
X101600000Y-88900000D01*
X103097000Y-73039922D02*
X103097000Y-87403000D01*
X78740000Y-35560000D02*
X78740000Y-22860000D01*
D24*
%TO.N,Net-(J2-Pin_1)*%
X45720000Y-35560000D02*
X50800000Y-35560000D01*
D23*
%TO.N,+3.3V*%
X35560000Y-53340000D02*
X25400000Y-53340000D01*
X138657000Y-34517000D02*
X138657000Y-48617071D01*
X38100000Y-55880000D02*
X35560000Y-58420000D01*
X165100000Y-48260000D02*
X165100000Y-45720000D01*
X43180000Y-55880000D02*
X30480000Y-43180000D01*
X127000000Y-22860000D02*
X138657000Y-34517000D01*
X27940000Y-35560000D02*
X25400000Y-35560000D01*
X140839929Y-50800000D02*
X142240000Y-50800000D01*
X45720000Y-55880000D02*
X43180000Y-55880000D01*
X35560000Y-58420000D02*
X35560000Y-62162081D01*
X45720000Y-55880000D02*
X38100000Y-55880000D01*
X69917919Y-55880000D02*
X78740000Y-55880000D01*
X160020000Y-53340000D02*
X165100000Y-48260000D01*
X157480000Y-53340000D02*
X160020000Y-53340000D01*
X157480000Y-53340000D02*
X154940000Y-53340000D01*
X152400000Y-50800000D02*
X142240000Y-50800000D01*
X82617919Y-68580000D02*
X83820000Y-68580000D01*
X26602081Y-71120000D02*
X25400000Y-71120000D01*
X69917919Y-55880000D02*
X82617919Y-68580000D01*
X160020000Y-53340000D02*
X165100000Y-58420000D01*
X50800000Y-55880000D02*
X69917919Y-55880000D01*
X154940000Y-53340000D02*
X152400000Y-50800000D01*
X78740000Y-55880000D02*
X81280000Y-53340000D01*
X30480000Y-43180000D02*
X30480000Y-38100000D01*
X138657000Y-48617071D02*
X140839929Y-50800000D01*
X35560000Y-62162081D02*
X26602081Y-71120000D01*
X38100000Y-55880000D02*
X35560000Y-53340000D01*
X30480000Y-38100000D02*
X27940000Y-35560000D01*
%TO.N,Net-(J4-Pin_2)*%
X149860000Y-55880000D02*
X142240000Y-55880000D01*
%TO.N,/i2c_scn_sda*%
X134620000Y-45720000D02*
X130810000Y-45720000D01*
X162560000Y-71120000D02*
X139700000Y-71120000D01*
X137160000Y-48260000D02*
X134620000Y-45720000D01*
X166835000Y-66845000D02*
X162560000Y-71120000D01*
X166835000Y-55075000D02*
X166835000Y-66845000D01*
X139700000Y-71120000D02*
X137160000Y-68580000D01*
X165100000Y-53340000D02*
X166835000Y-55075000D01*
%TO.N,/i2c_scn_scl*%
X136045635Y-63500000D02*
X134620000Y-63500000D01*
X134620000Y-50800000D02*
X132080000Y-48260000D01*
X141484139Y-68938504D02*
X136045635Y-63500000D01*
X152758503Y-68938504D02*
X141484139Y-68938504D01*
X132080000Y-48260000D02*
X130810000Y-48260000D01*
%TO.N,/spk_sig*%
X86360000Y-73660000D02*
X83820000Y-71120000D01*
X101600000Y-73660000D02*
X86360000Y-73660000D01*
%TO.N,/vo+*%
X91440000Y-81280000D02*
X91440000Y-88900000D01*
X83820000Y-73660000D02*
X91440000Y-81280000D01*
%TO.N,/vo-*%
X83820000Y-76200000D02*
X86360000Y-78740000D01*
X83396461Y-83396461D02*
X88900000Y-88900000D01*
%TO.N,Net-(U1-GPIO11)*%
X104140000Y-27940000D02*
X104140000Y-54610000D01*
X101600000Y-25400000D02*
X104140000Y-27940000D01*
X104140000Y-54610000D02*
X107950000Y-58420000D01*
D24*
%TO.N,Net-(J12-Pin_1)*%
X115015000Y-55325000D02*
X107950000Y-48260000D01*
X115015000Y-90725000D02*
X115015000Y-55325000D01*
%TO.N,Net-(J12-Pin_5)*%
X125175000Y-90725000D02*
X125175000Y-55325000D01*
X125175000Y-55325000D02*
X107950000Y-38100000D01*
%TO.N,Net-(J12-Pin_2)*%
X117555000Y-55325000D02*
X107950000Y-45720000D01*
X117555000Y-90725000D02*
X117555000Y-55325000D01*
D23*
%TO.N,/sens_a*%
X81703539Y-81703539D02*
X81280000Y-81280000D01*
X89323539Y-81703539D02*
X81703539Y-81703539D01*
D24*
%TO.N,Net-(J12-Pin_3)*%
X120095000Y-90725000D02*
X120095000Y-55325000D01*
X120095000Y-55325000D02*
X107950000Y-43180000D01*
D23*
%TO.N,/sens_c*%
X55880000Y-83358894D02*
X55880000Y-73980000D01*
X60351106Y-87830000D02*
X55880000Y-83358894D01*
X81280000Y-78740000D02*
X72190000Y-87830000D01*
X72190000Y-87830000D02*
X60351106Y-87830000D01*
X55880000Y-73980000D02*
X53020000Y-71120000D01*
X83820000Y-78740000D02*
X81280000Y-78740000D01*
D24*
%TO.N,Net-(J12-Pin_4)*%
X122635000Y-55325000D02*
X107950000Y-40640000D01*
X122635000Y-90725000D02*
X122635000Y-55325000D01*
D23*
%TO.N,/motor_a_pwm*%
X128925000Y-52685000D02*
X130810000Y-50800000D01*
X165100000Y-40640000D02*
X167640000Y-40640000D01*
X167640000Y-40640000D02*
X168332000Y-41332000D01*
X168332000Y-67465078D02*
X163180078Y-72617000D01*
X128925000Y-71735107D02*
X128925000Y-52685000D01*
X157480000Y-48260000D02*
X165100000Y-40640000D01*
X163180078Y-72617000D02*
X129806893Y-72617000D01*
X168332000Y-41332000D02*
X168332000Y-67465078D01*
X129806893Y-72617000D02*
X128925000Y-71735107D01*
%TO.N,/motor_b_pwm*%
X131272815Y-76200000D02*
X127000000Y-71927185D01*
X134620000Y-76200000D02*
X131272815Y-76200000D01*
X127000000Y-71927185D02*
X127000000Y-66040000D01*
%TO.N,Net-(D1-A)*%
X43180000Y-27940000D02*
X53340000Y-27940000D01*
D24*
%TO.N,/sig_c*%
X21953000Y-44087000D02*
X25400000Y-40640000D01*
X54222000Y-77402000D02*
X54222000Y-88018000D01*
X21953000Y-79115692D02*
X21953000Y-44087000D01*
X31737308Y-88900000D02*
X21953000Y-79115692D01*
X53020000Y-76200000D02*
X54222000Y-77402000D01*
X54222000Y-88018000D02*
X53340000Y-88900000D01*
X53340000Y-88900000D02*
X31737308Y-88900000D01*
%TO.N,/sig_b*%
X25400000Y-81280000D02*
X22860000Y-78740000D01*
X22860000Y-60960000D02*
X25400000Y-58420000D01*
X22860000Y-78740000D02*
X22860000Y-60960000D01*
X53020000Y-81280000D02*
X25400000Y-81280000D01*
%TO.N,/sig_a*%
X48260000Y-76200000D02*
X25400000Y-76200000D01*
X48260000Y-76200000D02*
X52349150Y-80289150D01*
%TO.N,+9V*%
X46203000Y-37617000D02*
X45720000Y-38100000D01*
X50317000Y-37617000D02*
X46203000Y-37617000D01*
%TD*%
M02*
