%TF.GenerationSoftware,KiCad,Pcbnew,8.0.7*%
%TF.CreationDate,2025-09-21T15:12:51-04:00*%
%TF.ProjectId,buzzcar_main,62757a7a-6361-4725-9f6d-61696e2e6b69,rev?*%
%TF.SameCoordinates,Original*%
%TF.FileFunction,Legend,Bot*%
%TF.FilePolarity,Positive*%
%FSLAX46Y46*%
G04 Gerber Fmt 4.6, Leading zero omitted, Abs format (unit mm)*
G04 Created by KiCad (PCBNEW 8.0.7) date 2025-09-21 15:12:51*
%MOMM*%
%LPD*%
G01*
G04 APERTURE LIST*
G04 Aperture macros list*
%AMRoundRect*
0 Rectangle with rounded corners*
0 $1 Rounding radius*
0 $2 $3 $4 $5 $6 $7 $8 $9 X,Y pos of 4 corners*
0 Add a 4 corners polygon primitive as box body*
4,1,4,$2,$3,$4,$5,$6,$7,$8,$9,$2,$3,0*
0 Add four circle primitives for the rounded corners*
1,1,$1+$1,$2,$3*
1,1,$1+$1,$4,$5*
1,1,$1+$1,$6,$7*
1,1,$1+$1,$8,$9*
0 Add four rect primitives between the rounded corners*
20,1,$1+$1,$2,$3,$4,$5,0*
20,1,$1+$1,$4,$5,$6,$7,0*
20,1,$1+$1,$6,$7,$8,$9,0*
20,1,$1+$1,$8,$9,$2,$3,0*%
G04 Aperture macros list end*
%ADD10C,0.150000*%
%ADD11R,2.000000X1.200000*%
%ADD12O,2.000000X1.200000*%
%ADD13C,1.600000*%
%ADD14O,1.600000X1.600000*%
%ADD15R,1.700000X1.700000*%
%ADD16O,1.700000X1.700000*%
%ADD17R,1.800000X1.800000*%
%ADD18C,1.800000*%
%ADD19C,3.000000*%
%ADD20RoundRect,0.102000X-0.585000X-0.585000X0.585000X-0.585000X0.585000X0.585000X-0.585000X0.585000X0*%
%ADD21C,1.374000*%
%ADD22C,2.184000*%
G04 APERTURE END LIST*
D10*
X167398458Y-16649819D02*
X167160363Y-17649819D01*
X167160363Y-17649819D02*
X166969887Y-16935533D01*
X166969887Y-16935533D02*
X166779411Y-17649819D01*
X166779411Y-17649819D02*
X166541316Y-16649819D01*
X166160363Y-17649819D02*
X166160363Y-16649819D01*
X165731792Y-17649819D02*
X165731792Y-17126009D01*
X165731792Y-17126009D02*
X165779411Y-17030771D01*
X165779411Y-17030771D02*
X165874649Y-16983152D01*
X165874649Y-16983152D02*
X166017506Y-16983152D01*
X166017506Y-16983152D02*
X166112744Y-17030771D01*
X166112744Y-17030771D02*
X166160363Y-17078390D01*
X164874649Y-17602200D02*
X164969887Y-17649819D01*
X164969887Y-17649819D02*
X165160363Y-17649819D01*
X165160363Y-17649819D02*
X165255601Y-17602200D01*
X165255601Y-17602200D02*
X165303220Y-17506961D01*
X165303220Y-17506961D02*
X165303220Y-17126009D01*
X165303220Y-17126009D02*
X165255601Y-17030771D01*
X165255601Y-17030771D02*
X165160363Y-16983152D01*
X165160363Y-16983152D02*
X164969887Y-16983152D01*
X164969887Y-16983152D02*
X164874649Y-17030771D01*
X164874649Y-17030771D02*
X164827030Y-17126009D01*
X164827030Y-17126009D02*
X164827030Y-17221247D01*
X164827030Y-17221247D02*
X165303220Y-17316485D01*
X164398458Y-16983152D02*
X164398458Y-17649819D01*
X164398458Y-17078390D02*
X164350839Y-17030771D01*
X164350839Y-17030771D02*
X164255601Y-16983152D01*
X164255601Y-16983152D02*
X164112744Y-16983152D01*
X164112744Y-16983152D02*
X164017506Y-17030771D01*
X164017506Y-17030771D02*
X163969887Y-17126009D01*
X163969887Y-17126009D02*
X163969887Y-17649819D01*
X162731791Y-17649819D02*
X162731791Y-16649819D01*
X161588934Y-16983152D02*
X161398458Y-17649819D01*
X161398458Y-17649819D02*
X161207982Y-17173628D01*
X161207982Y-17173628D02*
X161017506Y-17649819D01*
X161017506Y-17649819D02*
X160827030Y-16983152D01*
X160017506Y-17649819D02*
X160017506Y-17126009D01*
X160017506Y-17126009D02*
X160065125Y-17030771D01*
X160065125Y-17030771D02*
X160160363Y-16983152D01*
X160160363Y-16983152D02*
X160350839Y-16983152D01*
X160350839Y-16983152D02*
X160446077Y-17030771D01*
X160017506Y-17602200D02*
X160112744Y-17649819D01*
X160112744Y-17649819D02*
X160350839Y-17649819D01*
X160350839Y-17649819D02*
X160446077Y-17602200D01*
X160446077Y-17602200D02*
X160493696Y-17506961D01*
X160493696Y-17506961D02*
X160493696Y-17411723D01*
X160493696Y-17411723D02*
X160446077Y-17316485D01*
X160446077Y-17316485D02*
X160350839Y-17268866D01*
X160350839Y-17268866D02*
X160112744Y-17268866D01*
X160112744Y-17268866D02*
X160017506Y-17221247D01*
X159588934Y-17602200D02*
X159493696Y-17649819D01*
X159493696Y-17649819D02*
X159303220Y-17649819D01*
X159303220Y-17649819D02*
X159207982Y-17602200D01*
X159207982Y-17602200D02*
X159160363Y-17506961D01*
X159160363Y-17506961D02*
X159160363Y-17459342D01*
X159160363Y-17459342D02*
X159207982Y-17364104D01*
X159207982Y-17364104D02*
X159303220Y-17316485D01*
X159303220Y-17316485D02*
X159446077Y-17316485D01*
X159446077Y-17316485D02*
X159541315Y-17268866D01*
X159541315Y-17268866D02*
X159588934Y-17173628D01*
X159588934Y-17173628D02*
X159588934Y-17126009D01*
X159588934Y-17126009D02*
X159541315Y-17030771D01*
X159541315Y-17030771D02*
X159446077Y-16983152D01*
X159446077Y-16983152D02*
X159303220Y-16983152D01*
X159303220Y-16983152D02*
X159207982Y-17030771D01*
X157541315Y-17649819D02*
X157541315Y-17126009D01*
X157541315Y-17126009D02*
X157588934Y-17030771D01*
X157588934Y-17030771D02*
X157684172Y-16983152D01*
X157684172Y-16983152D02*
X157874648Y-16983152D01*
X157874648Y-16983152D02*
X157969886Y-17030771D01*
X157541315Y-17602200D02*
X157636553Y-17649819D01*
X157636553Y-17649819D02*
X157874648Y-17649819D01*
X157874648Y-17649819D02*
X157969886Y-17602200D01*
X157969886Y-17602200D02*
X158017505Y-17506961D01*
X158017505Y-17506961D02*
X158017505Y-17411723D01*
X158017505Y-17411723D02*
X157969886Y-17316485D01*
X157969886Y-17316485D02*
X157874648Y-17268866D01*
X157874648Y-17268866D02*
X157636553Y-17268866D01*
X157636553Y-17268866D02*
X157541315Y-17221247D01*
X156398457Y-16983152D02*
X156160362Y-17649819D01*
X155922267Y-16983152D02*
X156160362Y-17649819D01*
X156160362Y-17649819D02*
X156255600Y-17887914D01*
X156255600Y-17887914D02*
X156303219Y-17935533D01*
X156303219Y-17935533D02*
X156398457Y-17983152D01*
X155398457Y-17649819D02*
X155493695Y-17602200D01*
X155493695Y-17602200D02*
X155541314Y-17554580D01*
X155541314Y-17554580D02*
X155588933Y-17459342D01*
X155588933Y-17459342D02*
X155588933Y-17173628D01*
X155588933Y-17173628D02*
X155541314Y-17078390D01*
X155541314Y-17078390D02*
X155493695Y-17030771D01*
X155493695Y-17030771D02*
X155398457Y-16983152D01*
X155398457Y-16983152D02*
X155255600Y-16983152D01*
X155255600Y-16983152D02*
X155160362Y-17030771D01*
X155160362Y-17030771D02*
X155112743Y-17078390D01*
X155112743Y-17078390D02*
X155065124Y-17173628D01*
X155065124Y-17173628D02*
X155065124Y-17459342D01*
X155065124Y-17459342D02*
X155112743Y-17554580D01*
X155112743Y-17554580D02*
X155160362Y-17602200D01*
X155160362Y-17602200D02*
X155255600Y-17649819D01*
X155255600Y-17649819D02*
X155398457Y-17649819D01*
X154207981Y-16983152D02*
X154207981Y-17649819D01*
X154636552Y-16983152D02*
X154636552Y-17506961D01*
X154636552Y-17506961D02*
X154588933Y-17602200D01*
X154588933Y-17602200D02*
X154493695Y-17649819D01*
X154493695Y-17649819D02*
X154350838Y-17649819D01*
X154350838Y-17649819D02*
X154255600Y-17602200D01*
X154255600Y-17602200D02*
X154207981Y-17554580D01*
X153731790Y-16983152D02*
X153731790Y-17649819D01*
X153731790Y-17078390D02*
X153684171Y-17030771D01*
X153684171Y-17030771D02*
X153588933Y-16983152D01*
X153588933Y-16983152D02*
X153446076Y-16983152D01*
X153446076Y-16983152D02*
X153350838Y-17030771D01*
X153350838Y-17030771D02*
X153303219Y-17126009D01*
X153303219Y-17126009D02*
X153303219Y-17649819D01*
X152398457Y-16983152D02*
X152398457Y-17792676D01*
X152398457Y-17792676D02*
X152446076Y-17887914D01*
X152446076Y-17887914D02*
X152493695Y-17935533D01*
X152493695Y-17935533D02*
X152588933Y-17983152D01*
X152588933Y-17983152D02*
X152731790Y-17983152D01*
X152731790Y-17983152D02*
X152827028Y-17935533D01*
X152398457Y-17602200D02*
X152493695Y-17649819D01*
X152493695Y-17649819D02*
X152684171Y-17649819D01*
X152684171Y-17649819D02*
X152779409Y-17602200D01*
X152779409Y-17602200D02*
X152827028Y-17554580D01*
X152827028Y-17554580D02*
X152874647Y-17459342D01*
X152874647Y-17459342D02*
X152874647Y-17173628D01*
X152874647Y-17173628D02*
X152827028Y-17078390D01*
X152827028Y-17078390D02*
X152779409Y-17030771D01*
X152779409Y-17030771D02*
X152684171Y-16983152D01*
X152684171Y-16983152D02*
X152493695Y-16983152D01*
X152493695Y-16983152D02*
X152398457Y-17030771D01*
X151160361Y-17649819D02*
X151160361Y-16649819D01*
X151160361Y-17030771D02*
X151065123Y-16983152D01*
X151065123Y-16983152D02*
X150874647Y-16983152D01*
X150874647Y-16983152D02*
X150779409Y-17030771D01*
X150779409Y-17030771D02*
X150731790Y-17078390D01*
X150731790Y-17078390D02*
X150684171Y-17173628D01*
X150684171Y-17173628D02*
X150684171Y-17459342D01*
X150684171Y-17459342D02*
X150731790Y-17554580D01*
X150731790Y-17554580D02*
X150779409Y-17602200D01*
X150779409Y-17602200D02*
X150874647Y-17649819D01*
X150874647Y-17649819D02*
X151065123Y-17649819D01*
X151065123Y-17649819D02*
X151160361Y-17602200D01*
X150112742Y-17649819D02*
X150207980Y-17602200D01*
X150207980Y-17602200D02*
X150255599Y-17554580D01*
X150255599Y-17554580D02*
X150303218Y-17459342D01*
X150303218Y-17459342D02*
X150303218Y-17173628D01*
X150303218Y-17173628D02*
X150255599Y-17078390D01*
X150255599Y-17078390D02*
X150207980Y-17030771D01*
X150207980Y-17030771D02*
X150112742Y-16983152D01*
X150112742Y-16983152D02*
X149969885Y-16983152D01*
X149969885Y-16983152D02*
X149874647Y-17030771D01*
X149874647Y-17030771D02*
X149827028Y-17078390D01*
X149827028Y-17078390D02*
X149779409Y-17173628D01*
X149779409Y-17173628D02*
X149779409Y-17459342D01*
X149779409Y-17459342D02*
X149827028Y-17554580D01*
X149827028Y-17554580D02*
X149874647Y-17602200D01*
X149874647Y-17602200D02*
X149969885Y-17649819D01*
X149969885Y-17649819D02*
X150112742Y-17649819D01*
X149446075Y-16983152D02*
X149207980Y-17649819D01*
X148969885Y-16983152D02*
X149207980Y-17649819D01*
X149207980Y-17649819D02*
X149303218Y-17887914D01*
X149303218Y-17887914D02*
X149350837Y-17935533D01*
X149350837Y-17935533D02*
X149446075Y-17983152D01*
X149523220Y-32889819D02*
X149523220Y-31889819D01*
X149523220Y-31889819D02*
X149142268Y-31889819D01*
X149142268Y-31889819D02*
X149047030Y-31937438D01*
X149047030Y-31937438D02*
X148999411Y-31985057D01*
X148999411Y-31985057D02*
X148951792Y-32080295D01*
X148951792Y-32080295D02*
X148951792Y-32223152D01*
X148951792Y-32223152D02*
X148999411Y-32318390D01*
X148999411Y-32318390D02*
X149047030Y-32366009D01*
X149047030Y-32366009D02*
X149142268Y-32413628D01*
X149142268Y-32413628D02*
X149523220Y-32413628D01*
X148523220Y-32889819D02*
X148523220Y-32223152D01*
X148523220Y-32413628D02*
X148475601Y-32318390D01*
X148475601Y-32318390D02*
X148427982Y-32270771D01*
X148427982Y-32270771D02*
X148332744Y-32223152D01*
X148332744Y-32223152D02*
X148237506Y-32223152D01*
X147523220Y-32842200D02*
X147618458Y-32889819D01*
X147618458Y-32889819D02*
X147808934Y-32889819D01*
X147808934Y-32889819D02*
X147904172Y-32842200D01*
X147904172Y-32842200D02*
X147951791Y-32746961D01*
X147951791Y-32746961D02*
X147951791Y-32366009D01*
X147951791Y-32366009D02*
X147904172Y-32270771D01*
X147904172Y-32270771D02*
X147808934Y-32223152D01*
X147808934Y-32223152D02*
X147618458Y-32223152D01*
X147618458Y-32223152D02*
X147523220Y-32270771D01*
X147523220Y-32270771D02*
X147475601Y-32366009D01*
X147475601Y-32366009D02*
X147475601Y-32461247D01*
X147475601Y-32461247D02*
X147951791Y-32556485D01*
X147094648Y-32842200D02*
X146999410Y-32889819D01*
X146999410Y-32889819D02*
X146808934Y-32889819D01*
X146808934Y-32889819D02*
X146713696Y-32842200D01*
X146713696Y-32842200D02*
X146666077Y-32746961D01*
X146666077Y-32746961D02*
X146666077Y-32699342D01*
X146666077Y-32699342D02*
X146713696Y-32604104D01*
X146713696Y-32604104D02*
X146808934Y-32556485D01*
X146808934Y-32556485D02*
X146951791Y-32556485D01*
X146951791Y-32556485D02*
X147047029Y-32508866D01*
X147047029Y-32508866D02*
X147094648Y-32413628D01*
X147094648Y-32413628D02*
X147094648Y-32366009D01*
X147094648Y-32366009D02*
X147047029Y-32270771D01*
X147047029Y-32270771D02*
X146951791Y-32223152D01*
X146951791Y-32223152D02*
X146808934Y-32223152D01*
X146808934Y-32223152D02*
X146713696Y-32270771D01*
X146380362Y-32223152D02*
X145999410Y-32223152D01*
X146237505Y-31889819D02*
X146237505Y-32746961D01*
X146237505Y-32746961D02*
X146189886Y-32842200D01*
X146189886Y-32842200D02*
X146094648Y-32889819D01*
X146094648Y-32889819D02*
X145999410Y-32889819D01*
X145523219Y-32889819D02*
X145618457Y-32842200D01*
X145618457Y-32842200D02*
X145666076Y-32794580D01*
X145666076Y-32794580D02*
X145713695Y-32699342D01*
X145713695Y-32699342D02*
X145713695Y-32413628D01*
X145713695Y-32413628D02*
X145666076Y-32318390D01*
X145666076Y-32318390D02*
X145618457Y-32270771D01*
X145618457Y-32270771D02*
X145523219Y-32223152D01*
X145523219Y-32223152D02*
X145380362Y-32223152D01*
X145380362Y-32223152D02*
X145285124Y-32270771D01*
X145285124Y-32270771D02*
X145237505Y-32318390D01*
X145237505Y-32318390D02*
X145189886Y-32413628D01*
X145189886Y-32413628D02*
X145189886Y-32699342D01*
X145189886Y-32699342D02*
X145237505Y-32794580D01*
X145237505Y-32794580D02*
X145285124Y-32842200D01*
X145285124Y-32842200D02*
X145380362Y-32889819D01*
X145380362Y-32889819D02*
X145523219Y-32889819D01*
X144761314Y-32223152D02*
X144761314Y-32889819D01*
X144761314Y-32318390D02*
X144713695Y-32270771D01*
X144713695Y-32270771D02*
X144618457Y-32223152D01*
X144618457Y-32223152D02*
X144475600Y-32223152D01*
X144475600Y-32223152D02*
X144380362Y-32270771D01*
X144380362Y-32270771D02*
X144332743Y-32366009D01*
X144332743Y-32366009D02*
X144332743Y-32889819D01*
X149570839Y-27524104D02*
X149094649Y-27524104D01*
X149666077Y-27809819D02*
X149332744Y-26809819D01*
X149332744Y-26809819D02*
X148999411Y-27809819D01*
X148523220Y-27809819D02*
X148618458Y-27762200D01*
X148618458Y-27762200D02*
X148666077Y-27666961D01*
X148666077Y-27666961D02*
X148666077Y-26809819D01*
X147999410Y-27809819D02*
X148094648Y-27762200D01*
X148094648Y-27762200D02*
X148142267Y-27666961D01*
X148142267Y-27666961D02*
X148142267Y-26809819D01*
X147237505Y-27762200D02*
X147332743Y-27809819D01*
X147332743Y-27809819D02*
X147523219Y-27809819D01*
X147523219Y-27809819D02*
X147618457Y-27762200D01*
X147618457Y-27762200D02*
X147666076Y-27666961D01*
X147666076Y-27666961D02*
X147666076Y-27286009D01*
X147666076Y-27286009D02*
X147618457Y-27190771D01*
X147618457Y-27190771D02*
X147523219Y-27143152D01*
X147523219Y-27143152D02*
X147332743Y-27143152D01*
X147332743Y-27143152D02*
X147237505Y-27190771D01*
X147237505Y-27190771D02*
X147189886Y-27286009D01*
X147189886Y-27286009D02*
X147189886Y-27381247D01*
X147189886Y-27381247D02*
X147666076Y-27476485D01*
X146761314Y-27143152D02*
X146761314Y-27809819D01*
X146761314Y-27238390D02*
X146713695Y-27190771D01*
X146713695Y-27190771D02*
X146618457Y-27143152D01*
X146618457Y-27143152D02*
X146475600Y-27143152D01*
X146475600Y-27143152D02*
X146380362Y-27190771D01*
X146380362Y-27190771D02*
X146332743Y-27286009D01*
X146332743Y-27286009D02*
X146332743Y-27809819D01*
X149666077Y-34429819D02*
X149332744Y-35429819D01*
X149332744Y-35429819D02*
X148999411Y-34429819D01*
X148285125Y-35382200D02*
X148380363Y-35429819D01*
X148380363Y-35429819D02*
X148570839Y-35429819D01*
X148570839Y-35429819D02*
X148666077Y-35382200D01*
X148666077Y-35382200D02*
X148713696Y-35286961D01*
X148713696Y-35286961D02*
X148713696Y-34906009D01*
X148713696Y-34906009D02*
X148666077Y-34810771D01*
X148666077Y-34810771D02*
X148570839Y-34763152D01*
X148570839Y-34763152D02*
X148380363Y-34763152D01*
X148380363Y-34763152D02*
X148285125Y-34810771D01*
X148285125Y-34810771D02*
X148237506Y-34906009D01*
X148237506Y-34906009D02*
X148237506Y-35001247D01*
X148237506Y-35001247D02*
X148713696Y-35096485D01*
X147380363Y-35429819D02*
X147380363Y-34429819D01*
X147380363Y-35382200D02*
X147475601Y-35429819D01*
X147475601Y-35429819D02*
X147666077Y-35429819D01*
X147666077Y-35429819D02*
X147761315Y-35382200D01*
X147761315Y-35382200D02*
X147808934Y-35334580D01*
X147808934Y-35334580D02*
X147856553Y-35239342D01*
X147856553Y-35239342D02*
X147856553Y-34953628D01*
X147856553Y-34953628D02*
X147808934Y-34858390D01*
X147808934Y-34858390D02*
X147761315Y-34810771D01*
X147761315Y-34810771D02*
X147666077Y-34763152D01*
X147666077Y-34763152D02*
X147475601Y-34763152D01*
X147475601Y-34763152D02*
X147380363Y-34810771D01*
X149237506Y-29349819D02*
X149237506Y-30064104D01*
X149237506Y-30064104D02*
X149285125Y-30206961D01*
X149285125Y-30206961D02*
X149380363Y-30302200D01*
X149380363Y-30302200D02*
X149523220Y-30349819D01*
X149523220Y-30349819D02*
X149618458Y-30349819D01*
X148332744Y-29683152D02*
X148332744Y-30349819D01*
X148761315Y-29683152D02*
X148761315Y-30206961D01*
X148761315Y-30206961D02*
X148713696Y-30302200D01*
X148713696Y-30302200D02*
X148618458Y-30349819D01*
X148618458Y-30349819D02*
X148475601Y-30349819D01*
X148475601Y-30349819D02*
X148380363Y-30302200D01*
X148380363Y-30302200D02*
X148332744Y-30254580D01*
X147904172Y-30302200D02*
X147808934Y-30349819D01*
X147808934Y-30349819D02*
X147618458Y-30349819D01*
X147618458Y-30349819D02*
X147523220Y-30302200D01*
X147523220Y-30302200D02*
X147475601Y-30206961D01*
X147475601Y-30206961D02*
X147475601Y-30159342D01*
X147475601Y-30159342D02*
X147523220Y-30064104D01*
X147523220Y-30064104D02*
X147618458Y-30016485D01*
X147618458Y-30016485D02*
X147761315Y-30016485D01*
X147761315Y-30016485D02*
X147856553Y-29968866D01*
X147856553Y-29968866D02*
X147904172Y-29873628D01*
X147904172Y-29873628D02*
X147904172Y-29826009D01*
X147904172Y-29826009D02*
X147856553Y-29730771D01*
X147856553Y-29730771D02*
X147761315Y-29683152D01*
X147761315Y-29683152D02*
X147618458Y-29683152D01*
X147618458Y-29683152D02*
X147523220Y-29730771D01*
X147189886Y-29683152D02*
X146808934Y-29683152D01*
X147047029Y-29349819D02*
X147047029Y-30206961D01*
X147047029Y-30206961D02*
X146999410Y-30302200D01*
X146999410Y-30302200D02*
X146904172Y-30349819D01*
X146904172Y-30349819D02*
X146808934Y-30349819D01*
X146475600Y-30349819D02*
X146475600Y-29683152D01*
X146475600Y-29349819D02*
X146523219Y-29397438D01*
X146523219Y-29397438D02*
X146475600Y-29445057D01*
X146475600Y-29445057D02*
X146427981Y-29397438D01*
X146427981Y-29397438D02*
X146475600Y-29349819D01*
X146475600Y-29349819D02*
X146475600Y-29445057D01*
X145999410Y-29683152D02*
X145999410Y-30349819D01*
X145999410Y-29778390D02*
X145951791Y-29730771D01*
X145951791Y-29730771D02*
X145856553Y-29683152D01*
X145856553Y-29683152D02*
X145713696Y-29683152D01*
X145713696Y-29683152D02*
X145618458Y-29730771D01*
X145618458Y-29730771D02*
X145570839Y-29826009D01*
X145570839Y-29826009D02*
X145570839Y-30349819D01*
%LPC*%
D11*
%TO.C,U1*%
X107950000Y-33020000D03*
D12*
X107950000Y-35560000D03*
X107950000Y-38100000D03*
X107950000Y-40640000D03*
X107950000Y-43180000D03*
X107950000Y-45720000D03*
X107950000Y-48260000D03*
X107950000Y-50800000D03*
X107950000Y-53340000D03*
X107950000Y-55880000D03*
X107950000Y-58420000D03*
X107950000Y-60960000D03*
X107950000Y-63500000D03*
X107950000Y-66040000D03*
X107950000Y-68580000D03*
X107950000Y-71120000D03*
X130810000Y-71120000D03*
X130810000Y-68580000D03*
X130810000Y-66040000D03*
X130810000Y-63500000D03*
X130810000Y-60960000D03*
X130810000Y-58420000D03*
X130810000Y-55880000D03*
X130810000Y-53340000D03*
X130810000Y-50800000D03*
X130810000Y-48260000D03*
X130810000Y-45720000D03*
X130810000Y-43180000D03*
X130810000Y-40640000D03*
X130810000Y-38100000D03*
X130810000Y-35560000D03*
X130810000Y-33020000D03*
%TD*%
D13*
%TO.C,R1*%
X50800000Y-45720000D03*
D14*
X50800000Y-35560000D03*
%TD*%
D15*
%TO.C,J8*%
X88900000Y-88900000D03*
D16*
X91440000Y-88900000D03*
%TD*%
D15*
%TO.C,J9*%
X25400000Y-33020000D03*
D16*
X25400000Y-35560000D03*
X25400000Y-38100000D03*
X25400000Y-40640000D03*
%TD*%
D17*
%TO.C,D1*%
X55880000Y-27940000D03*
D18*
X53340000Y-27940000D03*
%TD*%
D13*
%TO.C,R4*%
X33020000Y-27940000D03*
D14*
X43180000Y-27940000D03*
%TD*%
D19*
%TO.C,H3*%
X165100000Y-88900000D03*
%TD*%
D15*
%TO.C,SW2*%
X101600000Y-22860000D03*
D16*
X101600000Y-25400000D03*
%TD*%
D19*
%TO.C,TP5*%
X165100000Y-35560000D03*
%TD*%
%TO.C,H2*%
X165100000Y-22860000D03*
%TD*%
D20*
%TO.C,U2*%
X53020000Y-71120000D03*
D21*
X53020000Y-73660000D03*
X53020000Y-76200000D03*
X53020000Y-78740000D03*
X53020000Y-81280000D03*
X53020000Y-83820000D03*
X53020000Y-86360000D03*
X60960000Y-86360000D03*
X60960000Y-83820000D03*
X60960000Y-81280000D03*
X60960000Y-78740000D03*
X60960000Y-76200000D03*
X60960000Y-73660000D03*
X60960000Y-71120000D03*
%TD*%
D13*
%TO.C,R2*%
X50800000Y-60960000D03*
D14*
X50800000Y-50800000D03*
%TD*%
D22*
%TO.C,U3*%
X142240000Y-48260000D03*
X142240000Y-50800000D03*
X142240000Y-53340000D03*
X142240000Y-55880000D03*
X142240000Y-58420000D03*
X142240000Y-60960000D03*
X142240000Y-63500000D03*
X142240000Y-66040000D03*
X157480000Y-66040000D03*
X157480000Y-63500000D03*
X157480000Y-60960000D03*
X157480000Y-58420000D03*
X157480000Y-55880000D03*
X157480000Y-53340000D03*
X157480000Y-50800000D03*
X157480000Y-48260000D03*
%TD*%
D19*
%TO.C,H4*%
X25400000Y-88900000D03*
%TD*%
%TO.C,TP10*%
X93980000Y-22860000D03*
%TD*%
D15*
%TO.C,J11*%
X25400000Y-68580000D03*
D16*
X25400000Y-71120000D03*
X25400000Y-73660000D03*
X25400000Y-76200000D03*
%TD*%
D19*
%TO.C,TP6*%
X165100000Y-45720000D03*
%TD*%
%TO.C,TP3*%
X78740000Y-22860000D03*
%TD*%
D15*
%TO.C,J3*%
X45720000Y-50800000D03*
D16*
X45720000Y-53340000D03*
X45720000Y-55880000D03*
X45720000Y-58420000D03*
%TD*%
D13*
%TO.C,R3*%
X91440000Y-33020000D03*
D14*
X101600000Y-33020000D03*
%TD*%
D15*
%TO.C,SW1*%
X35560000Y-22860000D03*
D16*
X33020000Y-22860000D03*
%TD*%
D19*
%TO.C,TP8*%
X137160000Y-88900000D03*
%TD*%
D15*
%TO.C,J6*%
X165100000Y-53340000D03*
D16*
X165100000Y-55880000D03*
X165100000Y-58420000D03*
X165100000Y-60960000D03*
%TD*%
D19*
%TO.C,TP2*%
X81280000Y-43180000D03*
%TD*%
%TO.C,TP7*%
X101600000Y-88900000D03*
%TD*%
D15*
%TO.C,J7*%
X83820000Y-66040000D03*
D16*
X83820000Y-68580000D03*
X83820000Y-71120000D03*
X83820000Y-73660000D03*
X83820000Y-76200000D03*
%TD*%
D19*
%TO.C,TP9*%
X137160000Y-83820000D03*
%TD*%
D15*
%TO.C,J1*%
X43180000Y-22860000D03*
D16*
X45720000Y-22860000D03*
%TD*%
D15*
%TO.C,J4*%
X149860000Y-22860000D03*
D16*
X152400000Y-22860000D03*
%TD*%
D19*
%TO.C,H1*%
X25400000Y-22860000D03*
%TD*%
D15*
%TO.C,J12*%
X115015000Y-90725000D03*
D16*
X117555000Y-90725000D03*
X120095000Y-90725000D03*
X122635000Y-90725000D03*
X125175000Y-90725000D03*
%TD*%
D19*
%TO.C,TP1*%
X71120000Y-22860000D03*
%TD*%
D15*
%TO.C,J5*%
X147320000Y-88900000D03*
D16*
X149860000Y-88900000D03*
%TD*%
D15*
%TO.C,J10*%
X25400000Y-50800000D03*
D16*
X25400000Y-53340000D03*
X25400000Y-55880000D03*
X25400000Y-58420000D03*
%TD*%
D15*
%TO.C,J2*%
X45720000Y-35560000D03*
D16*
X45720000Y-38100000D03*
X45720000Y-40640000D03*
X45720000Y-43180000D03*
%TD*%
D19*
%TO.C,TP4*%
X86360000Y-22860000D03*
%TD*%
%LPD*%
M02*
