%TF.GenerationSoftware,KiCad,Pcbnew,8.0.7*%
%TF.CreationDate,2025-09-21T15:13:06-04:00*%
%TF.ProjectId,buzzcar_main,62757a7a-6361-4725-9f6d-61696e2e6b69,rev?*%
%TF.SameCoordinates,Original*%
%TF.FileFunction,Drillmap*%
%TF.FilePolarity,Positive*%
%FSLAX45Y45*%
G04 Gerber Fmt 4.5, Leading zero omitted, Abs format (unit mm)*
G04 Created by KiCad (PCBNEW 8.0.7) date 2025-09-21 15:13:06*
%MOMM*%
%LPD*%
G01*
G04 APERTURE LIST*
%ADD10C,0.050000*%
%ADD11C,0.200000*%
%ADD12C,0.100000*%
%ADD13C,0.132000*%
%ADD14C,0.160000*%
G04 APERTURE END LIST*
D10*
X2032000Y-1524000D02*
X17018000Y-1524000D01*
X17018000Y-9652000D01*
X2032000Y-9652000D01*
X2032000Y-1524000D01*
D11*
D12*
X3541000Y-4049000D02*
X3571000Y-4079000D01*
X3571000Y-4049000D02*
X3541000Y-4079000D01*
X4049000Y-5827000D02*
X4079000Y-5857000D01*
X4079000Y-5827000D02*
X4049000Y-5857000D01*
X4557000Y-6335000D02*
X4587000Y-6365000D01*
X4587000Y-6335000D02*
X4557000Y-6365000D01*
X5016700Y-3746700D02*
X5046700Y-3776700D01*
X5046700Y-3746700D02*
X5016700Y-3776700D01*
X5065000Y-5573000D02*
X5095000Y-5603000D01*
X5095000Y-5573000D02*
X5065000Y-5603000D01*
X5219915Y-8013915D02*
X5249915Y-8043915D01*
X5249915Y-8013915D02*
X5219915Y-8043915D01*
X8113000Y-5319000D02*
X8143000Y-5349000D01*
X8143000Y-5319000D02*
X8113000Y-5349000D01*
X8113000Y-8113000D02*
X8143000Y-8143000D01*
X8143000Y-8113000D02*
X8113000Y-8143000D01*
X8324646Y-8324646D02*
X8354646Y-8354646D01*
X8354646Y-8324646D02*
X8324646Y-8354646D01*
X8367000Y-7859000D02*
X8397000Y-7889000D01*
X8397000Y-7859000D02*
X8367000Y-7889000D01*
X8621000Y-7859000D02*
X8651000Y-7889000D01*
X8651000Y-7859000D02*
X8621000Y-7889000D01*
X8917354Y-8155354D02*
X8947354Y-8185354D01*
X8947354Y-8155354D02*
X8917354Y-8185354D01*
X10145000Y-7351000D02*
X10175000Y-7381000D01*
X10175000Y-7351000D02*
X10145000Y-7381000D01*
X11161000Y-7605000D02*
X11191000Y-7635000D01*
X11191000Y-7605000D02*
X11161000Y-7635000D01*
X12685000Y-2271000D02*
X12715000Y-2301000D01*
X12715000Y-2271000D02*
X12685000Y-2301000D01*
X12685000Y-6589000D02*
X12715000Y-6619000D01*
X12715000Y-6589000D02*
X12685000Y-6619000D01*
X12939000Y-8113000D02*
X12969000Y-8143000D01*
X12969000Y-8113000D02*
X12939000Y-8143000D01*
X13447000Y-5065000D02*
X13477000Y-5095000D01*
X13477000Y-5065000D02*
X13447000Y-5095000D01*
X13447000Y-6335000D02*
X13477000Y-6365000D01*
X13477000Y-6335000D02*
X13447000Y-6365000D01*
X13447000Y-7605000D02*
X13477000Y-7635000D01*
X13477000Y-7605000D02*
X13447000Y-7635000D01*
X13701000Y-4811000D02*
X13731000Y-4841000D01*
X13731000Y-4811000D02*
X13701000Y-4841000D01*
X13701000Y-6843000D02*
X13731000Y-6873000D01*
X13731000Y-6843000D02*
X13701000Y-6873000D01*
X14971000Y-5573000D02*
X15001000Y-5603000D01*
X15001000Y-5573000D02*
X14971000Y-5603000D01*
X15260850Y-6878850D02*
X15290850Y-6908850D01*
X15290850Y-6878850D02*
X15260850Y-6908850D01*
X5340500Y-7112000D02*
G75*
G02*
X5263500Y-7112000I-38500J0D01*
G01*
X5263500Y-7112000D02*
G75*
G02*
X5340500Y-7112000I38500J0D01*
G01*
X5340500Y-7366000D02*
G75*
G02*
X5263500Y-7366000I-38500J0D01*
G01*
X5263500Y-7366000D02*
G75*
G02*
X5340500Y-7366000I38500J0D01*
G01*
X5340500Y-7620000D02*
G75*
G02*
X5263500Y-7620000I-38500J0D01*
G01*
X5263500Y-7620000D02*
G75*
G02*
X5340500Y-7620000I38500J0D01*
G01*
X5340500Y-7874000D02*
G75*
G02*
X5263500Y-7874000I-38500J0D01*
G01*
X5263500Y-7874000D02*
G75*
G02*
X5340500Y-7874000I38500J0D01*
G01*
X5340500Y-8128000D02*
G75*
G02*
X5263500Y-8128000I-38500J0D01*
G01*
X5263500Y-8128000D02*
G75*
G02*
X5340500Y-8128000I38500J0D01*
G01*
X5340500Y-8382000D02*
G75*
G02*
X5263500Y-8382000I-38500J0D01*
G01*
X5263500Y-8382000D02*
G75*
G02*
X5340500Y-8382000I38500J0D01*
G01*
X5340500Y-8636000D02*
G75*
G02*
X5263500Y-8636000I-38500J0D01*
G01*
X5263500Y-8636000D02*
G75*
G02*
X5340500Y-8636000I38500J0D01*
G01*
X6134500Y-7112000D02*
G75*
G02*
X6057500Y-7112000I-38500J0D01*
G01*
X6057500Y-7112000D02*
G75*
G02*
X6134500Y-7112000I38500J0D01*
G01*
X6134500Y-7366000D02*
G75*
G02*
X6057500Y-7366000I-38500J0D01*
G01*
X6057500Y-7366000D02*
G75*
G02*
X6134500Y-7366000I38500J0D01*
G01*
X6134500Y-7620000D02*
G75*
G02*
X6057500Y-7620000I-38500J0D01*
G01*
X6057500Y-7620000D02*
G75*
G02*
X6134500Y-7620000I38500J0D01*
G01*
X6134500Y-7874000D02*
G75*
G02*
X6057500Y-7874000I-38500J0D01*
G01*
X6057500Y-7874000D02*
G75*
G02*
X6134500Y-7874000I38500J0D01*
G01*
X6134500Y-8128000D02*
G75*
G02*
X6057500Y-8128000I-38500J0D01*
G01*
X6057500Y-8128000D02*
G75*
G02*
X6134500Y-8128000I38500J0D01*
G01*
X6134500Y-8382000D02*
G75*
G02*
X6057500Y-8382000I-38500J0D01*
G01*
X6057500Y-8382000D02*
G75*
G02*
X6134500Y-8382000I38500J0D01*
G01*
X6134500Y-8636000D02*
G75*
G02*
X6057500Y-8636000I-38500J0D01*
G01*
X6057500Y-8636000D02*
G75*
G02*
X6134500Y-8636000I38500J0D01*
G01*
X3302000Y-2754000D02*
X3302000Y-2834000D01*
X3262000Y-2794000D02*
X3342000Y-2794000D01*
X4318000Y-2754000D02*
X4318000Y-2834000D01*
X4278000Y-2794000D02*
X4358000Y-2794000D01*
X5080000Y-3516000D02*
X5080000Y-3596000D01*
X5040000Y-3556000D02*
X5120000Y-3556000D01*
X5080000Y-4532000D02*
X5080000Y-4612000D01*
X5040000Y-4572000D02*
X5120000Y-4572000D01*
X5080000Y-5040000D02*
X5080000Y-5120000D01*
X5040000Y-5080000D02*
X5120000Y-5080000D01*
X5080000Y-6056000D02*
X5080000Y-6136000D01*
X5040000Y-6096000D02*
X5120000Y-6096000D01*
X9144000Y-3262000D02*
X9144000Y-3342000D01*
X9104000Y-3302000D02*
X9184000Y-3302000D01*
X10160000Y-3262000D02*
X10160000Y-3342000D01*
X10120000Y-3302000D02*
X10200000Y-3302000D01*
X10795000Y-3262000D02*
X10795000Y-3342000D01*
X10755000Y-3302000D02*
X10835000Y-3302000D01*
X10795000Y-3516000D02*
X10795000Y-3596000D01*
X10755000Y-3556000D02*
X10835000Y-3556000D01*
X10795000Y-3770000D02*
X10795000Y-3850000D01*
X10755000Y-3810000D02*
X10835000Y-3810000D01*
X10795000Y-4024000D02*
X10795000Y-4104000D01*
X10755000Y-4064000D02*
X10835000Y-4064000D01*
X10795000Y-4278000D02*
X10795000Y-4358000D01*
X10755000Y-4318000D02*
X10835000Y-4318000D01*
X10795000Y-4532000D02*
X10795000Y-4612000D01*
X10755000Y-4572000D02*
X10835000Y-4572000D01*
X10795000Y-4786000D02*
X10795000Y-4866000D01*
X10755000Y-4826000D02*
X10835000Y-4826000D01*
X10795000Y-5040000D02*
X10795000Y-5120000D01*
X10755000Y-5080000D02*
X10835000Y-5080000D01*
X10795000Y-5294000D02*
X10795000Y-5374000D01*
X10755000Y-5334000D02*
X10835000Y-5334000D01*
X10795000Y-5548000D02*
X10795000Y-5628000D01*
X10755000Y-5588000D02*
X10835000Y-5588000D01*
X10795000Y-5802000D02*
X10795000Y-5882000D01*
X10755000Y-5842000D02*
X10835000Y-5842000D01*
X10795000Y-6056000D02*
X10795000Y-6136000D01*
X10755000Y-6096000D02*
X10835000Y-6096000D01*
X10795000Y-6310000D02*
X10795000Y-6390000D01*
X10755000Y-6350000D02*
X10835000Y-6350000D01*
X10795000Y-6564000D02*
X10795000Y-6644000D01*
X10755000Y-6604000D02*
X10835000Y-6604000D01*
X10795000Y-6818000D02*
X10795000Y-6898000D01*
X10755000Y-6858000D02*
X10835000Y-6858000D01*
X10795000Y-7072000D02*
X10795000Y-7152000D01*
X10755000Y-7112000D02*
X10835000Y-7112000D01*
X13081000Y-3262000D02*
X13081000Y-3342000D01*
X13041000Y-3302000D02*
X13121000Y-3302000D01*
X13081000Y-3516000D02*
X13081000Y-3596000D01*
X13041000Y-3556000D02*
X13121000Y-3556000D01*
X13081000Y-3770000D02*
X13081000Y-3850000D01*
X13041000Y-3810000D02*
X13121000Y-3810000D01*
X13081000Y-4024000D02*
X13081000Y-4104000D01*
X13041000Y-4064000D02*
X13121000Y-4064000D01*
X13081000Y-4278000D02*
X13081000Y-4358000D01*
X13041000Y-4318000D02*
X13121000Y-4318000D01*
X13081000Y-4532000D02*
X13081000Y-4612000D01*
X13041000Y-4572000D02*
X13121000Y-4572000D01*
X13081000Y-4786000D02*
X13081000Y-4866000D01*
X13041000Y-4826000D02*
X13121000Y-4826000D01*
X13081000Y-5040000D02*
X13081000Y-5120000D01*
X13041000Y-5080000D02*
X13121000Y-5080000D01*
X13081000Y-5294000D02*
X13081000Y-5374000D01*
X13041000Y-5334000D02*
X13121000Y-5334000D01*
X13081000Y-5548000D02*
X13081000Y-5628000D01*
X13041000Y-5588000D02*
X13121000Y-5588000D01*
X13081000Y-5802000D02*
X13081000Y-5882000D01*
X13041000Y-5842000D02*
X13121000Y-5842000D01*
X13081000Y-6056000D02*
X13081000Y-6136000D01*
X13041000Y-6096000D02*
X13121000Y-6096000D01*
X13081000Y-6310000D02*
X13081000Y-6390000D01*
X13041000Y-6350000D02*
X13121000Y-6350000D01*
X13081000Y-6564000D02*
X13081000Y-6644000D01*
X13041000Y-6604000D02*
X13121000Y-6604000D01*
X13081000Y-6818000D02*
X13081000Y-6898000D01*
X13041000Y-6858000D02*
X13121000Y-6858000D01*
X13081000Y-7072000D02*
X13081000Y-7152000D01*
X13041000Y-7112000D02*
X13121000Y-7112000D01*
X5365820Y-2825820D02*
X5365820Y-2762180D01*
X5302180Y-2762180D01*
X5302180Y-2825820D01*
X5365820Y-2825820D01*
X5619820Y-2825820D02*
X5619820Y-2762180D01*
X5556180Y-2762180D01*
X5556180Y-2825820D01*
X5619820Y-2825820D01*
X2540000Y-3352000D02*
X2590000Y-3302000D01*
X2540000Y-3252000D01*
X2490000Y-3302000D01*
X2540000Y-3352000D01*
X2540000Y-3606000D02*
X2590000Y-3556000D01*
X2540000Y-3506000D01*
X2490000Y-3556000D01*
X2540000Y-3606000D01*
X2540000Y-3860000D02*
X2590000Y-3810000D01*
X2540000Y-3760000D01*
X2490000Y-3810000D01*
X2540000Y-3860000D01*
X2540000Y-4114000D02*
X2590000Y-4064000D01*
X2540000Y-4014000D01*
X2490000Y-4064000D01*
X2540000Y-4114000D01*
X2540000Y-5130000D02*
X2590000Y-5080000D01*
X2540000Y-5030000D01*
X2490000Y-5080000D01*
X2540000Y-5130000D01*
X2540000Y-5384000D02*
X2590000Y-5334000D01*
X2540000Y-5284000D01*
X2490000Y-5334000D01*
X2540000Y-5384000D01*
X2540000Y-5638000D02*
X2590000Y-5588000D01*
X2540000Y-5538000D01*
X2490000Y-5588000D01*
X2540000Y-5638000D01*
X2540000Y-5892000D02*
X2590000Y-5842000D01*
X2540000Y-5792000D01*
X2490000Y-5842000D01*
X2540000Y-5892000D01*
X2540000Y-6908000D02*
X2590000Y-6858000D01*
X2540000Y-6808000D01*
X2490000Y-6858000D01*
X2540000Y-6908000D01*
X2540000Y-7162000D02*
X2590000Y-7112000D01*
X2540000Y-7062000D01*
X2490000Y-7112000D01*
X2540000Y-7162000D01*
X2540000Y-7416000D02*
X2590000Y-7366000D01*
X2540000Y-7316000D01*
X2490000Y-7366000D01*
X2540000Y-7416000D01*
X2540000Y-7670000D02*
X2590000Y-7620000D01*
X2540000Y-7570000D01*
X2490000Y-7620000D01*
X2540000Y-7670000D01*
X3302000Y-2336000D02*
X3352000Y-2286000D01*
X3302000Y-2236000D01*
X3252000Y-2286000D01*
X3302000Y-2336000D01*
X3556000Y-2336000D02*
X3606000Y-2286000D01*
X3556000Y-2236000D01*
X3506000Y-2286000D01*
X3556000Y-2336000D01*
X4318000Y-2336000D02*
X4368000Y-2286000D01*
X4318000Y-2236000D01*
X4268000Y-2286000D01*
X4318000Y-2336000D01*
X4572000Y-2336000D02*
X4622000Y-2286000D01*
X4572000Y-2236000D01*
X4522000Y-2286000D01*
X4572000Y-2336000D01*
X4572000Y-3606000D02*
X4622000Y-3556000D01*
X4572000Y-3506000D01*
X4522000Y-3556000D01*
X4572000Y-3606000D01*
X4572000Y-3860000D02*
X4622000Y-3810000D01*
X4572000Y-3760000D01*
X4522000Y-3810000D01*
X4572000Y-3860000D01*
X4572000Y-4114000D02*
X4622000Y-4064000D01*
X4572000Y-4014000D01*
X4522000Y-4064000D01*
X4572000Y-4114000D01*
X4572000Y-4368000D02*
X4622000Y-4318000D01*
X4572000Y-4268000D01*
X4522000Y-4318000D01*
X4572000Y-4368000D01*
X4572000Y-5130000D02*
X4622000Y-5080000D01*
X4572000Y-5030000D01*
X4522000Y-5080000D01*
X4572000Y-5130000D01*
X4572000Y-5384000D02*
X4622000Y-5334000D01*
X4572000Y-5284000D01*
X4522000Y-5334000D01*
X4572000Y-5384000D01*
X4572000Y-5638000D02*
X4622000Y-5588000D01*
X4572000Y-5538000D01*
X4522000Y-5588000D01*
X4572000Y-5638000D01*
X4572000Y-5892000D02*
X4622000Y-5842000D01*
X4572000Y-5792000D01*
X4522000Y-5842000D01*
X4572000Y-5892000D01*
X8382000Y-6654000D02*
X8432000Y-6604000D01*
X8382000Y-6554000D01*
X8332000Y-6604000D01*
X8382000Y-6654000D01*
X8382000Y-6908000D02*
X8432000Y-6858000D01*
X8382000Y-6808000D01*
X8332000Y-6858000D01*
X8382000Y-6908000D01*
X8382000Y-7162000D02*
X8432000Y-7112000D01*
X8382000Y-7062000D01*
X8332000Y-7112000D01*
X8382000Y-7162000D01*
X8382000Y-7416000D02*
X8432000Y-7366000D01*
X8382000Y-7316000D01*
X8332000Y-7366000D01*
X8382000Y-7416000D01*
X8382000Y-7670000D02*
X8432000Y-7620000D01*
X8382000Y-7570000D01*
X8332000Y-7620000D01*
X8382000Y-7670000D01*
X8890000Y-8940000D02*
X8940000Y-8890000D01*
X8890000Y-8840000D01*
X8840000Y-8890000D01*
X8890000Y-8940000D01*
X9144000Y-8940000D02*
X9194000Y-8890000D01*
X9144000Y-8840000D01*
X9094000Y-8890000D01*
X9144000Y-8940000D01*
X10160000Y-2336000D02*
X10210000Y-2286000D01*
X10160000Y-2236000D01*
X10110000Y-2286000D01*
X10160000Y-2336000D01*
X10160000Y-2590000D02*
X10210000Y-2540000D01*
X10160000Y-2490000D01*
X10110000Y-2540000D01*
X10160000Y-2590000D01*
X11501500Y-9122500D02*
X11551500Y-9072500D01*
X11501500Y-9022500D01*
X11451500Y-9072500D01*
X11501500Y-9122500D01*
X11755500Y-9122500D02*
X11805500Y-9072500D01*
X11755500Y-9022500D01*
X11705500Y-9072500D01*
X11755500Y-9122500D01*
X12009500Y-9122500D02*
X12059500Y-9072500D01*
X12009500Y-9022500D01*
X11959500Y-9072500D01*
X12009500Y-9122500D01*
X12263500Y-9122500D02*
X12313500Y-9072500D01*
X12263500Y-9022500D01*
X12213500Y-9072500D01*
X12263500Y-9122500D01*
X12517500Y-9122500D02*
X12567500Y-9072500D01*
X12517500Y-9022500D01*
X12467500Y-9072500D01*
X12517500Y-9122500D01*
X14732000Y-8940000D02*
X14782000Y-8890000D01*
X14732000Y-8840000D01*
X14682000Y-8890000D01*
X14732000Y-8940000D01*
X14986000Y-2336000D02*
X15036000Y-2286000D01*
X14986000Y-2236000D01*
X14936000Y-2286000D01*
X14986000Y-2336000D01*
X14986000Y-8940000D02*
X15036000Y-8890000D01*
X14986000Y-8840000D01*
X14936000Y-8890000D01*
X14986000Y-8940000D01*
X15240000Y-2336000D02*
X15290000Y-2286000D01*
X15240000Y-2236000D01*
X15190000Y-2286000D01*
X15240000Y-2336000D01*
X16510000Y-5384000D02*
X16560000Y-5334000D01*
X16510000Y-5284000D01*
X16460000Y-5334000D01*
X16510000Y-5384000D01*
X16510000Y-5638000D02*
X16560000Y-5588000D01*
X16510000Y-5538000D01*
X16460000Y-5588000D01*
X16510000Y-5638000D01*
X16510000Y-5892000D02*
X16560000Y-5842000D01*
X16510000Y-5792000D01*
X16460000Y-5842000D01*
X16510000Y-5892000D01*
X16510000Y-6146000D02*
X16560000Y-6096000D01*
X16510000Y-6046000D01*
X16460000Y-6096000D01*
X16510000Y-6146000D01*
D13*
X14158000Y-4760000D02*
X14290000Y-4892000D01*
X14290000Y-4760000D02*
X14158000Y-4892000D01*
X14290000Y-4826000D02*
G75*
G02*
X14158000Y-4826000I-66000J0D01*
G01*
X14158000Y-4826000D02*
G75*
G02*
X14290000Y-4826000I66000J0D01*
G01*
X14158000Y-5014000D02*
X14290000Y-5146000D01*
X14290000Y-5014000D02*
X14158000Y-5146000D01*
X14290000Y-5080000D02*
G75*
G02*
X14158000Y-5080000I-66000J0D01*
G01*
X14158000Y-5080000D02*
G75*
G02*
X14290000Y-5080000I66000J0D01*
G01*
X14158000Y-5268000D02*
X14290000Y-5400000D01*
X14290000Y-5268000D02*
X14158000Y-5400000D01*
X14290000Y-5334000D02*
G75*
G02*
X14158000Y-5334000I-66000J0D01*
G01*
X14158000Y-5334000D02*
G75*
G02*
X14290000Y-5334000I66000J0D01*
G01*
X14158000Y-5522000D02*
X14290000Y-5654000D01*
X14290000Y-5522000D02*
X14158000Y-5654000D01*
X14290000Y-5588000D02*
G75*
G02*
X14158000Y-5588000I-66000J0D01*
G01*
X14158000Y-5588000D02*
G75*
G02*
X14290000Y-5588000I66000J0D01*
G01*
X14158000Y-5776000D02*
X14290000Y-5908000D01*
X14290000Y-5776000D02*
X14158000Y-5908000D01*
X14290000Y-5842000D02*
G75*
G02*
X14158000Y-5842000I-66000J0D01*
G01*
X14158000Y-5842000D02*
G75*
G02*
X14290000Y-5842000I66000J0D01*
G01*
X14158000Y-6030000D02*
X14290000Y-6162000D01*
X14290000Y-6030000D02*
X14158000Y-6162000D01*
X14290000Y-6096000D02*
G75*
G02*
X14158000Y-6096000I-66000J0D01*
G01*
X14158000Y-6096000D02*
G75*
G02*
X14290000Y-6096000I66000J0D01*
G01*
X14158000Y-6284000D02*
X14290000Y-6416000D01*
X14290000Y-6284000D02*
X14158000Y-6416000D01*
X14290000Y-6350000D02*
G75*
G02*
X14158000Y-6350000I-66000J0D01*
G01*
X14158000Y-6350000D02*
G75*
G02*
X14290000Y-6350000I66000J0D01*
G01*
X14158000Y-6538000D02*
X14290000Y-6670000D01*
X14290000Y-6538000D02*
X14158000Y-6670000D01*
X14290000Y-6604000D02*
G75*
G02*
X14158000Y-6604000I-66000J0D01*
G01*
X14158000Y-6604000D02*
G75*
G02*
X14290000Y-6604000I66000J0D01*
G01*
X15682000Y-4760000D02*
X15814000Y-4892000D01*
X15814000Y-4760000D02*
X15682000Y-4892000D01*
X15814000Y-4826000D02*
G75*
G02*
X15682000Y-4826000I-66000J0D01*
G01*
X15682000Y-4826000D02*
G75*
G02*
X15814000Y-4826000I66000J0D01*
G01*
X15682000Y-5014000D02*
X15814000Y-5146000D01*
X15814000Y-5014000D02*
X15682000Y-5146000D01*
X15814000Y-5080000D02*
G75*
G02*
X15682000Y-5080000I-66000J0D01*
G01*
X15682000Y-5080000D02*
G75*
G02*
X15814000Y-5080000I66000J0D01*
G01*
X15682000Y-5268000D02*
X15814000Y-5400000D01*
X15814000Y-5268000D02*
X15682000Y-5400000D01*
X15814000Y-5334000D02*
G75*
G02*
X15682000Y-5334000I-66000J0D01*
G01*
X15682000Y-5334000D02*
G75*
G02*
X15814000Y-5334000I66000J0D01*
G01*
X15682000Y-5522000D02*
X15814000Y-5654000D01*
X15814000Y-5522000D02*
X15682000Y-5654000D01*
X15814000Y-5588000D02*
G75*
G02*
X15682000Y-5588000I-66000J0D01*
G01*
X15682000Y-5588000D02*
G75*
G02*
X15814000Y-5588000I66000J0D01*
G01*
X15682000Y-5776000D02*
X15814000Y-5908000D01*
X15814000Y-5776000D02*
X15682000Y-5908000D01*
X15814000Y-5842000D02*
G75*
G02*
X15682000Y-5842000I-66000J0D01*
G01*
X15682000Y-5842000D02*
G75*
G02*
X15814000Y-5842000I66000J0D01*
G01*
X15682000Y-6030000D02*
X15814000Y-6162000D01*
X15814000Y-6030000D02*
X15682000Y-6162000D01*
X15814000Y-6096000D02*
G75*
G02*
X15682000Y-6096000I-66000J0D01*
G01*
X15682000Y-6096000D02*
G75*
G02*
X15814000Y-6096000I66000J0D01*
G01*
X15682000Y-6284000D02*
X15814000Y-6416000D01*
X15814000Y-6284000D02*
X15682000Y-6416000D01*
X15814000Y-6350000D02*
G75*
G02*
X15682000Y-6350000I-66000J0D01*
G01*
X15682000Y-6350000D02*
G75*
G02*
X15814000Y-6350000I66000J0D01*
G01*
X15682000Y-6538000D02*
X15814000Y-6670000D01*
X15814000Y-6538000D02*
X15682000Y-6670000D01*
X15814000Y-6604000D02*
G75*
G02*
X15682000Y-6604000I-66000J0D01*
G01*
X15682000Y-6604000D02*
G75*
G02*
X15814000Y-6604000I66000J0D01*
G01*
D14*
X7032000Y-2206000D02*
X7192000Y-2366000D01*
X7192000Y-2206000D02*
X7032000Y-2366000D01*
X7112000Y-2206000D02*
X7112000Y-2366000D01*
X7032000Y-2286000D02*
X7192000Y-2286000D01*
X7794000Y-2206000D02*
X7954000Y-2366000D01*
X7954000Y-2206000D02*
X7794000Y-2366000D01*
X7874000Y-2206000D02*
X7874000Y-2366000D01*
X7794000Y-2286000D02*
X7954000Y-2286000D01*
X8048000Y-4238000D02*
X8208000Y-4398000D01*
X8208000Y-4238000D02*
X8048000Y-4398000D01*
X8128000Y-4238000D02*
X8128000Y-4398000D01*
X8048000Y-4318000D02*
X8208000Y-4318000D01*
X8556000Y-2206000D02*
X8716000Y-2366000D01*
X8716000Y-2206000D02*
X8556000Y-2366000D01*
X8636000Y-2206000D02*
X8636000Y-2366000D01*
X8556000Y-2286000D02*
X8716000Y-2286000D01*
X9318000Y-2206000D02*
X9478000Y-2366000D01*
X9478000Y-2206000D02*
X9318000Y-2366000D01*
X9398000Y-2206000D02*
X9398000Y-2366000D01*
X9318000Y-2286000D02*
X9478000Y-2286000D01*
X10080000Y-8810000D02*
X10240000Y-8970000D01*
X10240000Y-8810000D02*
X10080000Y-8970000D01*
X10160000Y-8810000D02*
X10160000Y-8970000D01*
X10080000Y-8890000D02*
X10240000Y-8890000D01*
X13636000Y-8302000D02*
X13796000Y-8462000D01*
X13796000Y-8302000D02*
X13636000Y-8462000D01*
X13716000Y-8302000D02*
X13716000Y-8462000D01*
X13636000Y-8382000D02*
X13796000Y-8382000D01*
X13636000Y-8810000D02*
X13796000Y-8970000D01*
X13796000Y-8810000D02*
X13636000Y-8970000D01*
X13716000Y-8810000D02*
X13716000Y-8970000D01*
X13636000Y-8890000D02*
X13796000Y-8890000D01*
X16430000Y-3476000D02*
X16590000Y-3636000D01*
X16590000Y-3476000D02*
X16430000Y-3636000D01*
X16510000Y-3476000D02*
X16510000Y-3636000D01*
X16430000Y-3556000D02*
X16590000Y-3556000D01*
X16430000Y-4492000D02*
X16590000Y-4652000D01*
X16590000Y-4492000D02*
X16430000Y-4652000D01*
X16510000Y-4492000D02*
X16510000Y-4652000D01*
X16430000Y-4572000D02*
X16590000Y-4572000D01*
D11*
X2290277Y-9965984D02*
X2290277Y-9765984D01*
X2290277Y-9765984D02*
X2337896Y-9765984D01*
X2337896Y-9765984D02*
X2366467Y-9775508D01*
X2366467Y-9775508D02*
X2385515Y-9794555D01*
X2385515Y-9794555D02*
X2395039Y-9813603D01*
X2395039Y-9813603D02*
X2404563Y-9851698D01*
X2404563Y-9851698D02*
X2404563Y-9880270D01*
X2404563Y-9880270D02*
X2395039Y-9918365D01*
X2395039Y-9918365D02*
X2385515Y-9937412D01*
X2385515Y-9937412D02*
X2366467Y-9956460D01*
X2366467Y-9956460D02*
X2337896Y-9965984D01*
X2337896Y-9965984D02*
X2290277Y-9965984D01*
X2490277Y-9965984D02*
X2490277Y-9832650D01*
X2490277Y-9870746D02*
X2499801Y-9851698D01*
X2499801Y-9851698D02*
X2509324Y-9842174D01*
X2509324Y-9842174D02*
X2528372Y-9832650D01*
X2528372Y-9832650D02*
X2547420Y-9832650D01*
X2614086Y-9965984D02*
X2614086Y-9832650D01*
X2614086Y-9765984D02*
X2604563Y-9775508D01*
X2604563Y-9775508D02*
X2614086Y-9785031D01*
X2614086Y-9785031D02*
X2623610Y-9775508D01*
X2623610Y-9775508D02*
X2614086Y-9765984D01*
X2614086Y-9765984D02*
X2614086Y-9785031D01*
X2737896Y-9965984D02*
X2718848Y-9956460D01*
X2718848Y-9956460D02*
X2709324Y-9937412D01*
X2709324Y-9937412D02*
X2709324Y-9765984D01*
X2842658Y-9965984D02*
X2823610Y-9956460D01*
X2823610Y-9956460D02*
X2814086Y-9937412D01*
X2814086Y-9937412D02*
X2814086Y-9765984D01*
X3071229Y-9965984D02*
X3071229Y-9765984D01*
X3071229Y-9765984D02*
X3137896Y-9908841D01*
X3137896Y-9908841D02*
X3204562Y-9765984D01*
X3204562Y-9765984D02*
X3204562Y-9965984D01*
X3385515Y-9965984D02*
X3385515Y-9861222D01*
X3385515Y-9861222D02*
X3375991Y-9842174D01*
X3375991Y-9842174D02*
X3356943Y-9832650D01*
X3356943Y-9832650D02*
X3318848Y-9832650D01*
X3318848Y-9832650D02*
X3299801Y-9842174D01*
X3385515Y-9956460D02*
X3366467Y-9965984D01*
X3366467Y-9965984D02*
X3318848Y-9965984D01*
X3318848Y-9965984D02*
X3299801Y-9956460D01*
X3299801Y-9956460D02*
X3290277Y-9937412D01*
X3290277Y-9937412D02*
X3290277Y-9918365D01*
X3290277Y-9918365D02*
X3299801Y-9899317D01*
X3299801Y-9899317D02*
X3318848Y-9889793D01*
X3318848Y-9889793D02*
X3366467Y-9889793D01*
X3366467Y-9889793D02*
X3385515Y-9880270D01*
X3480753Y-9832650D02*
X3480753Y-10032650D01*
X3480753Y-9842174D02*
X3499801Y-9832650D01*
X3499801Y-9832650D02*
X3537896Y-9832650D01*
X3537896Y-9832650D02*
X3556943Y-9842174D01*
X3556943Y-9842174D02*
X3566467Y-9851698D01*
X3566467Y-9851698D02*
X3575991Y-9870746D01*
X3575991Y-9870746D02*
X3575991Y-9927889D01*
X3575991Y-9927889D02*
X3566467Y-9946936D01*
X3566467Y-9946936D02*
X3556943Y-9956460D01*
X3556943Y-9956460D02*
X3537896Y-9965984D01*
X3537896Y-9965984D02*
X3499801Y-9965984D01*
X3499801Y-9965984D02*
X3480753Y-9956460D01*
X3661705Y-9946936D02*
X3671229Y-9956460D01*
X3671229Y-9956460D02*
X3661705Y-9965984D01*
X3661705Y-9965984D02*
X3652182Y-9956460D01*
X3652182Y-9956460D02*
X3661705Y-9946936D01*
X3661705Y-9946936D02*
X3661705Y-9965984D01*
X3661705Y-9842174D02*
X3671229Y-9851698D01*
X3671229Y-9851698D02*
X3661705Y-9861222D01*
X3661705Y-9861222D02*
X3652182Y-9851698D01*
X3652182Y-9851698D02*
X3661705Y-9842174D01*
X3661705Y-9842174D02*
X3661705Y-9861222D01*
D12*
X1999500Y-10279500D02*
X2029500Y-10309500D01*
X2029500Y-10279500D02*
X1999500Y-10309500D01*
D11*
X2328372Y-10185984D02*
X2347420Y-10185984D01*
X2347420Y-10185984D02*
X2366467Y-10195508D01*
X2366467Y-10195508D02*
X2375991Y-10205031D01*
X2375991Y-10205031D02*
X2385515Y-10224079D01*
X2385515Y-10224079D02*
X2395039Y-10262174D01*
X2395039Y-10262174D02*
X2395039Y-10309793D01*
X2395039Y-10309793D02*
X2385515Y-10347889D01*
X2385515Y-10347889D02*
X2375991Y-10366936D01*
X2375991Y-10366936D02*
X2366467Y-10376460D01*
X2366467Y-10376460D02*
X2347420Y-10385984D01*
X2347420Y-10385984D02*
X2328372Y-10385984D01*
X2328372Y-10385984D02*
X2309324Y-10376460D01*
X2309324Y-10376460D02*
X2299801Y-10366936D01*
X2299801Y-10366936D02*
X2290277Y-10347889D01*
X2290277Y-10347889D02*
X2280753Y-10309793D01*
X2280753Y-10309793D02*
X2280753Y-10262174D01*
X2280753Y-10262174D02*
X2290277Y-10224079D01*
X2290277Y-10224079D02*
X2299801Y-10205031D01*
X2299801Y-10205031D02*
X2309324Y-10195508D01*
X2309324Y-10195508D02*
X2328372Y-10185984D01*
X2480753Y-10366936D02*
X2490277Y-10376460D01*
X2490277Y-10376460D02*
X2480753Y-10385984D01*
X2480753Y-10385984D02*
X2471229Y-10376460D01*
X2471229Y-10376460D02*
X2480753Y-10366936D01*
X2480753Y-10366936D02*
X2480753Y-10385984D01*
X2556944Y-10185984D02*
X2680753Y-10185984D01*
X2680753Y-10185984D02*
X2614086Y-10262174D01*
X2614086Y-10262174D02*
X2642658Y-10262174D01*
X2642658Y-10262174D02*
X2661705Y-10271698D01*
X2661705Y-10271698D02*
X2671229Y-10281222D01*
X2671229Y-10281222D02*
X2680753Y-10300270D01*
X2680753Y-10300270D02*
X2680753Y-10347889D01*
X2680753Y-10347889D02*
X2671229Y-10366936D01*
X2671229Y-10366936D02*
X2661705Y-10376460D01*
X2661705Y-10376460D02*
X2642658Y-10385984D01*
X2642658Y-10385984D02*
X2585515Y-10385984D01*
X2585515Y-10385984D02*
X2566467Y-10376460D01*
X2566467Y-10376460D02*
X2556944Y-10366936D01*
X2804562Y-10185984D02*
X2823610Y-10185984D01*
X2823610Y-10185984D02*
X2842658Y-10195508D01*
X2842658Y-10195508D02*
X2852182Y-10205031D01*
X2852182Y-10205031D02*
X2861705Y-10224079D01*
X2861705Y-10224079D02*
X2871229Y-10262174D01*
X2871229Y-10262174D02*
X2871229Y-10309793D01*
X2871229Y-10309793D02*
X2861705Y-10347889D01*
X2861705Y-10347889D02*
X2852182Y-10366936D01*
X2852182Y-10366936D02*
X2842658Y-10376460D01*
X2842658Y-10376460D02*
X2823610Y-10385984D01*
X2823610Y-10385984D02*
X2804562Y-10385984D01*
X2804562Y-10385984D02*
X2785515Y-10376460D01*
X2785515Y-10376460D02*
X2775991Y-10366936D01*
X2775991Y-10366936D02*
X2766467Y-10347889D01*
X2766467Y-10347889D02*
X2756944Y-10309793D01*
X2756944Y-10309793D02*
X2756944Y-10262174D01*
X2756944Y-10262174D02*
X2766467Y-10224079D01*
X2766467Y-10224079D02*
X2775991Y-10205031D01*
X2775991Y-10205031D02*
X2785515Y-10195508D01*
X2785515Y-10195508D02*
X2804562Y-10185984D01*
X2995039Y-10185984D02*
X3014086Y-10185984D01*
X3014086Y-10185984D02*
X3033134Y-10195508D01*
X3033134Y-10195508D02*
X3042658Y-10205031D01*
X3042658Y-10205031D02*
X3052182Y-10224079D01*
X3052182Y-10224079D02*
X3061705Y-10262174D01*
X3061705Y-10262174D02*
X3061705Y-10309793D01*
X3061705Y-10309793D02*
X3052182Y-10347889D01*
X3052182Y-10347889D02*
X3042658Y-10366936D01*
X3042658Y-10366936D02*
X3033134Y-10376460D01*
X3033134Y-10376460D02*
X3014086Y-10385984D01*
X3014086Y-10385984D02*
X2995039Y-10385984D01*
X2995039Y-10385984D02*
X2975991Y-10376460D01*
X2975991Y-10376460D02*
X2966467Y-10366936D01*
X2966467Y-10366936D02*
X2956943Y-10347889D01*
X2956943Y-10347889D02*
X2947420Y-10309793D01*
X2947420Y-10309793D02*
X2947420Y-10262174D01*
X2947420Y-10262174D02*
X2956943Y-10224079D01*
X2956943Y-10224079D02*
X2966467Y-10205031D01*
X2966467Y-10205031D02*
X2975991Y-10195508D01*
X2975991Y-10195508D02*
X2995039Y-10185984D01*
X3147420Y-10385984D02*
X3147420Y-10252650D01*
X3147420Y-10271698D02*
X3156943Y-10262174D01*
X3156943Y-10262174D02*
X3175991Y-10252650D01*
X3175991Y-10252650D02*
X3204563Y-10252650D01*
X3204563Y-10252650D02*
X3223610Y-10262174D01*
X3223610Y-10262174D02*
X3233134Y-10281222D01*
X3233134Y-10281222D02*
X3233134Y-10385984D01*
X3233134Y-10281222D02*
X3242658Y-10262174D01*
X3242658Y-10262174D02*
X3261705Y-10252650D01*
X3261705Y-10252650D02*
X3290277Y-10252650D01*
X3290277Y-10252650D02*
X3309324Y-10262174D01*
X3309324Y-10262174D02*
X3318848Y-10281222D01*
X3318848Y-10281222D02*
X3318848Y-10385984D01*
X3414086Y-10385984D02*
X3414086Y-10252650D01*
X3414086Y-10271698D02*
X3423610Y-10262174D01*
X3423610Y-10262174D02*
X3442658Y-10252650D01*
X3442658Y-10252650D02*
X3471229Y-10252650D01*
X3471229Y-10252650D02*
X3490277Y-10262174D01*
X3490277Y-10262174D02*
X3499801Y-10281222D01*
X3499801Y-10281222D02*
X3499801Y-10385984D01*
X3499801Y-10281222D02*
X3509324Y-10262174D01*
X3509324Y-10262174D02*
X3528372Y-10252650D01*
X3528372Y-10252650D02*
X3556943Y-10252650D01*
X3556943Y-10252650D02*
X3575991Y-10262174D01*
X3575991Y-10262174D02*
X3585515Y-10281222D01*
X3585515Y-10281222D02*
X3585515Y-10385984D01*
X3975991Y-10176460D02*
X3804563Y-10433603D01*
X4233134Y-10185984D02*
X4252182Y-10185984D01*
X4252182Y-10185984D02*
X4271229Y-10195508D01*
X4271229Y-10195508D02*
X4280753Y-10205031D01*
X4280753Y-10205031D02*
X4290277Y-10224079D01*
X4290277Y-10224079D02*
X4299801Y-10262174D01*
X4299801Y-10262174D02*
X4299801Y-10309793D01*
X4299801Y-10309793D02*
X4290277Y-10347889D01*
X4290277Y-10347889D02*
X4280753Y-10366936D01*
X4280753Y-10366936D02*
X4271229Y-10376460D01*
X4271229Y-10376460D02*
X4252182Y-10385984D01*
X4252182Y-10385984D02*
X4233134Y-10385984D01*
X4233134Y-10385984D02*
X4214087Y-10376460D01*
X4214087Y-10376460D02*
X4204563Y-10366936D01*
X4204563Y-10366936D02*
X4195039Y-10347889D01*
X4195039Y-10347889D02*
X4185515Y-10309793D01*
X4185515Y-10309793D02*
X4185515Y-10262174D01*
X4185515Y-10262174D02*
X4195039Y-10224079D01*
X4195039Y-10224079D02*
X4204563Y-10205031D01*
X4204563Y-10205031D02*
X4214087Y-10195508D01*
X4214087Y-10195508D02*
X4233134Y-10185984D01*
X4385515Y-10366936D02*
X4395039Y-10376460D01*
X4395039Y-10376460D02*
X4385515Y-10385984D01*
X4385515Y-10385984D02*
X4375991Y-10376460D01*
X4375991Y-10376460D02*
X4385515Y-10366936D01*
X4385515Y-10366936D02*
X4385515Y-10385984D01*
X4518848Y-10185984D02*
X4537896Y-10185984D01*
X4537896Y-10185984D02*
X4556944Y-10195508D01*
X4556944Y-10195508D02*
X4566468Y-10205031D01*
X4566468Y-10205031D02*
X4575991Y-10224079D01*
X4575991Y-10224079D02*
X4585515Y-10262174D01*
X4585515Y-10262174D02*
X4585515Y-10309793D01*
X4585515Y-10309793D02*
X4575991Y-10347889D01*
X4575991Y-10347889D02*
X4566468Y-10366936D01*
X4566468Y-10366936D02*
X4556944Y-10376460D01*
X4556944Y-10376460D02*
X4537896Y-10385984D01*
X4537896Y-10385984D02*
X4518848Y-10385984D01*
X4518848Y-10385984D02*
X4499801Y-10376460D01*
X4499801Y-10376460D02*
X4490277Y-10366936D01*
X4490277Y-10366936D02*
X4480753Y-10347889D01*
X4480753Y-10347889D02*
X4471229Y-10309793D01*
X4471229Y-10309793D02*
X4471229Y-10262174D01*
X4471229Y-10262174D02*
X4480753Y-10224079D01*
X4480753Y-10224079D02*
X4490277Y-10205031D01*
X4490277Y-10205031D02*
X4499801Y-10195508D01*
X4499801Y-10195508D02*
X4518848Y-10185984D01*
X4775991Y-10385984D02*
X4661706Y-10385984D01*
X4718848Y-10385984D02*
X4718848Y-10185984D01*
X4718848Y-10185984D02*
X4699801Y-10214555D01*
X4699801Y-10214555D02*
X4680753Y-10233603D01*
X4680753Y-10233603D02*
X4661706Y-10243127D01*
X4966468Y-10385984D02*
X4852182Y-10385984D01*
X4909325Y-10385984D02*
X4909325Y-10185984D01*
X4909325Y-10185984D02*
X4890277Y-10214555D01*
X4890277Y-10214555D02*
X4871229Y-10233603D01*
X4871229Y-10233603D02*
X4852182Y-10243127D01*
X5080753Y-10271698D02*
X5061706Y-10262174D01*
X5061706Y-10262174D02*
X5052182Y-10252650D01*
X5052182Y-10252650D02*
X5042658Y-10233603D01*
X5042658Y-10233603D02*
X5042658Y-10224079D01*
X5042658Y-10224079D02*
X5052182Y-10205031D01*
X5052182Y-10205031D02*
X5061706Y-10195508D01*
X5061706Y-10195508D02*
X5080753Y-10185984D01*
X5080753Y-10185984D02*
X5118849Y-10185984D01*
X5118849Y-10185984D02*
X5137896Y-10195508D01*
X5137896Y-10195508D02*
X5147420Y-10205031D01*
X5147420Y-10205031D02*
X5156944Y-10224079D01*
X5156944Y-10224079D02*
X5156944Y-10233603D01*
X5156944Y-10233603D02*
X5147420Y-10252650D01*
X5147420Y-10252650D02*
X5137896Y-10262174D01*
X5137896Y-10262174D02*
X5118849Y-10271698D01*
X5118849Y-10271698D02*
X5080753Y-10271698D01*
X5080753Y-10271698D02*
X5061706Y-10281222D01*
X5061706Y-10281222D02*
X5052182Y-10290746D01*
X5052182Y-10290746D02*
X5042658Y-10309793D01*
X5042658Y-10309793D02*
X5042658Y-10347889D01*
X5042658Y-10347889D02*
X5052182Y-10366936D01*
X5052182Y-10366936D02*
X5061706Y-10376460D01*
X5061706Y-10376460D02*
X5080753Y-10385984D01*
X5080753Y-10385984D02*
X5118849Y-10385984D01*
X5118849Y-10385984D02*
X5137896Y-10376460D01*
X5137896Y-10376460D02*
X5147420Y-10366936D01*
X5147420Y-10366936D02*
X5156944Y-10347889D01*
X5156944Y-10347889D02*
X5156944Y-10309793D01*
X5156944Y-10309793D02*
X5147420Y-10290746D01*
X5147420Y-10290746D02*
X5137896Y-10281222D01*
X5137896Y-10281222D02*
X5118849Y-10271698D01*
X5233134Y-10185984D02*
X5233134Y-10224079D01*
X5309325Y-10185984D02*
X5309325Y-10224079D01*
X5604563Y-10462174D02*
X5595039Y-10452650D01*
X5595039Y-10452650D02*
X5575991Y-10424079D01*
X5575991Y-10424079D02*
X5566468Y-10405031D01*
X5566468Y-10405031D02*
X5556944Y-10376460D01*
X5556944Y-10376460D02*
X5547420Y-10328841D01*
X5547420Y-10328841D02*
X5547420Y-10290746D01*
X5547420Y-10290746D02*
X5556944Y-10243127D01*
X5556944Y-10243127D02*
X5566468Y-10214555D01*
X5566468Y-10214555D02*
X5575991Y-10195508D01*
X5575991Y-10195508D02*
X5595039Y-10166936D01*
X5595039Y-10166936D02*
X5604563Y-10157412D01*
X5671229Y-10205031D02*
X5680753Y-10195508D01*
X5680753Y-10195508D02*
X5699801Y-10185984D01*
X5699801Y-10185984D02*
X5747420Y-10185984D01*
X5747420Y-10185984D02*
X5766468Y-10195508D01*
X5766468Y-10195508D02*
X5775991Y-10205031D01*
X5775991Y-10205031D02*
X5785515Y-10224079D01*
X5785515Y-10224079D02*
X5785515Y-10243127D01*
X5785515Y-10243127D02*
X5775991Y-10271698D01*
X5775991Y-10271698D02*
X5661706Y-10385984D01*
X5661706Y-10385984D02*
X5785515Y-10385984D01*
X5956944Y-10252650D02*
X5956944Y-10385984D01*
X5909325Y-10176460D02*
X5861706Y-10319317D01*
X5861706Y-10319317D02*
X5985515Y-10319317D01*
X6214087Y-10385984D02*
X6214087Y-10185984D01*
X6299801Y-10385984D02*
X6299801Y-10281222D01*
X6299801Y-10281222D02*
X6290277Y-10262174D01*
X6290277Y-10262174D02*
X6271230Y-10252650D01*
X6271230Y-10252650D02*
X6242658Y-10252650D01*
X6242658Y-10252650D02*
X6223610Y-10262174D01*
X6223610Y-10262174D02*
X6214087Y-10271698D01*
X6423610Y-10385984D02*
X6404563Y-10376460D01*
X6404563Y-10376460D02*
X6395039Y-10366936D01*
X6395039Y-10366936D02*
X6385515Y-10347889D01*
X6385515Y-10347889D02*
X6385515Y-10290746D01*
X6385515Y-10290746D02*
X6395039Y-10271698D01*
X6395039Y-10271698D02*
X6404563Y-10262174D01*
X6404563Y-10262174D02*
X6423610Y-10252650D01*
X6423610Y-10252650D02*
X6452182Y-10252650D01*
X6452182Y-10252650D02*
X6471230Y-10262174D01*
X6471230Y-10262174D02*
X6480753Y-10271698D01*
X6480753Y-10271698D02*
X6490277Y-10290746D01*
X6490277Y-10290746D02*
X6490277Y-10347889D01*
X6490277Y-10347889D02*
X6480753Y-10366936D01*
X6480753Y-10366936D02*
X6471230Y-10376460D01*
X6471230Y-10376460D02*
X6452182Y-10385984D01*
X6452182Y-10385984D02*
X6423610Y-10385984D01*
X6604563Y-10385984D02*
X6585515Y-10376460D01*
X6585515Y-10376460D02*
X6575991Y-10357412D01*
X6575991Y-10357412D02*
X6575991Y-10185984D01*
X6756944Y-10376460D02*
X6737896Y-10385984D01*
X6737896Y-10385984D02*
X6699801Y-10385984D01*
X6699801Y-10385984D02*
X6680753Y-10376460D01*
X6680753Y-10376460D02*
X6671230Y-10357412D01*
X6671230Y-10357412D02*
X6671230Y-10281222D01*
X6671230Y-10281222D02*
X6680753Y-10262174D01*
X6680753Y-10262174D02*
X6699801Y-10252650D01*
X6699801Y-10252650D02*
X6737896Y-10252650D01*
X6737896Y-10252650D02*
X6756944Y-10262174D01*
X6756944Y-10262174D02*
X6766468Y-10281222D01*
X6766468Y-10281222D02*
X6766468Y-10300270D01*
X6766468Y-10300270D02*
X6671230Y-10319317D01*
X6842658Y-10376460D02*
X6861706Y-10385984D01*
X6861706Y-10385984D02*
X6899801Y-10385984D01*
X6899801Y-10385984D02*
X6918849Y-10376460D01*
X6918849Y-10376460D02*
X6928372Y-10357412D01*
X6928372Y-10357412D02*
X6928372Y-10347889D01*
X6928372Y-10347889D02*
X6918849Y-10328841D01*
X6918849Y-10328841D02*
X6899801Y-10319317D01*
X6899801Y-10319317D02*
X6871230Y-10319317D01*
X6871230Y-10319317D02*
X6852182Y-10309793D01*
X6852182Y-10309793D02*
X6842658Y-10290746D01*
X6842658Y-10290746D02*
X6842658Y-10281222D01*
X6842658Y-10281222D02*
X6852182Y-10262174D01*
X6852182Y-10262174D02*
X6871230Y-10252650D01*
X6871230Y-10252650D02*
X6899801Y-10252650D01*
X6899801Y-10252650D02*
X6918849Y-10262174D01*
X6995039Y-10462174D02*
X7004563Y-10452650D01*
X7004563Y-10452650D02*
X7023611Y-10424079D01*
X7023611Y-10424079D02*
X7033134Y-10405031D01*
X7033134Y-10405031D02*
X7042658Y-10376460D01*
X7042658Y-10376460D02*
X7052182Y-10328841D01*
X7052182Y-10328841D02*
X7052182Y-10290746D01*
X7052182Y-10290746D02*
X7042658Y-10243127D01*
X7042658Y-10243127D02*
X7033134Y-10214555D01*
X7033134Y-10214555D02*
X7023611Y-10195508D01*
X7023611Y-10195508D02*
X7004563Y-10166936D01*
X7004563Y-10166936D02*
X6995039Y-10157412D01*
D12*
X2029500Y-10558500D02*
G75*
G02*
X1952500Y-10558500I-38500J0D01*
G01*
X1952500Y-10558500D02*
G75*
G02*
X2029500Y-10558500I38500J0D01*
G01*
D11*
X2328372Y-10449984D02*
X2347420Y-10449984D01*
X2347420Y-10449984D02*
X2366467Y-10459508D01*
X2366467Y-10459508D02*
X2375991Y-10469031D01*
X2375991Y-10469031D02*
X2385515Y-10488079D01*
X2385515Y-10488079D02*
X2395039Y-10526174D01*
X2395039Y-10526174D02*
X2395039Y-10573793D01*
X2395039Y-10573793D02*
X2385515Y-10611889D01*
X2385515Y-10611889D02*
X2375991Y-10630936D01*
X2375991Y-10630936D02*
X2366467Y-10640460D01*
X2366467Y-10640460D02*
X2347420Y-10649984D01*
X2347420Y-10649984D02*
X2328372Y-10649984D01*
X2328372Y-10649984D02*
X2309324Y-10640460D01*
X2309324Y-10640460D02*
X2299801Y-10630936D01*
X2299801Y-10630936D02*
X2290277Y-10611889D01*
X2290277Y-10611889D02*
X2280753Y-10573793D01*
X2280753Y-10573793D02*
X2280753Y-10526174D01*
X2280753Y-10526174D02*
X2290277Y-10488079D01*
X2290277Y-10488079D02*
X2299801Y-10469031D01*
X2299801Y-10469031D02*
X2309324Y-10459508D01*
X2309324Y-10459508D02*
X2328372Y-10449984D01*
X2480753Y-10630936D02*
X2490277Y-10640460D01*
X2490277Y-10640460D02*
X2480753Y-10649984D01*
X2480753Y-10649984D02*
X2471229Y-10640460D01*
X2471229Y-10640460D02*
X2480753Y-10630936D01*
X2480753Y-10630936D02*
X2480753Y-10649984D01*
X2556944Y-10449984D02*
X2690277Y-10449984D01*
X2690277Y-10449984D02*
X2604563Y-10649984D01*
X2747420Y-10449984D02*
X2880753Y-10449984D01*
X2880753Y-10449984D02*
X2795039Y-10649984D01*
X2995039Y-10449984D02*
X3014086Y-10449984D01*
X3014086Y-10449984D02*
X3033134Y-10459508D01*
X3033134Y-10459508D02*
X3042658Y-10469031D01*
X3042658Y-10469031D02*
X3052182Y-10488079D01*
X3052182Y-10488079D02*
X3061705Y-10526174D01*
X3061705Y-10526174D02*
X3061705Y-10573793D01*
X3061705Y-10573793D02*
X3052182Y-10611889D01*
X3052182Y-10611889D02*
X3042658Y-10630936D01*
X3042658Y-10630936D02*
X3033134Y-10640460D01*
X3033134Y-10640460D02*
X3014086Y-10649984D01*
X3014086Y-10649984D02*
X2995039Y-10649984D01*
X2995039Y-10649984D02*
X2975991Y-10640460D01*
X2975991Y-10640460D02*
X2966467Y-10630936D01*
X2966467Y-10630936D02*
X2956943Y-10611889D01*
X2956943Y-10611889D02*
X2947420Y-10573793D01*
X2947420Y-10573793D02*
X2947420Y-10526174D01*
X2947420Y-10526174D02*
X2956943Y-10488079D01*
X2956943Y-10488079D02*
X2966467Y-10469031D01*
X2966467Y-10469031D02*
X2975991Y-10459508D01*
X2975991Y-10459508D02*
X2995039Y-10449984D01*
X3147420Y-10649984D02*
X3147420Y-10516650D01*
X3147420Y-10535698D02*
X3156943Y-10526174D01*
X3156943Y-10526174D02*
X3175991Y-10516650D01*
X3175991Y-10516650D02*
X3204563Y-10516650D01*
X3204563Y-10516650D02*
X3223610Y-10526174D01*
X3223610Y-10526174D02*
X3233134Y-10545222D01*
X3233134Y-10545222D02*
X3233134Y-10649984D01*
X3233134Y-10545222D02*
X3242658Y-10526174D01*
X3242658Y-10526174D02*
X3261705Y-10516650D01*
X3261705Y-10516650D02*
X3290277Y-10516650D01*
X3290277Y-10516650D02*
X3309324Y-10526174D01*
X3309324Y-10526174D02*
X3318848Y-10545222D01*
X3318848Y-10545222D02*
X3318848Y-10649984D01*
X3414086Y-10649984D02*
X3414086Y-10516650D01*
X3414086Y-10535698D02*
X3423610Y-10526174D01*
X3423610Y-10526174D02*
X3442658Y-10516650D01*
X3442658Y-10516650D02*
X3471229Y-10516650D01*
X3471229Y-10516650D02*
X3490277Y-10526174D01*
X3490277Y-10526174D02*
X3499801Y-10545222D01*
X3499801Y-10545222D02*
X3499801Y-10649984D01*
X3499801Y-10545222D02*
X3509324Y-10526174D01*
X3509324Y-10526174D02*
X3528372Y-10516650D01*
X3528372Y-10516650D02*
X3556943Y-10516650D01*
X3556943Y-10516650D02*
X3575991Y-10526174D01*
X3575991Y-10526174D02*
X3585515Y-10545222D01*
X3585515Y-10545222D02*
X3585515Y-10649984D01*
X3975991Y-10440460D02*
X3804563Y-10697603D01*
X4233134Y-10449984D02*
X4252182Y-10449984D01*
X4252182Y-10449984D02*
X4271229Y-10459508D01*
X4271229Y-10459508D02*
X4280753Y-10469031D01*
X4280753Y-10469031D02*
X4290277Y-10488079D01*
X4290277Y-10488079D02*
X4299801Y-10526174D01*
X4299801Y-10526174D02*
X4299801Y-10573793D01*
X4299801Y-10573793D02*
X4290277Y-10611889D01*
X4290277Y-10611889D02*
X4280753Y-10630936D01*
X4280753Y-10630936D02*
X4271229Y-10640460D01*
X4271229Y-10640460D02*
X4252182Y-10649984D01*
X4252182Y-10649984D02*
X4233134Y-10649984D01*
X4233134Y-10649984D02*
X4214087Y-10640460D01*
X4214087Y-10640460D02*
X4204563Y-10630936D01*
X4204563Y-10630936D02*
X4195039Y-10611889D01*
X4195039Y-10611889D02*
X4185515Y-10573793D01*
X4185515Y-10573793D02*
X4185515Y-10526174D01*
X4185515Y-10526174D02*
X4195039Y-10488079D01*
X4195039Y-10488079D02*
X4204563Y-10469031D01*
X4204563Y-10469031D02*
X4214087Y-10459508D01*
X4214087Y-10459508D02*
X4233134Y-10449984D01*
X4385515Y-10630936D02*
X4395039Y-10640460D01*
X4395039Y-10640460D02*
X4385515Y-10649984D01*
X4385515Y-10649984D02*
X4375991Y-10640460D01*
X4375991Y-10640460D02*
X4385515Y-10630936D01*
X4385515Y-10630936D02*
X4385515Y-10649984D01*
X4518848Y-10449984D02*
X4537896Y-10449984D01*
X4537896Y-10449984D02*
X4556944Y-10459508D01*
X4556944Y-10459508D02*
X4566468Y-10469031D01*
X4566468Y-10469031D02*
X4575991Y-10488079D01*
X4575991Y-10488079D02*
X4585515Y-10526174D01*
X4585515Y-10526174D02*
X4585515Y-10573793D01*
X4585515Y-10573793D02*
X4575991Y-10611889D01*
X4575991Y-10611889D02*
X4566468Y-10630936D01*
X4566468Y-10630936D02*
X4556944Y-10640460D01*
X4556944Y-10640460D02*
X4537896Y-10649984D01*
X4537896Y-10649984D02*
X4518848Y-10649984D01*
X4518848Y-10649984D02*
X4499801Y-10640460D01*
X4499801Y-10640460D02*
X4490277Y-10630936D01*
X4490277Y-10630936D02*
X4480753Y-10611889D01*
X4480753Y-10611889D02*
X4471229Y-10573793D01*
X4471229Y-10573793D02*
X4471229Y-10526174D01*
X4471229Y-10526174D02*
X4480753Y-10488079D01*
X4480753Y-10488079D02*
X4490277Y-10469031D01*
X4490277Y-10469031D02*
X4499801Y-10459508D01*
X4499801Y-10459508D02*
X4518848Y-10449984D01*
X4652182Y-10449984D02*
X4775991Y-10449984D01*
X4775991Y-10449984D02*
X4709325Y-10526174D01*
X4709325Y-10526174D02*
X4737896Y-10526174D01*
X4737896Y-10526174D02*
X4756944Y-10535698D01*
X4756944Y-10535698D02*
X4766468Y-10545222D01*
X4766468Y-10545222D02*
X4775991Y-10564270D01*
X4775991Y-10564270D02*
X4775991Y-10611889D01*
X4775991Y-10611889D02*
X4766468Y-10630936D01*
X4766468Y-10630936D02*
X4756944Y-10640460D01*
X4756944Y-10640460D02*
X4737896Y-10649984D01*
X4737896Y-10649984D02*
X4680753Y-10649984D01*
X4680753Y-10649984D02*
X4661706Y-10640460D01*
X4661706Y-10640460D02*
X4652182Y-10630936D01*
X4899801Y-10449984D02*
X4918849Y-10449984D01*
X4918849Y-10449984D02*
X4937896Y-10459508D01*
X4937896Y-10459508D02*
X4947420Y-10469031D01*
X4947420Y-10469031D02*
X4956944Y-10488079D01*
X4956944Y-10488079D02*
X4966468Y-10526174D01*
X4966468Y-10526174D02*
X4966468Y-10573793D01*
X4966468Y-10573793D02*
X4956944Y-10611889D01*
X4956944Y-10611889D02*
X4947420Y-10630936D01*
X4947420Y-10630936D02*
X4937896Y-10640460D01*
X4937896Y-10640460D02*
X4918849Y-10649984D01*
X4918849Y-10649984D02*
X4899801Y-10649984D01*
X4899801Y-10649984D02*
X4880753Y-10640460D01*
X4880753Y-10640460D02*
X4871229Y-10630936D01*
X4871229Y-10630936D02*
X4861706Y-10611889D01*
X4861706Y-10611889D02*
X4852182Y-10573793D01*
X4852182Y-10573793D02*
X4852182Y-10526174D01*
X4852182Y-10526174D02*
X4861706Y-10488079D01*
X4861706Y-10488079D02*
X4871229Y-10469031D01*
X4871229Y-10469031D02*
X4880753Y-10459508D01*
X4880753Y-10459508D02*
X4899801Y-10449984D01*
X5033134Y-10449984D02*
X5156944Y-10449984D01*
X5156944Y-10449984D02*
X5090277Y-10526174D01*
X5090277Y-10526174D02*
X5118849Y-10526174D01*
X5118849Y-10526174D02*
X5137896Y-10535698D01*
X5137896Y-10535698D02*
X5147420Y-10545222D01*
X5147420Y-10545222D02*
X5156944Y-10564270D01*
X5156944Y-10564270D02*
X5156944Y-10611889D01*
X5156944Y-10611889D02*
X5147420Y-10630936D01*
X5147420Y-10630936D02*
X5137896Y-10640460D01*
X5137896Y-10640460D02*
X5118849Y-10649984D01*
X5118849Y-10649984D02*
X5061706Y-10649984D01*
X5061706Y-10649984D02*
X5042658Y-10640460D01*
X5042658Y-10640460D02*
X5033134Y-10630936D01*
X5233134Y-10449984D02*
X5233134Y-10488079D01*
X5309325Y-10449984D02*
X5309325Y-10488079D01*
X5604563Y-10726174D02*
X5595039Y-10716650D01*
X5595039Y-10716650D02*
X5575991Y-10688079D01*
X5575991Y-10688079D02*
X5566468Y-10669031D01*
X5566468Y-10669031D02*
X5556944Y-10640460D01*
X5556944Y-10640460D02*
X5547420Y-10592841D01*
X5547420Y-10592841D02*
X5547420Y-10554746D01*
X5547420Y-10554746D02*
X5556944Y-10507127D01*
X5556944Y-10507127D02*
X5566468Y-10478555D01*
X5566468Y-10478555D02*
X5575991Y-10459508D01*
X5575991Y-10459508D02*
X5595039Y-10430936D01*
X5595039Y-10430936D02*
X5604563Y-10421412D01*
X5785515Y-10649984D02*
X5671229Y-10649984D01*
X5728372Y-10649984D02*
X5728372Y-10449984D01*
X5728372Y-10449984D02*
X5709325Y-10478555D01*
X5709325Y-10478555D02*
X5690277Y-10497603D01*
X5690277Y-10497603D02*
X5671229Y-10507127D01*
X5956944Y-10516650D02*
X5956944Y-10649984D01*
X5909325Y-10440460D02*
X5861706Y-10583317D01*
X5861706Y-10583317D02*
X5985515Y-10583317D01*
X6214087Y-10649984D02*
X6214087Y-10449984D01*
X6299801Y-10649984D02*
X6299801Y-10545222D01*
X6299801Y-10545222D02*
X6290277Y-10526174D01*
X6290277Y-10526174D02*
X6271230Y-10516650D01*
X6271230Y-10516650D02*
X6242658Y-10516650D01*
X6242658Y-10516650D02*
X6223610Y-10526174D01*
X6223610Y-10526174D02*
X6214087Y-10535698D01*
X6423610Y-10649984D02*
X6404563Y-10640460D01*
X6404563Y-10640460D02*
X6395039Y-10630936D01*
X6395039Y-10630936D02*
X6385515Y-10611889D01*
X6385515Y-10611889D02*
X6385515Y-10554746D01*
X6385515Y-10554746D02*
X6395039Y-10535698D01*
X6395039Y-10535698D02*
X6404563Y-10526174D01*
X6404563Y-10526174D02*
X6423610Y-10516650D01*
X6423610Y-10516650D02*
X6452182Y-10516650D01*
X6452182Y-10516650D02*
X6471230Y-10526174D01*
X6471230Y-10526174D02*
X6480753Y-10535698D01*
X6480753Y-10535698D02*
X6490277Y-10554746D01*
X6490277Y-10554746D02*
X6490277Y-10611889D01*
X6490277Y-10611889D02*
X6480753Y-10630936D01*
X6480753Y-10630936D02*
X6471230Y-10640460D01*
X6471230Y-10640460D02*
X6452182Y-10649984D01*
X6452182Y-10649984D02*
X6423610Y-10649984D01*
X6604563Y-10649984D02*
X6585515Y-10640460D01*
X6585515Y-10640460D02*
X6575991Y-10621412D01*
X6575991Y-10621412D02*
X6575991Y-10449984D01*
X6756944Y-10640460D02*
X6737896Y-10649984D01*
X6737896Y-10649984D02*
X6699801Y-10649984D01*
X6699801Y-10649984D02*
X6680753Y-10640460D01*
X6680753Y-10640460D02*
X6671230Y-10621412D01*
X6671230Y-10621412D02*
X6671230Y-10545222D01*
X6671230Y-10545222D02*
X6680753Y-10526174D01*
X6680753Y-10526174D02*
X6699801Y-10516650D01*
X6699801Y-10516650D02*
X6737896Y-10516650D01*
X6737896Y-10516650D02*
X6756944Y-10526174D01*
X6756944Y-10526174D02*
X6766468Y-10545222D01*
X6766468Y-10545222D02*
X6766468Y-10564270D01*
X6766468Y-10564270D02*
X6671230Y-10583317D01*
X6842658Y-10640460D02*
X6861706Y-10649984D01*
X6861706Y-10649984D02*
X6899801Y-10649984D01*
X6899801Y-10649984D02*
X6918849Y-10640460D01*
X6918849Y-10640460D02*
X6928372Y-10621412D01*
X6928372Y-10621412D02*
X6928372Y-10611889D01*
X6928372Y-10611889D02*
X6918849Y-10592841D01*
X6918849Y-10592841D02*
X6899801Y-10583317D01*
X6899801Y-10583317D02*
X6871230Y-10583317D01*
X6871230Y-10583317D02*
X6852182Y-10573793D01*
X6852182Y-10573793D02*
X6842658Y-10554746D01*
X6842658Y-10554746D02*
X6842658Y-10545222D01*
X6842658Y-10545222D02*
X6852182Y-10526174D01*
X6852182Y-10526174D02*
X6871230Y-10516650D01*
X6871230Y-10516650D02*
X6899801Y-10516650D01*
X6899801Y-10516650D02*
X6918849Y-10526174D01*
X6995039Y-10726174D02*
X7004563Y-10716650D01*
X7004563Y-10716650D02*
X7023611Y-10688079D01*
X7023611Y-10688079D02*
X7033134Y-10669031D01*
X7033134Y-10669031D02*
X7042658Y-10640460D01*
X7042658Y-10640460D02*
X7052182Y-10592841D01*
X7052182Y-10592841D02*
X7052182Y-10554746D01*
X7052182Y-10554746D02*
X7042658Y-10507127D01*
X7042658Y-10507127D02*
X7033134Y-10478555D01*
X7033134Y-10478555D02*
X7023611Y-10459508D01*
X7023611Y-10459508D02*
X7004563Y-10430936D01*
X7004563Y-10430936D02*
X6995039Y-10421412D01*
D12*
X1989500Y-10782500D02*
X1989500Y-10862500D01*
X1949500Y-10822500D02*
X2029500Y-10822500D01*
D11*
X2328372Y-10713984D02*
X2347420Y-10713984D01*
X2347420Y-10713984D02*
X2366467Y-10723508D01*
X2366467Y-10723508D02*
X2375991Y-10733031D01*
X2375991Y-10733031D02*
X2385515Y-10752079D01*
X2385515Y-10752079D02*
X2395039Y-10790174D01*
X2395039Y-10790174D02*
X2395039Y-10837793D01*
X2395039Y-10837793D02*
X2385515Y-10875889D01*
X2385515Y-10875889D02*
X2375991Y-10894936D01*
X2375991Y-10894936D02*
X2366467Y-10904460D01*
X2366467Y-10904460D02*
X2347420Y-10913984D01*
X2347420Y-10913984D02*
X2328372Y-10913984D01*
X2328372Y-10913984D02*
X2309324Y-10904460D01*
X2309324Y-10904460D02*
X2299801Y-10894936D01*
X2299801Y-10894936D02*
X2290277Y-10875889D01*
X2290277Y-10875889D02*
X2280753Y-10837793D01*
X2280753Y-10837793D02*
X2280753Y-10790174D01*
X2280753Y-10790174D02*
X2290277Y-10752079D01*
X2290277Y-10752079D02*
X2299801Y-10733031D01*
X2299801Y-10733031D02*
X2309324Y-10723508D01*
X2309324Y-10723508D02*
X2328372Y-10713984D01*
X2480753Y-10894936D02*
X2490277Y-10904460D01*
X2490277Y-10904460D02*
X2480753Y-10913984D01*
X2480753Y-10913984D02*
X2471229Y-10904460D01*
X2471229Y-10904460D02*
X2480753Y-10894936D01*
X2480753Y-10894936D02*
X2480753Y-10913984D01*
X2604563Y-10799698D02*
X2585515Y-10790174D01*
X2585515Y-10790174D02*
X2575991Y-10780650D01*
X2575991Y-10780650D02*
X2566467Y-10761603D01*
X2566467Y-10761603D02*
X2566467Y-10752079D01*
X2566467Y-10752079D02*
X2575991Y-10733031D01*
X2575991Y-10733031D02*
X2585515Y-10723508D01*
X2585515Y-10723508D02*
X2604563Y-10713984D01*
X2604563Y-10713984D02*
X2642658Y-10713984D01*
X2642658Y-10713984D02*
X2661705Y-10723508D01*
X2661705Y-10723508D02*
X2671229Y-10733031D01*
X2671229Y-10733031D02*
X2680753Y-10752079D01*
X2680753Y-10752079D02*
X2680753Y-10761603D01*
X2680753Y-10761603D02*
X2671229Y-10780650D01*
X2671229Y-10780650D02*
X2661705Y-10790174D01*
X2661705Y-10790174D02*
X2642658Y-10799698D01*
X2642658Y-10799698D02*
X2604563Y-10799698D01*
X2604563Y-10799698D02*
X2585515Y-10809222D01*
X2585515Y-10809222D02*
X2575991Y-10818746D01*
X2575991Y-10818746D02*
X2566467Y-10837793D01*
X2566467Y-10837793D02*
X2566467Y-10875889D01*
X2566467Y-10875889D02*
X2575991Y-10894936D01*
X2575991Y-10894936D02*
X2585515Y-10904460D01*
X2585515Y-10904460D02*
X2604563Y-10913984D01*
X2604563Y-10913984D02*
X2642658Y-10913984D01*
X2642658Y-10913984D02*
X2661705Y-10904460D01*
X2661705Y-10904460D02*
X2671229Y-10894936D01*
X2671229Y-10894936D02*
X2680753Y-10875889D01*
X2680753Y-10875889D02*
X2680753Y-10837793D01*
X2680753Y-10837793D02*
X2671229Y-10818746D01*
X2671229Y-10818746D02*
X2661705Y-10809222D01*
X2661705Y-10809222D02*
X2642658Y-10799698D01*
X2804562Y-10713984D02*
X2823610Y-10713984D01*
X2823610Y-10713984D02*
X2842658Y-10723508D01*
X2842658Y-10723508D02*
X2852182Y-10733031D01*
X2852182Y-10733031D02*
X2861705Y-10752079D01*
X2861705Y-10752079D02*
X2871229Y-10790174D01*
X2871229Y-10790174D02*
X2871229Y-10837793D01*
X2871229Y-10837793D02*
X2861705Y-10875889D01*
X2861705Y-10875889D02*
X2852182Y-10894936D01*
X2852182Y-10894936D02*
X2842658Y-10904460D01*
X2842658Y-10904460D02*
X2823610Y-10913984D01*
X2823610Y-10913984D02*
X2804562Y-10913984D01*
X2804562Y-10913984D02*
X2785515Y-10904460D01*
X2785515Y-10904460D02*
X2775991Y-10894936D01*
X2775991Y-10894936D02*
X2766467Y-10875889D01*
X2766467Y-10875889D02*
X2756944Y-10837793D01*
X2756944Y-10837793D02*
X2756944Y-10790174D01*
X2756944Y-10790174D02*
X2766467Y-10752079D01*
X2766467Y-10752079D02*
X2775991Y-10733031D01*
X2775991Y-10733031D02*
X2785515Y-10723508D01*
X2785515Y-10723508D02*
X2804562Y-10713984D01*
X2995039Y-10713984D02*
X3014086Y-10713984D01*
X3014086Y-10713984D02*
X3033134Y-10723508D01*
X3033134Y-10723508D02*
X3042658Y-10733031D01*
X3042658Y-10733031D02*
X3052182Y-10752079D01*
X3052182Y-10752079D02*
X3061705Y-10790174D01*
X3061705Y-10790174D02*
X3061705Y-10837793D01*
X3061705Y-10837793D02*
X3052182Y-10875889D01*
X3052182Y-10875889D02*
X3042658Y-10894936D01*
X3042658Y-10894936D02*
X3033134Y-10904460D01*
X3033134Y-10904460D02*
X3014086Y-10913984D01*
X3014086Y-10913984D02*
X2995039Y-10913984D01*
X2995039Y-10913984D02*
X2975991Y-10904460D01*
X2975991Y-10904460D02*
X2966467Y-10894936D01*
X2966467Y-10894936D02*
X2956943Y-10875889D01*
X2956943Y-10875889D02*
X2947420Y-10837793D01*
X2947420Y-10837793D02*
X2947420Y-10790174D01*
X2947420Y-10790174D02*
X2956943Y-10752079D01*
X2956943Y-10752079D02*
X2966467Y-10733031D01*
X2966467Y-10733031D02*
X2975991Y-10723508D01*
X2975991Y-10723508D02*
X2995039Y-10713984D01*
X3147420Y-10913984D02*
X3147420Y-10780650D01*
X3147420Y-10799698D02*
X3156943Y-10790174D01*
X3156943Y-10790174D02*
X3175991Y-10780650D01*
X3175991Y-10780650D02*
X3204563Y-10780650D01*
X3204563Y-10780650D02*
X3223610Y-10790174D01*
X3223610Y-10790174D02*
X3233134Y-10809222D01*
X3233134Y-10809222D02*
X3233134Y-10913984D01*
X3233134Y-10809222D02*
X3242658Y-10790174D01*
X3242658Y-10790174D02*
X3261705Y-10780650D01*
X3261705Y-10780650D02*
X3290277Y-10780650D01*
X3290277Y-10780650D02*
X3309324Y-10790174D01*
X3309324Y-10790174D02*
X3318848Y-10809222D01*
X3318848Y-10809222D02*
X3318848Y-10913984D01*
X3414086Y-10913984D02*
X3414086Y-10780650D01*
X3414086Y-10799698D02*
X3423610Y-10790174D01*
X3423610Y-10790174D02*
X3442658Y-10780650D01*
X3442658Y-10780650D02*
X3471229Y-10780650D01*
X3471229Y-10780650D02*
X3490277Y-10790174D01*
X3490277Y-10790174D02*
X3499801Y-10809222D01*
X3499801Y-10809222D02*
X3499801Y-10913984D01*
X3499801Y-10809222D02*
X3509324Y-10790174D01*
X3509324Y-10790174D02*
X3528372Y-10780650D01*
X3528372Y-10780650D02*
X3556943Y-10780650D01*
X3556943Y-10780650D02*
X3575991Y-10790174D01*
X3575991Y-10790174D02*
X3585515Y-10809222D01*
X3585515Y-10809222D02*
X3585515Y-10913984D01*
X3975991Y-10704460D02*
X3804563Y-10961603D01*
X4233134Y-10713984D02*
X4252182Y-10713984D01*
X4252182Y-10713984D02*
X4271229Y-10723508D01*
X4271229Y-10723508D02*
X4280753Y-10733031D01*
X4280753Y-10733031D02*
X4290277Y-10752079D01*
X4290277Y-10752079D02*
X4299801Y-10790174D01*
X4299801Y-10790174D02*
X4299801Y-10837793D01*
X4299801Y-10837793D02*
X4290277Y-10875889D01*
X4290277Y-10875889D02*
X4280753Y-10894936D01*
X4280753Y-10894936D02*
X4271229Y-10904460D01*
X4271229Y-10904460D02*
X4252182Y-10913984D01*
X4252182Y-10913984D02*
X4233134Y-10913984D01*
X4233134Y-10913984D02*
X4214087Y-10904460D01*
X4214087Y-10904460D02*
X4204563Y-10894936D01*
X4204563Y-10894936D02*
X4195039Y-10875889D01*
X4195039Y-10875889D02*
X4185515Y-10837793D01*
X4185515Y-10837793D02*
X4185515Y-10790174D01*
X4185515Y-10790174D02*
X4195039Y-10752079D01*
X4195039Y-10752079D02*
X4204563Y-10733031D01*
X4204563Y-10733031D02*
X4214087Y-10723508D01*
X4214087Y-10723508D02*
X4233134Y-10713984D01*
X4385515Y-10894936D02*
X4395039Y-10904460D01*
X4395039Y-10904460D02*
X4385515Y-10913984D01*
X4385515Y-10913984D02*
X4375991Y-10904460D01*
X4375991Y-10904460D02*
X4385515Y-10894936D01*
X4385515Y-10894936D02*
X4385515Y-10913984D01*
X4518848Y-10713984D02*
X4537896Y-10713984D01*
X4537896Y-10713984D02*
X4556944Y-10723508D01*
X4556944Y-10723508D02*
X4566468Y-10733031D01*
X4566468Y-10733031D02*
X4575991Y-10752079D01*
X4575991Y-10752079D02*
X4585515Y-10790174D01*
X4585515Y-10790174D02*
X4585515Y-10837793D01*
X4585515Y-10837793D02*
X4575991Y-10875889D01*
X4575991Y-10875889D02*
X4566468Y-10894936D01*
X4566468Y-10894936D02*
X4556944Y-10904460D01*
X4556944Y-10904460D02*
X4537896Y-10913984D01*
X4537896Y-10913984D02*
X4518848Y-10913984D01*
X4518848Y-10913984D02*
X4499801Y-10904460D01*
X4499801Y-10904460D02*
X4490277Y-10894936D01*
X4490277Y-10894936D02*
X4480753Y-10875889D01*
X4480753Y-10875889D02*
X4471229Y-10837793D01*
X4471229Y-10837793D02*
X4471229Y-10790174D01*
X4471229Y-10790174D02*
X4480753Y-10752079D01*
X4480753Y-10752079D02*
X4490277Y-10733031D01*
X4490277Y-10733031D02*
X4499801Y-10723508D01*
X4499801Y-10723508D02*
X4518848Y-10713984D01*
X4652182Y-10713984D02*
X4775991Y-10713984D01*
X4775991Y-10713984D02*
X4709325Y-10790174D01*
X4709325Y-10790174D02*
X4737896Y-10790174D01*
X4737896Y-10790174D02*
X4756944Y-10799698D01*
X4756944Y-10799698D02*
X4766468Y-10809222D01*
X4766468Y-10809222D02*
X4775991Y-10828270D01*
X4775991Y-10828270D02*
X4775991Y-10875889D01*
X4775991Y-10875889D02*
X4766468Y-10894936D01*
X4766468Y-10894936D02*
X4756944Y-10904460D01*
X4756944Y-10904460D02*
X4737896Y-10913984D01*
X4737896Y-10913984D02*
X4680753Y-10913984D01*
X4680753Y-10913984D02*
X4661706Y-10904460D01*
X4661706Y-10904460D02*
X4652182Y-10894936D01*
X4966468Y-10913984D02*
X4852182Y-10913984D01*
X4909325Y-10913984D02*
X4909325Y-10713984D01*
X4909325Y-10713984D02*
X4890277Y-10742555D01*
X4890277Y-10742555D02*
X4871229Y-10761603D01*
X4871229Y-10761603D02*
X4852182Y-10771127D01*
X5147420Y-10713984D02*
X5052182Y-10713984D01*
X5052182Y-10713984D02*
X5042658Y-10809222D01*
X5042658Y-10809222D02*
X5052182Y-10799698D01*
X5052182Y-10799698D02*
X5071229Y-10790174D01*
X5071229Y-10790174D02*
X5118849Y-10790174D01*
X5118849Y-10790174D02*
X5137896Y-10799698D01*
X5137896Y-10799698D02*
X5147420Y-10809222D01*
X5147420Y-10809222D02*
X5156944Y-10828270D01*
X5156944Y-10828270D02*
X5156944Y-10875889D01*
X5156944Y-10875889D02*
X5147420Y-10894936D01*
X5147420Y-10894936D02*
X5137896Y-10904460D01*
X5137896Y-10904460D02*
X5118849Y-10913984D01*
X5118849Y-10913984D02*
X5071229Y-10913984D01*
X5071229Y-10913984D02*
X5052182Y-10904460D01*
X5052182Y-10904460D02*
X5042658Y-10894936D01*
X5233134Y-10713984D02*
X5233134Y-10752079D01*
X5309325Y-10713984D02*
X5309325Y-10752079D01*
X5604563Y-10990174D02*
X5595039Y-10980650D01*
X5595039Y-10980650D02*
X5575991Y-10952079D01*
X5575991Y-10952079D02*
X5566468Y-10933031D01*
X5566468Y-10933031D02*
X5556944Y-10904460D01*
X5556944Y-10904460D02*
X5547420Y-10856841D01*
X5547420Y-10856841D02*
X5547420Y-10818746D01*
X5547420Y-10818746D02*
X5556944Y-10771127D01*
X5556944Y-10771127D02*
X5566468Y-10742555D01*
X5566468Y-10742555D02*
X5575991Y-10723508D01*
X5575991Y-10723508D02*
X5595039Y-10694936D01*
X5595039Y-10694936D02*
X5604563Y-10685412D01*
X5766468Y-10780650D02*
X5766468Y-10913984D01*
X5718848Y-10704460D02*
X5671229Y-10847317D01*
X5671229Y-10847317D02*
X5795039Y-10847317D01*
X5909325Y-10713984D02*
X5928372Y-10713984D01*
X5928372Y-10713984D02*
X5947420Y-10723508D01*
X5947420Y-10723508D02*
X5956944Y-10733031D01*
X5956944Y-10733031D02*
X5966468Y-10752079D01*
X5966468Y-10752079D02*
X5975991Y-10790174D01*
X5975991Y-10790174D02*
X5975991Y-10837793D01*
X5975991Y-10837793D02*
X5966468Y-10875889D01*
X5966468Y-10875889D02*
X5956944Y-10894936D01*
X5956944Y-10894936D02*
X5947420Y-10904460D01*
X5947420Y-10904460D02*
X5928372Y-10913984D01*
X5928372Y-10913984D02*
X5909325Y-10913984D01*
X5909325Y-10913984D02*
X5890277Y-10904460D01*
X5890277Y-10904460D02*
X5880753Y-10894936D01*
X5880753Y-10894936D02*
X5871229Y-10875889D01*
X5871229Y-10875889D02*
X5861706Y-10837793D01*
X5861706Y-10837793D02*
X5861706Y-10790174D01*
X5861706Y-10790174D02*
X5871229Y-10752079D01*
X5871229Y-10752079D02*
X5880753Y-10733031D01*
X5880753Y-10733031D02*
X5890277Y-10723508D01*
X5890277Y-10723508D02*
X5909325Y-10713984D01*
X6214087Y-10913984D02*
X6214087Y-10713984D01*
X6299801Y-10913984D02*
X6299801Y-10809222D01*
X6299801Y-10809222D02*
X6290277Y-10790174D01*
X6290277Y-10790174D02*
X6271230Y-10780650D01*
X6271230Y-10780650D02*
X6242658Y-10780650D01*
X6242658Y-10780650D02*
X6223610Y-10790174D01*
X6223610Y-10790174D02*
X6214087Y-10799698D01*
X6423610Y-10913984D02*
X6404563Y-10904460D01*
X6404563Y-10904460D02*
X6395039Y-10894936D01*
X6395039Y-10894936D02*
X6385515Y-10875889D01*
X6385515Y-10875889D02*
X6385515Y-10818746D01*
X6385515Y-10818746D02*
X6395039Y-10799698D01*
X6395039Y-10799698D02*
X6404563Y-10790174D01*
X6404563Y-10790174D02*
X6423610Y-10780650D01*
X6423610Y-10780650D02*
X6452182Y-10780650D01*
X6452182Y-10780650D02*
X6471230Y-10790174D01*
X6471230Y-10790174D02*
X6480753Y-10799698D01*
X6480753Y-10799698D02*
X6490277Y-10818746D01*
X6490277Y-10818746D02*
X6490277Y-10875889D01*
X6490277Y-10875889D02*
X6480753Y-10894936D01*
X6480753Y-10894936D02*
X6471230Y-10904460D01*
X6471230Y-10904460D02*
X6452182Y-10913984D01*
X6452182Y-10913984D02*
X6423610Y-10913984D01*
X6604563Y-10913984D02*
X6585515Y-10904460D01*
X6585515Y-10904460D02*
X6575991Y-10885412D01*
X6575991Y-10885412D02*
X6575991Y-10713984D01*
X6756944Y-10904460D02*
X6737896Y-10913984D01*
X6737896Y-10913984D02*
X6699801Y-10913984D01*
X6699801Y-10913984D02*
X6680753Y-10904460D01*
X6680753Y-10904460D02*
X6671230Y-10885412D01*
X6671230Y-10885412D02*
X6671230Y-10809222D01*
X6671230Y-10809222D02*
X6680753Y-10790174D01*
X6680753Y-10790174D02*
X6699801Y-10780650D01*
X6699801Y-10780650D02*
X6737896Y-10780650D01*
X6737896Y-10780650D02*
X6756944Y-10790174D01*
X6756944Y-10790174D02*
X6766468Y-10809222D01*
X6766468Y-10809222D02*
X6766468Y-10828270D01*
X6766468Y-10828270D02*
X6671230Y-10847317D01*
X6842658Y-10904460D02*
X6861706Y-10913984D01*
X6861706Y-10913984D02*
X6899801Y-10913984D01*
X6899801Y-10913984D02*
X6918849Y-10904460D01*
X6918849Y-10904460D02*
X6928372Y-10885412D01*
X6928372Y-10885412D02*
X6928372Y-10875889D01*
X6928372Y-10875889D02*
X6918849Y-10856841D01*
X6918849Y-10856841D02*
X6899801Y-10847317D01*
X6899801Y-10847317D02*
X6871230Y-10847317D01*
X6871230Y-10847317D02*
X6852182Y-10837793D01*
X6852182Y-10837793D02*
X6842658Y-10818746D01*
X6842658Y-10818746D02*
X6842658Y-10809222D01*
X6842658Y-10809222D02*
X6852182Y-10790174D01*
X6852182Y-10790174D02*
X6871230Y-10780650D01*
X6871230Y-10780650D02*
X6899801Y-10780650D01*
X6899801Y-10780650D02*
X6918849Y-10790174D01*
X6995039Y-10990174D02*
X7004563Y-10980650D01*
X7004563Y-10980650D02*
X7023611Y-10952079D01*
X7023611Y-10952079D02*
X7033134Y-10933031D01*
X7033134Y-10933031D02*
X7042658Y-10904460D01*
X7042658Y-10904460D02*
X7052182Y-10856841D01*
X7052182Y-10856841D02*
X7052182Y-10818746D01*
X7052182Y-10818746D02*
X7042658Y-10771127D01*
X7042658Y-10771127D02*
X7033134Y-10742555D01*
X7033134Y-10742555D02*
X7023611Y-10723508D01*
X7023611Y-10723508D02*
X7004563Y-10694936D01*
X7004563Y-10694936D02*
X6995039Y-10685412D01*
D12*
X2016320Y-11118320D02*
X2016320Y-11054680D01*
X1952680Y-11054680D01*
X1952680Y-11118320D01*
X2016320Y-11118320D01*
D11*
X2328372Y-10977984D02*
X2347420Y-10977984D01*
X2347420Y-10977984D02*
X2366467Y-10987508D01*
X2366467Y-10987508D02*
X2375991Y-10997031D01*
X2375991Y-10997031D02*
X2385515Y-11016079D01*
X2385515Y-11016079D02*
X2395039Y-11054174D01*
X2395039Y-11054174D02*
X2395039Y-11101793D01*
X2395039Y-11101793D02*
X2385515Y-11139889D01*
X2385515Y-11139889D02*
X2375991Y-11158936D01*
X2375991Y-11158936D02*
X2366467Y-11168460D01*
X2366467Y-11168460D02*
X2347420Y-11177984D01*
X2347420Y-11177984D02*
X2328372Y-11177984D01*
X2328372Y-11177984D02*
X2309324Y-11168460D01*
X2309324Y-11168460D02*
X2299801Y-11158936D01*
X2299801Y-11158936D02*
X2290277Y-11139889D01*
X2290277Y-11139889D02*
X2280753Y-11101793D01*
X2280753Y-11101793D02*
X2280753Y-11054174D01*
X2280753Y-11054174D02*
X2290277Y-11016079D01*
X2290277Y-11016079D02*
X2299801Y-10997031D01*
X2299801Y-10997031D02*
X2309324Y-10987508D01*
X2309324Y-10987508D02*
X2328372Y-10977984D01*
X2480753Y-11158936D02*
X2490277Y-11168460D01*
X2490277Y-11168460D02*
X2480753Y-11177984D01*
X2480753Y-11177984D02*
X2471229Y-11168460D01*
X2471229Y-11168460D02*
X2480753Y-11158936D01*
X2480753Y-11158936D02*
X2480753Y-11177984D01*
X2585515Y-11177984D02*
X2623610Y-11177984D01*
X2623610Y-11177984D02*
X2642658Y-11168460D01*
X2642658Y-11168460D02*
X2652182Y-11158936D01*
X2652182Y-11158936D02*
X2671229Y-11130365D01*
X2671229Y-11130365D02*
X2680753Y-11092270D01*
X2680753Y-11092270D02*
X2680753Y-11016079D01*
X2680753Y-11016079D02*
X2671229Y-10997031D01*
X2671229Y-10997031D02*
X2661705Y-10987508D01*
X2661705Y-10987508D02*
X2642658Y-10977984D01*
X2642658Y-10977984D02*
X2604563Y-10977984D01*
X2604563Y-10977984D02*
X2585515Y-10987508D01*
X2585515Y-10987508D02*
X2575991Y-10997031D01*
X2575991Y-10997031D02*
X2566467Y-11016079D01*
X2566467Y-11016079D02*
X2566467Y-11063698D01*
X2566467Y-11063698D02*
X2575991Y-11082746D01*
X2575991Y-11082746D02*
X2585515Y-11092270D01*
X2585515Y-11092270D02*
X2604563Y-11101793D01*
X2604563Y-11101793D02*
X2642658Y-11101793D01*
X2642658Y-11101793D02*
X2661705Y-11092270D01*
X2661705Y-11092270D02*
X2671229Y-11082746D01*
X2671229Y-11082746D02*
X2680753Y-11063698D01*
X2804562Y-10977984D02*
X2823610Y-10977984D01*
X2823610Y-10977984D02*
X2842658Y-10987508D01*
X2842658Y-10987508D02*
X2852182Y-10997031D01*
X2852182Y-10997031D02*
X2861705Y-11016079D01*
X2861705Y-11016079D02*
X2871229Y-11054174D01*
X2871229Y-11054174D02*
X2871229Y-11101793D01*
X2871229Y-11101793D02*
X2861705Y-11139889D01*
X2861705Y-11139889D02*
X2852182Y-11158936D01*
X2852182Y-11158936D02*
X2842658Y-11168460D01*
X2842658Y-11168460D02*
X2823610Y-11177984D01*
X2823610Y-11177984D02*
X2804562Y-11177984D01*
X2804562Y-11177984D02*
X2785515Y-11168460D01*
X2785515Y-11168460D02*
X2775991Y-11158936D01*
X2775991Y-11158936D02*
X2766467Y-11139889D01*
X2766467Y-11139889D02*
X2756944Y-11101793D01*
X2756944Y-11101793D02*
X2756944Y-11054174D01*
X2756944Y-11054174D02*
X2766467Y-11016079D01*
X2766467Y-11016079D02*
X2775991Y-10997031D01*
X2775991Y-10997031D02*
X2785515Y-10987508D01*
X2785515Y-10987508D02*
X2804562Y-10977984D01*
X2995039Y-10977984D02*
X3014086Y-10977984D01*
X3014086Y-10977984D02*
X3033134Y-10987508D01*
X3033134Y-10987508D02*
X3042658Y-10997031D01*
X3042658Y-10997031D02*
X3052182Y-11016079D01*
X3052182Y-11016079D02*
X3061705Y-11054174D01*
X3061705Y-11054174D02*
X3061705Y-11101793D01*
X3061705Y-11101793D02*
X3052182Y-11139889D01*
X3052182Y-11139889D02*
X3042658Y-11158936D01*
X3042658Y-11158936D02*
X3033134Y-11168460D01*
X3033134Y-11168460D02*
X3014086Y-11177984D01*
X3014086Y-11177984D02*
X2995039Y-11177984D01*
X2995039Y-11177984D02*
X2975991Y-11168460D01*
X2975991Y-11168460D02*
X2966467Y-11158936D01*
X2966467Y-11158936D02*
X2956943Y-11139889D01*
X2956943Y-11139889D02*
X2947420Y-11101793D01*
X2947420Y-11101793D02*
X2947420Y-11054174D01*
X2947420Y-11054174D02*
X2956943Y-11016079D01*
X2956943Y-11016079D02*
X2966467Y-10997031D01*
X2966467Y-10997031D02*
X2975991Y-10987508D01*
X2975991Y-10987508D02*
X2995039Y-10977984D01*
X3147420Y-11177984D02*
X3147420Y-11044650D01*
X3147420Y-11063698D02*
X3156943Y-11054174D01*
X3156943Y-11054174D02*
X3175991Y-11044650D01*
X3175991Y-11044650D02*
X3204563Y-11044650D01*
X3204563Y-11044650D02*
X3223610Y-11054174D01*
X3223610Y-11054174D02*
X3233134Y-11073222D01*
X3233134Y-11073222D02*
X3233134Y-11177984D01*
X3233134Y-11073222D02*
X3242658Y-11054174D01*
X3242658Y-11054174D02*
X3261705Y-11044650D01*
X3261705Y-11044650D02*
X3290277Y-11044650D01*
X3290277Y-11044650D02*
X3309324Y-11054174D01*
X3309324Y-11054174D02*
X3318848Y-11073222D01*
X3318848Y-11073222D02*
X3318848Y-11177984D01*
X3414086Y-11177984D02*
X3414086Y-11044650D01*
X3414086Y-11063698D02*
X3423610Y-11054174D01*
X3423610Y-11054174D02*
X3442658Y-11044650D01*
X3442658Y-11044650D02*
X3471229Y-11044650D01*
X3471229Y-11044650D02*
X3490277Y-11054174D01*
X3490277Y-11054174D02*
X3499801Y-11073222D01*
X3499801Y-11073222D02*
X3499801Y-11177984D01*
X3499801Y-11073222D02*
X3509324Y-11054174D01*
X3509324Y-11054174D02*
X3528372Y-11044650D01*
X3528372Y-11044650D02*
X3556943Y-11044650D01*
X3556943Y-11044650D02*
X3575991Y-11054174D01*
X3575991Y-11054174D02*
X3585515Y-11073222D01*
X3585515Y-11073222D02*
X3585515Y-11177984D01*
X3975991Y-10968460D02*
X3804563Y-11225603D01*
X4233134Y-10977984D02*
X4252182Y-10977984D01*
X4252182Y-10977984D02*
X4271229Y-10987508D01*
X4271229Y-10987508D02*
X4280753Y-10997031D01*
X4280753Y-10997031D02*
X4290277Y-11016079D01*
X4290277Y-11016079D02*
X4299801Y-11054174D01*
X4299801Y-11054174D02*
X4299801Y-11101793D01*
X4299801Y-11101793D02*
X4290277Y-11139889D01*
X4290277Y-11139889D02*
X4280753Y-11158936D01*
X4280753Y-11158936D02*
X4271229Y-11168460D01*
X4271229Y-11168460D02*
X4252182Y-11177984D01*
X4252182Y-11177984D02*
X4233134Y-11177984D01*
X4233134Y-11177984D02*
X4214087Y-11168460D01*
X4214087Y-11168460D02*
X4204563Y-11158936D01*
X4204563Y-11158936D02*
X4195039Y-11139889D01*
X4195039Y-11139889D02*
X4185515Y-11101793D01*
X4185515Y-11101793D02*
X4185515Y-11054174D01*
X4185515Y-11054174D02*
X4195039Y-11016079D01*
X4195039Y-11016079D02*
X4204563Y-10997031D01*
X4204563Y-10997031D02*
X4214087Y-10987508D01*
X4214087Y-10987508D02*
X4233134Y-10977984D01*
X4385515Y-11158936D02*
X4395039Y-11168460D01*
X4395039Y-11168460D02*
X4385515Y-11177984D01*
X4385515Y-11177984D02*
X4375991Y-11168460D01*
X4375991Y-11168460D02*
X4385515Y-11158936D01*
X4385515Y-11158936D02*
X4385515Y-11177984D01*
X4518848Y-10977984D02*
X4537896Y-10977984D01*
X4537896Y-10977984D02*
X4556944Y-10987508D01*
X4556944Y-10987508D02*
X4566468Y-10997031D01*
X4566468Y-10997031D02*
X4575991Y-11016079D01*
X4575991Y-11016079D02*
X4585515Y-11054174D01*
X4585515Y-11054174D02*
X4585515Y-11101793D01*
X4585515Y-11101793D02*
X4575991Y-11139889D01*
X4575991Y-11139889D02*
X4566468Y-11158936D01*
X4566468Y-11158936D02*
X4556944Y-11168460D01*
X4556944Y-11168460D02*
X4537896Y-11177984D01*
X4537896Y-11177984D02*
X4518848Y-11177984D01*
X4518848Y-11177984D02*
X4499801Y-11168460D01*
X4499801Y-11168460D02*
X4490277Y-11158936D01*
X4490277Y-11158936D02*
X4480753Y-11139889D01*
X4480753Y-11139889D02*
X4471229Y-11101793D01*
X4471229Y-11101793D02*
X4471229Y-11054174D01*
X4471229Y-11054174D02*
X4480753Y-11016079D01*
X4480753Y-11016079D02*
X4490277Y-10997031D01*
X4490277Y-10997031D02*
X4499801Y-10987508D01*
X4499801Y-10987508D02*
X4518848Y-10977984D01*
X4652182Y-10977984D02*
X4775991Y-10977984D01*
X4775991Y-10977984D02*
X4709325Y-11054174D01*
X4709325Y-11054174D02*
X4737896Y-11054174D01*
X4737896Y-11054174D02*
X4756944Y-11063698D01*
X4756944Y-11063698D02*
X4766468Y-11073222D01*
X4766468Y-11073222D02*
X4775991Y-11092270D01*
X4775991Y-11092270D02*
X4775991Y-11139889D01*
X4775991Y-11139889D02*
X4766468Y-11158936D01*
X4766468Y-11158936D02*
X4756944Y-11168460D01*
X4756944Y-11168460D02*
X4737896Y-11177984D01*
X4737896Y-11177984D02*
X4680753Y-11177984D01*
X4680753Y-11177984D02*
X4661706Y-11168460D01*
X4661706Y-11168460D02*
X4652182Y-11158936D01*
X4956944Y-10977984D02*
X4861706Y-10977984D01*
X4861706Y-10977984D02*
X4852182Y-11073222D01*
X4852182Y-11073222D02*
X4861706Y-11063698D01*
X4861706Y-11063698D02*
X4880753Y-11054174D01*
X4880753Y-11054174D02*
X4928372Y-11054174D01*
X4928372Y-11054174D02*
X4947420Y-11063698D01*
X4947420Y-11063698D02*
X4956944Y-11073222D01*
X4956944Y-11073222D02*
X4966468Y-11092270D01*
X4966468Y-11092270D02*
X4966468Y-11139889D01*
X4966468Y-11139889D02*
X4956944Y-11158936D01*
X4956944Y-11158936D02*
X4947420Y-11168460D01*
X4947420Y-11168460D02*
X4928372Y-11177984D01*
X4928372Y-11177984D02*
X4880753Y-11177984D01*
X4880753Y-11177984D02*
X4861706Y-11168460D01*
X4861706Y-11168460D02*
X4852182Y-11158936D01*
X5137896Y-11044650D02*
X5137896Y-11177984D01*
X5090277Y-10968460D02*
X5042658Y-11111317D01*
X5042658Y-11111317D02*
X5166468Y-11111317D01*
X5233134Y-10977984D02*
X5233134Y-11016079D01*
X5309325Y-10977984D02*
X5309325Y-11016079D01*
X5604563Y-11254174D02*
X5595039Y-11244650D01*
X5595039Y-11244650D02*
X5575991Y-11216079D01*
X5575991Y-11216079D02*
X5566468Y-11197031D01*
X5566468Y-11197031D02*
X5556944Y-11168460D01*
X5556944Y-11168460D02*
X5547420Y-11120841D01*
X5547420Y-11120841D02*
X5547420Y-11082746D01*
X5547420Y-11082746D02*
X5556944Y-11035127D01*
X5556944Y-11035127D02*
X5566468Y-11006555D01*
X5566468Y-11006555D02*
X5575991Y-10987508D01*
X5575991Y-10987508D02*
X5595039Y-10958936D01*
X5595039Y-10958936D02*
X5604563Y-10949412D01*
X5671229Y-10997031D02*
X5680753Y-10987508D01*
X5680753Y-10987508D02*
X5699801Y-10977984D01*
X5699801Y-10977984D02*
X5747420Y-10977984D01*
X5747420Y-10977984D02*
X5766468Y-10987508D01*
X5766468Y-10987508D02*
X5775991Y-10997031D01*
X5775991Y-10997031D02*
X5785515Y-11016079D01*
X5785515Y-11016079D02*
X5785515Y-11035127D01*
X5785515Y-11035127D02*
X5775991Y-11063698D01*
X5775991Y-11063698D02*
X5661706Y-11177984D01*
X5661706Y-11177984D02*
X5785515Y-11177984D01*
X6023610Y-11177984D02*
X6023610Y-10977984D01*
X6109325Y-11177984D02*
X6109325Y-11073222D01*
X6109325Y-11073222D02*
X6099801Y-11054174D01*
X6099801Y-11054174D02*
X6080753Y-11044650D01*
X6080753Y-11044650D02*
X6052182Y-11044650D01*
X6052182Y-11044650D02*
X6033134Y-11054174D01*
X6033134Y-11054174D02*
X6023610Y-11063698D01*
X6233134Y-11177984D02*
X6214087Y-11168460D01*
X6214087Y-11168460D02*
X6204563Y-11158936D01*
X6204563Y-11158936D02*
X6195039Y-11139889D01*
X6195039Y-11139889D02*
X6195039Y-11082746D01*
X6195039Y-11082746D02*
X6204563Y-11063698D01*
X6204563Y-11063698D02*
X6214087Y-11054174D01*
X6214087Y-11054174D02*
X6233134Y-11044650D01*
X6233134Y-11044650D02*
X6261706Y-11044650D01*
X6261706Y-11044650D02*
X6280753Y-11054174D01*
X6280753Y-11054174D02*
X6290277Y-11063698D01*
X6290277Y-11063698D02*
X6299801Y-11082746D01*
X6299801Y-11082746D02*
X6299801Y-11139889D01*
X6299801Y-11139889D02*
X6290277Y-11158936D01*
X6290277Y-11158936D02*
X6280753Y-11168460D01*
X6280753Y-11168460D02*
X6261706Y-11177984D01*
X6261706Y-11177984D02*
X6233134Y-11177984D01*
X6414087Y-11177984D02*
X6395039Y-11168460D01*
X6395039Y-11168460D02*
X6385515Y-11149412D01*
X6385515Y-11149412D02*
X6385515Y-10977984D01*
X6566468Y-11168460D02*
X6547420Y-11177984D01*
X6547420Y-11177984D02*
X6509325Y-11177984D01*
X6509325Y-11177984D02*
X6490277Y-11168460D01*
X6490277Y-11168460D02*
X6480753Y-11149412D01*
X6480753Y-11149412D02*
X6480753Y-11073222D01*
X6480753Y-11073222D02*
X6490277Y-11054174D01*
X6490277Y-11054174D02*
X6509325Y-11044650D01*
X6509325Y-11044650D02*
X6547420Y-11044650D01*
X6547420Y-11044650D02*
X6566468Y-11054174D01*
X6566468Y-11054174D02*
X6575991Y-11073222D01*
X6575991Y-11073222D02*
X6575991Y-11092270D01*
X6575991Y-11092270D02*
X6480753Y-11111317D01*
X6652182Y-11168460D02*
X6671230Y-11177984D01*
X6671230Y-11177984D02*
X6709325Y-11177984D01*
X6709325Y-11177984D02*
X6728372Y-11168460D01*
X6728372Y-11168460D02*
X6737896Y-11149412D01*
X6737896Y-11149412D02*
X6737896Y-11139889D01*
X6737896Y-11139889D02*
X6728372Y-11120841D01*
X6728372Y-11120841D02*
X6709325Y-11111317D01*
X6709325Y-11111317D02*
X6680753Y-11111317D01*
X6680753Y-11111317D02*
X6661706Y-11101793D01*
X6661706Y-11101793D02*
X6652182Y-11082746D01*
X6652182Y-11082746D02*
X6652182Y-11073222D01*
X6652182Y-11073222D02*
X6661706Y-11054174D01*
X6661706Y-11054174D02*
X6680753Y-11044650D01*
X6680753Y-11044650D02*
X6709325Y-11044650D01*
X6709325Y-11044650D02*
X6728372Y-11054174D01*
X6804563Y-11254174D02*
X6814087Y-11244650D01*
X6814087Y-11244650D02*
X6833134Y-11216079D01*
X6833134Y-11216079D02*
X6842658Y-11197031D01*
X6842658Y-11197031D02*
X6852182Y-11168460D01*
X6852182Y-11168460D02*
X6861706Y-11120841D01*
X6861706Y-11120841D02*
X6861706Y-11082746D01*
X6861706Y-11082746D02*
X6852182Y-11035127D01*
X6852182Y-11035127D02*
X6842658Y-11006555D01*
X6842658Y-11006555D02*
X6833134Y-10987508D01*
X6833134Y-10987508D02*
X6814087Y-10958936D01*
X6814087Y-10958936D02*
X6804563Y-10949412D01*
D12*
X1979500Y-11400500D02*
X2029500Y-11350500D01*
X1979500Y-11300500D01*
X1929500Y-11350500D01*
X1979500Y-11400500D01*
D11*
X2395039Y-11441984D02*
X2280753Y-11441984D01*
X2337896Y-11441984D02*
X2337896Y-11241984D01*
X2337896Y-11241984D02*
X2318848Y-11270555D01*
X2318848Y-11270555D02*
X2299801Y-11289603D01*
X2299801Y-11289603D02*
X2280753Y-11299127D01*
X2480753Y-11422936D02*
X2490277Y-11432460D01*
X2490277Y-11432460D02*
X2480753Y-11441984D01*
X2480753Y-11441984D02*
X2471229Y-11432460D01*
X2471229Y-11432460D02*
X2480753Y-11422936D01*
X2480753Y-11422936D02*
X2480753Y-11441984D01*
X2614086Y-11241984D02*
X2633134Y-11241984D01*
X2633134Y-11241984D02*
X2652182Y-11251508D01*
X2652182Y-11251508D02*
X2661705Y-11261031D01*
X2661705Y-11261031D02*
X2671229Y-11280079D01*
X2671229Y-11280079D02*
X2680753Y-11318174D01*
X2680753Y-11318174D02*
X2680753Y-11365793D01*
X2680753Y-11365793D02*
X2671229Y-11403888D01*
X2671229Y-11403888D02*
X2661705Y-11422936D01*
X2661705Y-11422936D02*
X2652182Y-11432460D01*
X2652182Y-11432460D02*
X2633134Y-11441984D01*
X2633134Y-11441984D02*
X2614086Y-11441984D01*
X2614086Y-11441984D02*
X2595039Y-11432460D01*
X2595039Y-11432460D02*
X2585515Y-11422936D01*
X2585515Y-11422936D02*
X2575991Y-11403888D01*
X2575991Y-11403888D02*
X2566467Y-11365793D01*
X2566467Y-11365793D02*
X2566467Y-11318174D01*
X2566467Y-11318174D02*
X2575991Y-11280079D01*
X2575991Y-11280079D02*
X2585515Y-11261031D01*
X2585515Y-11261031D02*
X2595039Y-11251508D01*
X2595039Y-11251508D02*
X2614086Y-11241984D01*
X2804562Y-11241984D02*
X2823610Y-11241984D01*
X2823610Y-11241984D02*
X2842658Y-11251508D01*
X2842658Y-11251508D02*
X2852182Y-11261031D01*
X2852182Y-11261031D02*
X2861705Y-11280079D01*
X2861705Y-11280079D02*
X2871229Y-11318174D01*
X2871229Y-11318174D02*
X2871229Y-11365793D01*
X2871229Y-11365793D02*
X2861705Y-11403888D01*
X2861705Y-11403888D02*
X2852182Y-11422936D01*
X2852182Y-11422936D02*
X2842658Y-11432460D01*
X2842658Y-11432460D02*
X2823610Y-11441984D01*
X2823610Y-11441984D02*
X2804562Y-11441984D01*
X2804562Y-11441984D02*
X2785515Y-11432460D01*
X2785515Y-11432460D02*
X2775991Y-11422936D01*
X2775991Y-11422936D02*
X2766467Y-11403888D01*
X2766467Y-11403888D02*
X2756944Y-11365793D01*
X2756944Y-11365793D02*
X2756944Y-11318174D01*
X2756944Y-11318174D02*
X2766467Y-11280079D01*
X2766467Y-11280079D02*
X2775991Y-11261031D01*
X2775991Y-11261031D02*
X2785515Y-11251508D01*
X2785515Y-11251508D02*
X2804562Y-11241984D01*
X2995039Y-11241984D02*
X3014086Y-11241984D01*
X3014086Y-11241984D02*
X3033134Y-11251508D01*
X3033134Y-11251508D02*
X3042658Y-11261031D01*
X3042658Y-11261031D02*
X3052182Y-11280079D01*
X3052182Y-11280079D02*
X3061705Y-11318174D01*
X3061705Y-11318174D02*
X3061705Y-11365793D01*
X3061705Y-11365793D02*
X3052182Y-11403888D01*
X3052182Y-11403888D02*
X3042658Y-11422936D01*
X3042658Y-11422936D02*
X3033134Y-11432460D01*
X3033134Y-11432460D02*
X3014086Y-11441984D01*
X3014086Y-11441984D02*
X2995039Y-11441984D01*
X2995039Y-11441984D02*
X2975991Y-11432460D01*
X2975991Y-11432460D02*
X2966467Y-11422936D01*
X2966467Y-11422936D02*
X2956943Y-11403888D01*
X2956943Y-11403888D02*
X2947420Y-11365793D01*
X2947420Y-11365793D02*
X2947420Y-11318174D01*
X2947420Y-11318174D02*
X2956943Y-11280079D01*
X2956943Y-11280079D02*
X2966467Y-11261031D01*
X2966467Y-11261031D02*
X2975991Y-11251508D01*
X2975991Y-11251508D02*
X2995039Y-11241984D01*
X3147420Y-11441984D02*
X3147420Y-11308650D01*
X3147420Y-11327698D02*
X3156943Y-11318174D01*
X3156943Y-11318174D02*
X3175991Y-11308650D01*
X3175991Y-11308650D02*
X3204563Y-11308650D01*
X3204563Y-11308650D02*
X3223610Y-11318174D01*
X3223610Y-11318174D02*
X3233134Y-11337222D01*
X3233134Y-11337222D02*
X3233134Y-11441984D01*
X3233134Y-11337222D02*
X3242658Y-11318174D01*
X3242658Y-11318174D02*
X3261705Y-11308650D01*
X3261705Y-11308650D02*
X3290277Y-11308650D01*
X3290277Y-11308650D02*
X3309324Y-11318174D01*
X3309324Y-11318174D02*
X3318848Y-11337222D01*
X3318848Y-11337222D02*
X3318848Y-11441984D01*
X3414086Y-11441984D02*
X3414086Y-11308650D01*
X3414086Y-11327698D02*
X3423610Y-11318174D01*
X3423610Y-11318174D02*
X3442658Y-11308650D01*
X3442658Y-11308650D02*
X3471229Y-11308650D01*
X3471229Y-11308650D02*
X3490277Y-11318174D01*
X3490277Y-11318174D02*
X3499801Y-11337222D01*
X3499801Y-11337222D02*
X3499801Y-11441984D01*
X3499801Y-11337222D02*
X3509324Y-11318174D01*
X3509324Y-11318174D02*
X3528372Y-11308650D01*
X3528372Y-11308650D02*
X3556943Y-11308650D01*
X3556943Y-11308650D02*
X3575991Y-11318174D01*
X3575991Y-11318174D02*
X3585515Y-11337222D01*
X3585515Y-11337222D02*
X3585515Y-11441984D01*
X3975991Y-11232460D02*
X3804563Y-11489603D01*
X4233134Y-11241984D02*
X4252182Y-11241984D01*
X4252182Y-11241984D02*
X4271229Y-11251508D01*
X4271229Y-11251508D02*
X4280753Y-11261031D01*
X4280753Y-11261031D02*
X4290277Y-11280079D01*
X4290277Y-11280079D02*
X4299801Y-11318174D01*
X4299801Y-11318174D02*
X4299801Y-11365793D01*
X4299801Y-11365793D02*
X4290277Y-11403888D01*
X4290277Y-11403888D02*
X4280753Y-11422936D01*
X4280753Y-11422936D02*
X4271229Y-11432460D01*
X4271229Y-11432460D02*
X4252182Y-11441984D01*
X4252182Y-11441984D02*
X4233134Y-11441984D01*
X4233134Y-11441984D02*
X4214087Y-11432460D01*
X4214087Y-11432460D02*
X4204563Y-11422936D01*
X4204563Y-11422936D02*
X4195039Y-11403888D01*
X4195039Y-11403888D02*
X4185515Y-11365793D01*
X4185515Y-11365793D02*
X4185515Y-11318174D01*
X4185515Y-11318174D02*
X4195039Y-11280079D01*
X4195039Y-11280079D02*
X4204563Y-11261031D01*
X4204563Y-11261031D02*
X4214087Y-11251508D01*
X4214087Y-11251508D02*
X4233134Y-11241984D01*
X4385515Y-11422936D02*
X4395039Y-11432460D01*
X4395039Y-11432460D02*
X4385515Y-11441984D01*
X4385515Y-11441984D02*
X4375991Y-11432460D01*
X4375991Y-11432460D02*
X4385515Y-11422936D01*
X4385515Y-11422936D02*
X4385515Y-11441984D01*
X4518848Y-11241984D02*
X4537896Y-11241984D01*
X4537896Y-11241984D02*
X4556944Y-11251508D01*
X4556944Y-11251508D02*
X4566468Y-11261031D01*
X4566468Y-11261031D02*
X4575991Y-11280079D01*
X4575991Y-11280079D02*
X4585515Y-11318174D01*
X4585515Y-11318174D02*
X4585515Y-11365793D01*
X4585515Y-11365793D02*
X4575991Y-11403888D01*
X4575991Y-11403888D02*
X4566468Y-11422936D01*
X4566468Y-11422936D02*
X4556944Y-11432460D01*
X4556944Y-11432460D02*
X4537896Y-11441984D01*
X4537896Y-11441984D02*
X4518848Y-11441984D01*
X4518848Y-11441984D02*
X4499801Y-11432460D01*
X4499801Y-11432460D02*
X4490277Y-11422936D01*
X4490277Y-11422936D02*
X4480753Y-11403888D01*
X4480753Y-11403888D02*
X4471229Y-11365793D01*
X4471229Y-11365793D02*
X4471229Y-11318174D01*
X4471229Y-11318174D02*
X4480753Y-11280079D01*
X4480753Y-11280079D02*
X4490277Y-11261031D01*
X4490277Y-11261031D02*
X4499801Y-11251508D01*
X4499801Y-11251508D02*
X4518848Y-11241984D01*
X4652182Y-11241984D02*
X4775991Y-11241984D01*
X4775991Y-11241984D02*
X4709325Y-11318174D01*
X4709325Y-11318174D02*
X4737896Y-11318174D01*
X4737896Y-11318174D02*
X4756944Y-11327698D01*
X4756944Y-11327698D02*
X4766468Y-11337222D01*
X4766468Y-11337222D02*
X4775991Y-11356269D01*
X4775991Y-11356269D02*
X4775991Y-11403888D01*
X4775991Y-11403888D02*
X4766468Y-11422936D01*
X4766468Y-11422936D02*
X4756944Y-11432460D01*
X4756944Y-11432460D02*
X4737896Y-11441984D01*
X4737896Y-11441984D02*
X4680753Y-11441984D01*
X4680753Y-11441984D02*
X4661706Y-11432460D01*
X4661706Y-11432460D02*
X4652182Y-11422936D01*
X4871229Y-11441984D02*
X4909325Y-11441984D01*
X4909325Y-11441984D02*
X4928372Y-11432460D01*
X4928372Y-11432460D02*
X4937896Y-11422936D01*
X4937896Y-11422936D02*
X4956944Y-11394365D01*
X4956944Y-11394365D02*
X4966468Y-11356269D01*
X4966468Y-11356269D02*
X4966468Y-11280079D01*
X4966468Y-11280079D02*
X4956944Y-11261031D01*
X4956944Y-11261031D02*
X4947420Y-11251508D01*
X4947420Y-11251508D02*
X4928372Y-11241984D01*
X4928372Y-11241984D02*
X4890277Y-11241984D01*
X4890277Y-11241984D02*
X4871229Y-11251508D01*
X4871229Y-11251508D02*
X4861706Y-11261031D01*
X4861706Y-11261031D02*
X4852182Y-11280079D01*
X4852182Y-11280079D02*
X4852182Y-11327698D01*
X4852182Y-11327698D02*
X4861706Y-11346746D01*
X4861706Y-11346746D02*
X4871229Y-11356269D01*
X4871229Y-11356269D02*
X4890277Y-11365793D01*
X4890277Y-11365793D02*
X4928372Y-11365793D01*
X4928372Y-11365793D02*
X4947420Y-11356269D01*
X4947420Y-11356269D02*
X4956944Y-11346746D01*
X4956944Y-11346746D02*
X4966468Y-11327698D01*
X5137896Y-11308650D02*
X5137896Y-11441984D01*
X5090277Y-11232460D02*
X5042658Y-11375317D01*
X5042658Y-11375317D02*
X5166468Y-11375317D01*
X5233134Y-11241984D02*
X5233134Y-11280079D01*
X5309325Y-11241984D02*
X5309325Y-11280079D01*
X5604563Y-11518174D02*
X5595039Y-11508650D01*
X5595039Y-11508650D02*
X5575991Y-11480079D01*
X5575991Y-11480079D02*
X5566468Y-11461031D01*
X5566468Y-11461031D02*
X5556944Y-11432460D01*
X5556944Y-11432460D02*
X5547420Y-11384841D01*
X5547420Y-11384841D02*
X5547420Y-11346746D01*
X5547420Y-11346746D02*
X5556944Y-11299127D01*
X5556944Y-11299127D02*
X5566468Y-11270555D01*
X5566468Y-11270555D02*
X5575991Y-11251508D01*
X5575991Y-11251508D02*
X5595039Y-11222936D01*
X5595039Y-11222936D02*
X5604563Y-11213412D01*
X5766468Y-11308650D02*
X5766468Y-11441984D01*
X5718848Y-11232460D02*
X5671229Y-11375317D01*
X5671229Y-11375317D02*
X5795039Y-11375317D01*
X5956944Y-11241984D02*
X5918848Y-11241984D01*
X5918848Y-11241984D02*
X5899801Y-11251508D01*
X5899801Y-11251508D02*
X5890277Y-11261031D01*
X5890277Y-11261031D02*
X5871229Y-11289603D01*
X5871229Y-11289603D02*
X5861706Y-11327698D01*
X5861706Y-11327698D02*
X5861706Y-11403888D01*
X5861706Y-11403888D02*
X5871229Y-11422936D01*
X5871229Y-11422936D02*
X5880753Y-11432460D01*
X5880753Y-11432460D02*
X5899801Y-11441984D01*
X5899801Y-11441984D02*
X5937896Y-11441984D01*
X5937896Y-11441984D02*
X5956944Y-11432460D01*
X5956944Y-11432460D02*
X5966468Y-11422936D01*
X5966468Y-11422936D02*
X5975991Y-11403888D01*
X5975991Y-11403888D02*
X5975991Y-11356269D01*
X5975991Y-11356269D02*
X5966468Y-11337222D01*
X5966468Y-11337222D02*
X5956944Y-11327698D01*
X5956944Y-11327698D02*
X5937896Y-11318174D01*
X5937896Y-11318174D02*
X5899801Y-11318174D01*
X5899801Y-11318174D02*
X5880753Y-11327698D01*
X5880753Y-11327698D02*
X5871229Y-11337222D01*
X5871229Y-11337222D02*
X5861706Y-11356269D01*
X6214087Y-11441984D02*
X6214087Y-11241984D01*
X6299801Y-11441984D02*
X6299801Y-11337222D01*
X6299801Y-11337222D02*
X6290277Y-11318174D01*
X6290277Y-11318174D02*
X6271230Y-11308650D01*
X6271230Y-11308650D02*
X6242658Y-11308650D01*
X6242658Y-11308650D02*
X6223610Y-11318174D01*
X6223610Y-11318174D02*
X6214087Y-11327698D01*
X6423610Y-11441984D02*
X6404563Y-11432460D01*
X6404563Y-11432460D02*
X6395039Y-11422936D01*
X6395039Y-11422936D02*
X6385515Y-11403888D01*
X6385515Y-11403888D02*
X6385515Y-11346746D01*
X6385515Y-11346746D02*
X6395039Y-11327698D01*
X6395039Y-11327698D02*
X6404563Y-11318174D01*
X6404563Y-11318174D02*
X6423610Y-11308650D01*
X6423610Y-11308650D02*
X6452182Y-11308650D01*
X6452182Y-11308650D02*
X6471230Y-11318174D01*
X6471230Y-11318174D02*
X6480753Y-11327698D01*
X6480753Y-11327698D02*
X6490277Y-11346746D01*
X6490277Y-11346746D02*
X6490277Y-11403888D01*
X6490277Y-11403888D02*
X6480753Y-11422936D01*
X6480753Y-11422936D02*
X6471230Y-11432460D01*
X6471230Y-11432460D02*
X6452182Y-11441984D01*
X6452182Y-11441984D02*
X6423610Y-11441984D01*
X6604563Y-11441984D02*
X6585515Y-11432460D01*
X6585515Y-11432460D02*
X6575991Y-11413412D01*
X6575991Y-11413412D02*
X6575991Y-11241984D01*
X6756944Y-11432460D02*
X6737896Y-11441984D01*
X6737896Y-11441984D02*
X6699801Y-11441984D01*
X6699801Y-11441984D02*
X6680753Y-11432460D01*
X6680753Y-11432460D02*
X6671230Y-11413412D01*
X6671230Y-11413412D02*
X6671230Y-11337222D01*
X6671230Y-11337222D02*
X6680753Y-11318174D01*
X6680753Y-11318174D02*
X6699801Y-11308650D01*
X6699801Y-11308650D02*
X6737896Y-11308650D01*
X6737896Y-11308650D02*
X6756944Y-11318174D01*
X6756944Y-11318174D02*
X6766468Y-11337222D01*
X6766468Y-11337222D02*
X6766468Y-11356269D01*
X6766468Y-11356269D02*
X6671230Y-11375317D01*
X6842658Y-11432460D02*
X6861706Y-11441984D01*
X6861706Y-11441984D02*
X6899801Y-11441984D01*
X6899801Y-11441984D02*
X6918849Y-11432460D01*
X6918849Y-11432460D02*
X6928372Y-11413412D01*
X6928372Y-11413412D02*
X6928372Y-11403888D01*
X6928372Y-11403888D02*
X6918849Y-11384841D01*
X6918849Y-11384841D02*
X6899801Y-11375317D01*
X6899801Y-11375317D02*
X6871230Y-11375317D01*
X6871230Y-11375317D02*
X6852182Y-11365793D01*
X6852182Y-11365793D02*
X6842658Y-11346746D01*
X6842658Y-11346746D02*
X6842658Y-11337222D01*
X6842658Y-11337222D02*
X6852182Y-11318174D01*
X6852182Y-11318174D02*
X6871230Y-11308650D01*
X6871230Y-11308650D02*
X6899801Y-11308650D01*
X6899801Y-11308650D02*
X6918849Y-11318174D01*
X6995039Y-11518174D02*
X7004563Y-11508650D01*
X7004563Y-11508650D02*
X7023611Y-11480079D01*
X7023611Y-11480079D02*
X7033134Y-11461031D01*
X7033134Y-11461031D02*
X7042658Y-11432460D01*
X7042658Y-11432460D02*
X7052182Y-11384841D01*
X7052182Y-11384841D02*
X7052182Y-11346746D01*
X7052182Y-11346746D02*
X7042658Y-11299127D01*
X7042658Y-11299127D02*
X7033134Y-11270555D01*
X7033134Y-11270555D02*
X7023611Y-11251508D01*
X7023611Y-11251508D02*
X7004563Y-11222936D01*
X7004563Y-11222936D02*
X6995039Y-11213412D01*
D13*
X1897500Y-11548500D02*
X2029500Y-11680500D01*
X2029500Y-11548500D02*
X1897500Y-11680500D01*
X2029500Y-11614500D02*
G75*
G02*
X1897500Y-11614500I-66000J0D01*
G01*
X1897500Y-11614500D02*
G75*
G02*
X2029500Y-11614500I66000J0D01*
G01*
D11*
X2395039Y-11705984D02*
X2280753Y-11705984D01*
X2337896Y-11705984D02*
X2337896Y-11505984D01*
X2337896Y-11505984D02*
X2318848Y-11534555D01*
X2318848Y-11534555D02*
X2299801Y-11553603D01*
X2299801Y-11553603D02*
X2280753Y-11563127D01*
X2480753Y-11686936D02*
X2490277Y-11696460D01*
X2490277Y-11696460D02*
X2480753Y-11705984D01*
X2480753Y-11705984D02*
X2471229Y-11696460D01*
X2471229Y-11696460D02*
X2480753Y-11686936D01*
X2480753Y-11686936D02*
X2480753Y-11705984D01*
X2556944Y-11505984D02*
X2680753Y-11505984D01*
X2680753Y-11505984D02*
X2614086Y-11582174D01*
X2614086Y-11582174D02*
X2642658Y-11582174D01*
X2642658Y-11582174D02*
X2661705Y-11591698D01*
X2661705Y-11591698D02*
X2671229Y-11601222D01*
X2671229Y-11601222D02*
X2680753Y-11620269D01*
X2680753Y-11620269D02*
X2680753Y-11667888D01*
X2680753Y-11667888D02*
X2671229Y-11686936D01*
X2671229Y-11686936D02*
X2661705Y-11696460D01*
X2661705Y-11696460D02*
X2642658Y-11705984D01*
X2642658Y-11705984D02*
X2585515Y-11705984D01*
X2585515Y-11705984D02*
X2566467Y-11696460D01*
X2566467Y-11696460D02*
X2556944Y-11686936D01*
X2756944Y-11525031D02*
X2766467Y-11515508D01*
X2766467Y-11515508D02*
X2785515Y-11505984D01*
X2785515Y-11505984D02*
X2833134Y-11505984D01*
X2833134Y-11505984D02*
X2852182Y-11515508D01*
X2852182Y-11515508D02*
X2861705Y-11525031D01*
X2861705Y-11525031D02*
X2871229Y-11544079D01*
X2871229Y-11544079D02*
X2871229Y-11563127D01*
X2871229Y-11563127D02*
X2861705Y-11591698D01*
X2861705Y-11591698D02*
X2747420Y-11705984D01*
X2747420Y-11705984D02*
X2871229Y-11705984D01*
X2995039Y-11505984D02*
X3014086Y-11505984D01*
X3014086Y-11505984D02*
X3033134Y-11515508D01*
X3033134Y-11515508D02*
X3042658Y-11525031D01*
X3042658Y-11525031D02*
X3052182Y-11544079D01*
X3052182Y-11544079D02*
X3061705Y-11582174D01*
X3061705Y-11582174D02*
X3061705Y-11629793D01*
X3061705Y-11629793D02*
X3052182Y-11667888D01*
X3052182Y-11667888D02*
X3042658Y-11686936D01*
X3042658Y-11686936D02*
X3033134Y-11696460D01*
X3033134Y-11696460D02*
X3014086Y-11705984D01*
X3014086Y-11705984D02*
X2995039Y-11705984D01*
X2995039Y-11705984D02*
X2975991Y-11696460D01*
X2975991Y-11696460D02*
X2966467Y-11686936D01*
X2966467Y-11686936D02*
X2956943Y-11667888D01*
X2956943Y-11667888D02*
X2947420Y-11629793D01*
X2947420Y-11629793D02*
X2947420Y-11582174D01*
X2947420Y-11582174D02*
X2956943Y-11544079D01*
X2956943Y-11544079D02*
X2966467Y-11525031D01*
X2966467Y-11525031D02*
X2975991Y-11515508D01*
X2975991Y-11515508D02*
X2995039Y-11505984D01*
X3147420Y-11705984D02*
X3147420Y-11572650D01*
X3147420Y-11591698D02*
X3156943Y-11582174D01*
X3156943Y-11582174D02*
X3175991Y-11572650D01*
X3175991Y-11572650D02*
X3204563Y-11572650D01*
X3204563Y-11572650D02*
X3223610Y-11582174D01*
X3223610Y-11582174D02*
X3233134Y-11601222D01*
X3233134Y-11601222D02*
X3233134Y-11705984D01*
X3233134Y-11601222D02*
X3242658Y-11582174D01*
X3242658Y-11582174D02*
X3261705Y-11572650D01*
X3261705Y-11572650D02*
X3290277Y-11572650D01*
X3290277Y-11572650D02*
X3309324Y-11582174D01*
X3309324Y-11582174D02*
X3318848Y-11601222D01*
X3318848Y-11601222D02*
X3318848Y-11705984D01*
X3414086Y-11705984D02*
X3414086Y-11572650D01*
X3414086Y-11591698D02*
X3423610Y-11582174D01*
X3423610Y-11582174D02*
X3442658Y-11572650D01*
X3442658Y-11572650D02*
X3471229Y-11572650D01*
X3471229Y-11572650D02*
X3490277Y-11582174D01*
X3490277Y-11582174D02*
X3499801Y-11601222D01*
X3499801Y-11601222D02*
X3499801Y-11705984D01*
X3499801Y-11601222D02*
X3509324Y-11582174D01*
X3509324Y-11582174D02*
X3528372Y-11572650D01*
X3528372Y-11572650D02*
X3556943Y-11572650D01*
X3556943Y-11572650D02*
X3575991Y-11582174D01*
X3575991Y-11582174D02*
X3585515Y-11601222D01*
X3585515Y-11601222D02*
X3585515Y-11705984D01*
X3975991Y-11496460D02*
X3804563Y-11753603D01*
X4233134Y-11505984D02*
X4252182Y-11505984D01*
X4252182Y-11505984D02*
X4271229Y-11515508D01*
X4271229Y-11515508D02*
X4280753Y-11525031D01*
X4280753Y-11525031D02*
X4290277Y-11544079D01*
X4290277Y-11544079D02*
X4299801Y-11582174D01*
X4299801Y-11582174D02*
X4299801Y-11629793D01*
X4299801Y-11629793D02*
X4290277Y-11667888D01*
X4290277Y-11667888D02*
X4280753Y-11686936D01*
X4280753Y-11686936D02*
X4271229Y-11696460D01*
X4271229Y-11696460D02*
X4252182Y-11705984D01*
X4252182Y-11705984D02*
X4233134Y-11705984D01*
X4233134Y-11705984D02*
X4214087Y-11696460D01*
X4214087Y-11696460D02*
X4204563Y-11686936D01*
X4204563Y-11686936D02*
X4195039Y-11667888D01*
X4195039Y-11667888D02*
X4185515Y-11629793D01*
X4185515Y-11629793D02*
X4185515Y-11582174D01*
X4185515Y-11582174D02*
X4195039Y-11544079D01*
X4195039Y-11544079D02*
X4204563Y-11525031D01*
X4204563Y-11525031D02*
X4214087Y-11515508D01*
X4214087Y-11515508D02*
X4233134Y-11505984D01*
X4385515Y-11686936D02*
X4395039Y-11696460D01*
X4395039Y-11696460D02*
X4385515Y-11705984D01*
X4385515Y-11705984D02*
X4375991Y-11696460D01*
X4375991Y-11696460D02*
X4385515Y-11686936D01*
X4385515Y-11686936D02*
X4385515Y-11705984D01*
X4518848Y-11505984D02*
X4537896Y-11505984D01*
X4537896Y-11505984D02*
X4556944Y-11515508D01*
X4556944Y-11515508D02*
X4566468Y-11525031D01*
X4566468Y-11525031D02*
X4575991Y-11544079D01*
X4575991Y-11544079D02*
X4585515Y-11582174D01*
X4585515Y-11582174D02*
X4585515Y-11629793D01*
X4585515Y-11629793D02*
X4575991Y-11667888D01*
X4575991Y-11667888D02*
X4566468Y-11686936D01*
X4566468Y-11686936D02*
X4556944Y-11696460D01*
X4556944Y-11696460D02*
X4537896Y-11705984D01*
X4537896Y-11705984D02*
X4518848Y-11705984D01*
X4518848Y-11705984D02*
X4499801Y-11696460D01*
X4499801Y-11696460D02*
X4490277Y-11686936D01*
X4490277Y-11686936D02*
X4480753Y-11667888D01*
X4480753Y-11667888D02*
X4471229Y-11629793D01*
X4471229Y-11629793D02*
X4471229Y-11582174D01*
X4471229Y-11582174D02*
X4480753Y-11544079D01*
X4480753Y-11544079D02*
X4490277Y-11525031D01*
X4490277Y-11525031D02*
X4499801Y-11515508D01*
X4499801Y-11515508D02*
X4518848Y-11505984D01*
X4766468Y-11505984D02*
X4671229Y-11505984D01*
X4671229Y-11505984D02*
X4661706Y-11601222D01*
X4661706Y-11601222D02*
X4671229Y-11591698D01*
X4671229Y-11591698D02*
X4690277Y-11582174D01*
X4690277Y-11582174D02*
X4737896Y-11582174D01*
X4737896Y-11582174D02*
X4756944Y-11591698D01*
X4756944Y-11591698D02*
X4766468Y-11601222D01*
X4766468Y-11601222D02*
X4775991Y-11620269D01*
X4775991Y-11620269D02*
X4775991Y-11667888D01*
X4775991Y-11667888D02*
X4766468Y-11686936D01*
X4766468Y-11686936D02*
X4756944Y-11696460D01*
X4756944Y-11696460D02*
X4737896Y-11705984D01*
X4737896Y-11705984D02*
X4690277Y-11705984D01*
X4690277Y-11705984D02*
X4671229Y-11696460D01*
X4671229Y-11696460D02*
X4661706Y-11686936D01*
X4852182Y-11525031D02*
X4861706Y-11515508D01*
X4861706Y-11515508D02*
X4880753Y-11505984D01*
X4880753Y-11505984D02*
X4928372Y-11505984D01*
X4928372Y-11505984D02*
X4947420Y-11515508D01*
X4947420Y-11515508D02*
X4956944Y-11525031D01*
X4956944Y-11525031D02*
X4966468Y-11544079D01*
X4966468Y-11544079D02*
X4966468Y-11563127D01*
X4966468Y-11563127D02*
X4956944Y-11591698D01*
X4956944Y-11591698D02*
X4842658Y-11705984D01*
X4842658Y-11705984D02*
X4966468Y-11705984D01*
X5090277Y-11505984D02*
X5109325Y-11505984D01*
X5109325Y-11505984D02*
X5128372Y-11515508D01*
X5128372Y-11515508D02*
X5137896Y-11525031D01*
X5137896Y-11525031D02*
X5147420Y-11544079D01*
X5147420Y-11544079D02*
X5156944Y-11582174D01*
X5156944Y-11582174D02*
X5156944Y-11629793D01*
X5156944Y-11629793D02*
X5147420Y-11667888D01*
X5147420Y-11667888D02*
X5137896Y-11686936D01*
X5137896Y-11686936D02*
X5128372Y-11696460D01*
X5128372Y-11696460D02*
X5109325Y-11705984D01*
X5109325Y-11705984D02*
X5090277Y-11705984D01*
X5090277Y-11705984D02*
X5071229Y-11696460D01*
X5071229Y-11696460D02*
X5061706Y-11686936D01*
X5061706Y-11686936D02*
X5052182Y-11667888D01*
X5052182Y-11667888D02*
X5042658Y-11629793D01*
X5042658Y-11629793D02*
X5042658Y-11582174D01*
X5042658Y-11582174D02*
X5052182Y-11544079D01*
X5052182Y-11544079D02*
X5061706Y-11525031D01*
X5061706Y-11525031D02*
X5071229Y-11515508D01*
X5071229Y-11515508D02*
X5090277Y-11505984D01*
X5233134Y-11505984D02*
X5233134Y-11544079D01*
X5309325Y-11505984D02*
X5309325Y-11544079D01*
X5604563Y-11782174D02*
X5595039Y-11772650D01*
X5595039Y-11772650D02*
X5575991Y-11744079D01*
X5575991Y-11744079D02*
X5566468Y-11725031D01*
X5566468Y-11725031D02*
X5556944Y-11696460D01*
X5556944Y-11696460D02*
X5547420Y-11648841D01*
X5547420Y-11648841D02*
X5547420Y-11610746D01*
X5547420Y-11610746D02*
X5556944Y-11563127D01*
X5556944Y-11563127D02*
X5566468Y-11534555D01*
X5566468Y-11534555D02*
X5575991Y-11515508D01*
X5575991Y-11515508D02*
X5595039Y-11486936D01*
X5595039Y-11486936D02*
X5604563Y-11477412D01*
X5785515Y-11705984D02*
X5671229Y-11705984D01*
X5728372Y-11705984D02*
X5728372Y-11505984D01*
X5728372Y-11505984D02*
X5709325Y-11534555D01*
X5709325Y-11534555D02*
X5690277Y-11553603D01*
X5690277Y-11553603D02*
X5671229Y-11563127D01*
X5956944Y-11505984D02*
X5918848Y-11505984D01*
X5918848Y-11505984D02*
X5899801Y-11515508D01*
X5899801Y-11515508D02*
X5890277Y-11525031D01*
X5890277Y-11525031D02*
X5871229Y-11553603D01*
X5871229Y-11553603D02*
X5861706Y-11591698D01*
X5861706Y-11591698D02*
X5861706Y-11667888D01*
X5861706Y-11667888D02*
X5871229Y-11686936D01*
X5871229Y-11686936D02*
X5880753Y-11696460D01*
X5880753Y-11696460D02*
X5899801Y-11705984D01*
X5899801Y-11705984D02*
X5937896Y-11705984D01*
X5937896Y-11705984D02*
X5956944Y-11696460D01*
X5956944Y-11696460D02*
X5966468Y-11686936D01*
X5966468Y-11686936D02*
X5975991Y-11667888D01*
X5975991Y-11667888D02*
X5975991Y-11620269D01*
X5975991Y-11620269D02*
X5966468Y-11601222D01*
X5966468Y-11601222D02*
X5956944Y-11591698D01*
X5956944Y-11591698D02*
X5937896Y-11582174D01*
X5937896Y-11582174D02*
X5899801Y-11582174D01*
X5899801Y-11582174D02*
X5880753Y-11591698D01*
X5880753Y-11591698D02*
X5871229Y-11601222D01*
X5871229Y-11601222D02*
X5861706Y-11620269D01*
X6214087Y-11705984D02*
X6214087Y-11505984D01*
X6299801Y-11705984D02*
X6299801Y-11601222D01*
X6299801Y-11601222D02*
X6290277Y-11582174D01*
X6290277Y-11582174D02*
X6271230Y-11572650D01*
X6271230Y-11572650D02*
X6242658Y-11572650D01*
X6242658Y-11572650D02*
X6223610Y-11582174D01*
X6223610Y-11582174D02*
X6214087Y-11591698D01*
X6423610Y-11705984D02*
X6404563Y-11696460D01*
X6404563Y-11696460D02*
X6395039Y-11686936D01*
X6395039Y-11686936D02*
X6385515Y-11667888D01*
X6385515Y-11667888D02*
X6385515Y-11610746D01*
X6385515Y-11610746D02*
X6395039Y-11591698D01*
X6395039Y-11591698D02*
X6404563Y-11582174D01*
X6404563Y-11582174D02*
X6423610Y-11572650D01*
X6423610Y-11572650D02*
X6452182Y-11572650D01*
X6452182Y-11572650D02*
X6471230Y-11582174D01*
X6471230Y-11582174D02*
X6480753Y-11591698D01*
X6480753Y-11591698D02*
X6490277Y-11610746D01*
X6490277Y-11610746D02*
X6490277Y-11667888D01*
X6490277Y-11667888D02*
X6480753Y-11686936D01*
X6480753Y-11686936D02*
X6471230Y-11696460D01*
X6471230Y-11696460D02*
X6452182Y-11705984D01*
X6452182Y-11705984D02*
X6423610Y-11705984D01*
X6604563Y-11705984D02*
X6585515Y-11696460D01*
X6585515Y-11696460D02*
X6575991Y-11677412D01*
X6575991Y-11677412D02*
X6575991Y-11505984D01*
X6756944Y-11696460D02*
X6737896Y-11705984D01*
X6737896Y-11705984D02*
X6699801Y-11705984D01*
X6699801Y-11705984D02*
X6680753Y-11696460D01*
X6680753Y-11696460D02*
X6671230Y-11677412D01*
X6671230Y-11677412D02*
X6671230Y-11601222D01*
X6671230Y-11601222D02*
X6680753Y-11582174D01*
X6680753Y-11582174D02*
X6699801Y-11572650D01*
X6699801Y-11572650D02*
X6737896Y-11572650D01*
X6737896Y-11572650D02*
X6756944Y-11582174D01*
X6756944Y-11582174D02*
X6766468Y-11601222D01*
X6766468Y-11601222D02*
X6766468Y-11620269D01*
X6766468Y-11620269D02*
X6671230Y-11639317D01*
X6842658Y-11696460D02*
X6861706Y-11705984D01*
X6861706Y-11705984D02*
X6899801Y-11705984D01*
X6899801Y-11705984D02*
X6918849Y-11696460D01*
X6918849Y-11696460D02*
X6928372Y-11677412D01*
X6928372Y-11677412D02*
X6928372Y-11667888D01*
X6928372Y-11667888D02*
X6918849Y-11648841D01*
X6918849Y-11648841D02*
X6899801Y-11639317D01*
X6899801Y-11639317D02*
X6871230Y-11639317D01*
X6871230Y-11639317D02*
X6852182Y-11629793D01*
X6852182Y-11629793D02*
X6842658Y-11610746D01*
X6842658Y-11610746D02*
X6842658Y-11601222D01*
X6842658Y-11601222D02*
X6852182Y-11582174D01*
X6852182Y-11582174D02*
X6871230Y-11572650D01*
X6871230Y-11572650D02*
X6899801Y-11572650D01*
X6899801Y-11572650D02*
X6918849Y-11582174D01*
X6995039Y-11782174D02*
X7004563Y-11772650D01*
X7004563Y-11772650D02*
X7023611Y-11744079D01*
X7023611Y-11744079D02*
X7033134Y-11725031D01*
X7033134Y-11725031D02*
X7042658Y-11696460D01*
X7042658Y-11696460D02*
X7052182Y-11648841D01*
X7052182Y-11648841D02*
X7052182Y-11610746D01*
X7052182Y-11610746D02*
X7042658Y-11563127D01*
X7042658Y-11563127D02*
X7033134Y-11534555D01*
X7033134Y-11534555D02*
X7023611Y-11515508D01*
X7023611Y-11515508D02*
X7004563Y-11486936D01*
X7004563Y-11486936D02*
X6995039Y-11477412D01*
D14*
X1869500Y-11798500D02*
X2029500Y-11958500D01*
X2029500Y-11798500D02*
X1869500Y-11958500D01*
X1949500Y-11798500D02*
X1949500Y-11958500D01*
X1869500Y-11878500D02*
X2029500Y-11878500D01*
D11*
X2395039Y-11969984D02*
X2280753Y-11969984D01*
X2337896Y-11969984D02*
X2337896Y-11769984D01*
X2337896Y-11769984D02*
X2318848Y-11798555D01*
X2318848Y-11798555D02*
X2299801Y-11817603D01*
X2299801Y-11817603D02*
X2280753Y-11827127D01*
X2480753Y-11950936D02*
X2490277Y-11960460D01*
X2490277Y-11960460D02*
X2480753Y-11969984D01*
X2480753Y-11969984D02*
X2471229Y-11960460D01*
X2471229Y-11960460D02*
X2480753Y-11950936D01*
X2480753Y-11950936D02*
X2480753Y-11969984D01*
X2661705Y-11769984D02*
X2623610Y-11769984D01*
X2623610Y-11769984D02*
X2604563Y-11779508D01*
X2604563Y-11779508D02*
X2595039Y-11789031D01*
X2595039Y-11789031D02*
X2575991Y-11817603D01*
X2575991Y-11817603D02*
X2566467Y-11855698D01*
X2566467Y-11855698D02*
X2566467Y-11931888D01*
X2566467Y-11931888D02*
X2575991Y-11950936D01*
X2575991Y-11950936D02*
X2585515Y-11960460D01*
X2585515Y-11960460D02*
X2604563Y-11969984D01*
X2604563Y-11969984D02*
X2642658Y-11969984D01*
X2642658Y-11969984D02*
X2661705Y-11960460D01*
X2661705Y-11960460D02*
X2671229Y-11950936D01*
X2671229Y-11950936D02*
X2680753Y-11931888D01*
X2680753Y-11931888D02*
X2680753Y-11884269D01*
X2680753Y-11884269D02*
X2671229Y-11865222D01*
X2671229Y-11865222D02*
X2661705Y-11855698D01*
X2661705Y-11855698D02*
X2642658Y-11846174D01*
X2642658Y-11846174D02*
X2604563Y-11846174D01*
X2604563Y-11846174D02*
X2585515Y-11855698D01*
X2585515Y-11855698D02*
X2575991Y-11865222D01*
X2575991Y-11865222D02*
X2566467Y-11884269D01*
X2804562Y-11769984D02*
X2823610Y-11769984D01*
X2823610Y-11769984D02*
X2842658Y-11779508D01*
X2842658Y-11779508D02*
X2852182Y-11789031D01*
X2852182Y-11789031D02*
X2861705Y-11808079D01*
X2861705Y-11808079D02*
X2871229Y-11846174D01*
X2871229Y-11846174D02*
X2871229Y-11893793D01*
X2871229Y-11893793D02*
X2861705Y-11931888D01*
X2861705Y-11931888D02*
X2852182Y-11950936D01*
X2852182Y-11950936D02*
X2842658Y-11960460D01*
X2842658Y-11960460D02*
X2823610Y-11969984D01*
X2823610Y-11969984D02*
X2804562Y-11969984D01*
X2804562Y-11969984D02*
X2785515Y-11960460D01*
X2785515Y-11960460D02*
X2775991Y-11950936D01*
X2775991Y-11950936D02*
X2766467Y-11931888D01*
X2766467Y-11931888D02*
X2756944Y-11893793D01*
X2756944Y-11893793D02*
X2756944Y-11846174D01*
X2756944Y-11846174D02*
X2766467Y-11808079D01*
X2766467Y-11808079D02*
X2775991Y-11789031D01*
X2775991Y-11789031D02*
X2785515Y-11779508D01*
X2785515Y-11779508D02*
X2804562Y-11769984D01*
X2995039Y-11769984D02*
X3014086Y-11769984D01*
X3014086Y-11769984D02*
X3033134Y-11779508D01*
X3033134Y-11779508D02*
X3042658Y-11789031D01*
X3042658Y-11789031D02*
X3052182Y-11808079D01*
X3052182Y-11808079D02*
X3061705Y-11846174D01*
X3061705Y-11846174D02*
X3061705Y-11893793D01*
X3061705Y-11893793D02*
X3052182Y-11931888D01*
X3052182Y-11931888D02*
X3042658Y-11950936D01*
X3042658Y-11950936D02*
X3033134Y-11960460D01*
X3033134Y-11960460D02*
X3014086Y-11969984D01*
X3014086Y-11969984D02*
X2995039Y-11969984D01*
X2995039Y-11969984D02*
X2975991Y-11960460D01*
X2975991Y-11960460D02*
X2966467Y-11950936D01*
X2966467Y-11950936D02*
X2956943Y-11931888D01*
X2956943Y-11931888D02*
X2947420Y-11893793D01*
X2947420Y-11893793D02*
X2947420Y-11846174D01*
X2947420Y-11846174D02*
X2956943Y-11808079D01*
X2956943Y-11808079D02*
X2966467Y-11789031D01*
X2966467Y-11789031D02*
X2975991Y-11779508D01*
X2975991Y-11779508D02*
X2995039Y-11769984D01*
X3147420Y-11969984D02*
X3147420Y-11836650D01*
X3147420Y-11855698D02*
X3156943Y-11846174D01*
X3156943Y-11846174D02*
X3175991Y-11836650D01*
X3175991Y-11836650D02*
X3204563Y-11836650D01*
X3204563Y-11836650D02*
X3223610Y-11846174D01*
X3223610Y-11846174D02*
X3233134Y-11865222D01*
X3233134Y-11865222D02*
X3233134Y-11969984D01*
X3233134Y-11865222D02*
X3242658Y-11846174D01*
X3242658Y-11846174D02*
X3261705Y-11836650D01*
X3261705Y-11836650D02*
X3290277Y-11836650D01*
X3290277Y-11836650D02*
X3309324Y-11846174D01*
X3309324Y-11846174D02*
X3318848Y-11865222D01*
X3318848Y-11865222D02*
X3318848Y-11969984D01*
X3414086Y-11969984D02*
X3414086Y-11836650D01*
X3414086Y-11855698D02*
X3423610Y-11846174D01*
X3423610Y-11846174D02*
X3442658Y-11836650D01*
X3442658Y-11836650D02*
X3471229Y-11836650D01*
X3471229Y-11836650D02*
X3490277Y-11846174D01*
X3490277Y-11846174D02*
X3499801Y-11865222D01*
X3499801Y-11865222D02*
X3499801Y-11969984D01*
X3499801Y-11865222D02*
X3509324Y-11846174D01*
X3509324Y-11846174D02*
X3528372Y-11836650D01*
X3528372Y-11836650D02*
X3556943Y-11836650D01*
X3556943Y-11836650D02*
X3575991Y-11846174D01*
X3575991Y-11846174D02*
X3585515Y-11865222D01*
X3585515Y-11865222D02*
X3585515Y-11969984D01*
X3975991Y-11760460D02*
X3804563Y-12017603D01*
X4233134Y-11769984D02*
X4252182Y-11769984D01*
X4252182Y-11769984D02*
X4271229Y-11779508D01*
X4271229Y-11779508D02*
X4280753Y-11789031D01*
X4280753Y-11789031D02*
X4290277Y-11808079D01*
X4290277Y-11808079D02*
X4299801Y-11846174D01*
X4299801Y-11846174D02*
X4299801Y-11893793D01*
X4299801Y-11893793D02*
X4290277Y-11931888D01*
X4290277Y-11931888D02*
X4280753Y-11950936D01*
X4280753Y-11950936D02*
X4271229Y-11960460D01*
X4271229Y-11960460D02*
X4252182Y-11969984D01*
X4252182Y-11969984D02*
X4233134Y-11969984D01*
X4233134Y-11969984D02*
X4214087Y-11960460D01*
X4214087Y-11960460D02*
X4204563Y-11950936D01*
X4204563Y-11950936D02*
X4195039Y-11931888D01*
X4195039Y-11931888D02*
X4185515Y-11893793D01*
X4185515Y-11893793D02*
X4185515Y-11846174D01*
X4185515Y-11846174D02*
X4195039Y-11808079D01*
X4195039Y-11808079D02*
X4204563Y-11789031D01*
X4204563Y-11789031D02*
X4214087Y-11779508D01*
X4214087Y-11779508D02*
X4233134Y-11769984D01*
X4385515Y-11950936D02*
X4395039Y-11960460D01*
X4395039Y-11960460D02*
X4385515Y-11969984D01*
X4385515Y-11969984D02*
X4375991Y-11960460D01*
X4375991Y-11960460D02*
X4385515Y-11950936D01*
X4385515Y-11950936D02*
X4385515Y-11969984D01*
X4518848Y-11769984D02*
X4537896Y-11769984D01*
X4537896Y-11769984D02*
X4556944Y-11779508D01*
X4556944Y-11779508D02*
X4566468Y-11789031D01*
X4566468Y-11789031D02*
X4575991Y-11808079D01*
X4575991Y-11808079D02*
X4585515Y-11846174D01*
X4585515Y-11846174D02*
X4585515Y-11893793D01*
X4585515Y-11893793D02*
X4575991Y-11931888D01*
X4575991Y-11931888D02*
X4566468Y-11950936D01*
X4566468Y-11950936D02*
X4556944Y-11960460D01*
X4556944Y-11960460D02*
X4537896Y-11969984D01*
X4537896Y-11969984D02*
X4518848Y-11969984D01*
X4518848Y-11969984D02*
X4499801Y-11960460D01*
X4499801Y-11960460D02*
X4490277Y-11950936D01*
X4490277Y-11950936D02*
X4480753Y-11931888D01*
X4480753Y-11931888D02*
X4471229Y-11893793D01*
X4471229Y-11893793D02*
X4471229Y-11846174D01*
X4471229Y-11846174D02*
X4480753Y-11808079D01*
X4480753Y-11808079D02*
X4490277Y-11789031D01*
X4490277Y-11789031D02*
X4499801Y-11779508D01*
X4499801Y-11779508D02*
X4518848Y-11769984D01*
X4756944Y-11769984D02*
X4718848Y-11769984D01*
X4718848Y-11769984D02*
X4699801Y-11779508D01*
X4699801Y-11779508D02*
X4690277Y-11789031D01*
X4690277Y-11789031D02*
X4671229Y-11817603D01*
X4671229Y-11817603D02*
X4661706Y-11855698D01*
X4661706Y-11855698D02*
X4661706Y-11931888D01*
X4661706Y-11931888D02*
X4671229Y-11950936D01*
X4671229Y-11950936D02*
X4680753Y-11960460D01*
X4680753Y-11960460D02*
X4699801Y-11969984D01*
X4699801Y-11969984D02*
X4737896Y-11969984D01*
X4737896Y-11969984D02*
X4756944Y-11960460D01*
X4756944Y-11960460D02*
X4766468Y-11950936D01*
X4766468Y-11950936D02*
X4775991Y-11931888D01*
X4775991Y-11931888D02*
X4775991Y-11884269D01*
X4775991Y-11884269D02*
X4766468Y-11865222D01*
X4766468Y-11865222D02*
X4756944Y-11855698D01*
X4756944Y-11855698D02*
X4737896Y-11846174D01*
X4737896Y-11846174D02*
X4699801Y-11846174D01*
X4699801Y-11846174D02*
X4680753Y-11855698D01*
X4680753Y-11855698D02*
X4671229Y-11865222D01*
X4671229Y-11865222D02*
X4661706Y-11884269D01*
X4842658Y-11769984D02*
X4966468Y-11769984D01*
X4966468Y-11769984D02*
X4899801Y-11846174D01*
X4899801Y-11846174D02*
X4928372Y-11846174D01*
X4928372Y-11846174D02*
X4947420Y-11855698D01*
X4947420Y-11855698D02*
X4956944Y-11865222D01*
X4956944Y-11865222D02*
X4966468Y-11884269D01*
X4966468Y-11884269D02*
X4966468Y-11931888D01*
X4966468Y-11931888D02*
X4956944Y-11950936D01*
X4956944Y-11950936D02*
X4947420Y-11960460D01*
X4947420Y-11960460D02*
X4928372Y-11969984D01*
X4928372Y-11969984D02*
X4871229Y-11969984D01*
X4871229Y-11969984D02*
X4852182Y-11960460D01*
X4852182Y-11960460D02*
X4842658Y-11950936D01*
X5090277Y-11769984D02*
X5109325Y-11769984D01*
X5109325Y-11769984D02*
X5128372Y-11779508D01*
X5128372Y-11779508D02*
X5137896Y-11789031D01*
X5137896Y-11789031D02*
X5147420Y-11808079D01*
X5147420Y-11808079D02*
X5156944Y-11846174D01*
X5156944Y-11846174D02*
X5156944Y-11893793D01*
X5156944Y-11893793D02*
X5147420Y-11931888D01*
X5147420Y-11931888D02*
X5137896Y-11950936D01*
X5137896Y-11950936D02*
X5128372Y-11960460D01*
X5128372Y-11960460D02*
X5109325Y-11969984D01*
X5109325Y-11969984D02*
X5090277Y-11969984D01*
X5090277Y-11969984D02*
X5071229Y-11960460D01*
X5071229Y-11960460D02*
X5061706Y-11950936D01*
X5061706Y-11950936D02*
X5052182Y-11931888D01*
X5052182Y-11931888D02*
X5042658Y-11893793D01*
X5042658Y-11893793D02*
X5042658Y-11846174D01*
X5042658Y-11846174D02*
X5052182Y-11808079D01*
X5052182Y-11808079D02*
X5061706Y-11789031D01*
X5061706Y-11789031D02*
X5071229Y-11779508D01*
X5071229Y-11779508D02*
X5090277Y-11769984D01*
X5233134Y-11769984D02*
X5233134Y-11808079D01*
X5309325Y-11769984D02*
X5309325Y-11808079D01*
X5604563Y-12046174D02*
X5595039Y-12036650D01*
X5595039Y-12036650D02*
X5575991Y-12008079D01*
X5575991Y-12008079D02*
X5566468Y-11989031D01*
X5566468Y-11989031D02*
X5556944Y-11960460D01*
X5556944Y-11960460D02*
X5547420Y-11912841D01*
X5547420Y-11912841D02*
X5547420Y-11874746D01*
X5547420Y-11874746D02*
X5556944Y-11827127D01*
X5556944Y-11827127D02*
X5566468Y-11798555D01*
X5566468Y-11798555D02*
X5575991Y-11779508D01*
X5575991Y-11779508D02*
X5595039Y-11750936D01*
X5595039Y-11750936D02*
X5604563Y-11741412D01*
X5785515Y-11969984D02*
X5671229Y-11969984D01*
X5728372Y-11969984D02*
X5728372Y-11769984D01*
X5728372Y-11769984D02*
X5709325Y-11798555D01*
X5709325Y-11798555D02*
X5690277Y-11817603D01*
X5690277Y-11817603D02*
X5671229Y-11827127D01*
X5909325Y-11769984D02*
X5928372Y-11769984D01*
X5928372Y-11769984D02*
X5947420Y-11779508D01*
X5947420Y-11779508D02*
X5956944Y-11789031D01*
X5956944Y-11789031D02*
X5966468Y-11808079D01*
X5966468Y-11808079D02*
X5975991Y-11846174D01*
X5975991Y-11846174D02*
X5975991Y-11893793D01*
X5975991Y-11893793D02*
X5966468Y-11931888D01*
X5966468Y-11931888D02*
X5956944Y-11950936D01*
X5956944Y-11950936D02*
X5947420Y-11960460D01*
X5947420Y-11960460D02*
X5928372Y-11969984D01*
X5928372Y-11969984D02*
X5909325Y-11969984D01*
X5909325Y-11969984D02*
X5890277Y-11960460D01*
X5890277Y-11960460D02*
X5880753Y-11950936D01*
X5880753Y-11950936D02*
X5871229Y-11931888D01*
X5871229Y-11931888D02*
X5861706Y-11893793D01*
X5861706Y-11893793D02*
X5861706Y-11846174D01*
X5861706Y-11846174D02*
X5871229Y-11808079D01*
X5871229Y-11808079D02*
X5880753Y-11789031D01*
X5880753Y-11789031D02*
X5890277Y-11779508D01*
X5890277Y-11779508D02*
X5909325Y-11769984D01*
X6214087Y-11969984D02*
X6214087Y-11769984D01*
X6299801Y-11969984D02*
X6299801Y-11865222D01*
X6299801Y-11865222D02*
X6290277Y-11846174D01*
X6290277Y-11846174D02*
X6271230Y-11836650D01*
X6271230Y-11836650D02*
X6242658Y-11836650D01*
X6242658Y-11836650D02*
X6223610Y-11846174D01*
X6223610Y-11846174D02*
X6214087Y-11855698D01*
X6423610Y-11969984D02*
X6404563Y-11960460D01*
X6404563Y-11960460D02*
X6395039Y-11950936D01*
X6395039Y-11950936D02*
X6385515Y-11931888D01*
X6385515Y-11931888D02*
X6385515Y-11874746D01*
X6385515Y-11874746D02*
X6395039Y-11855698D01*
X6395039Y-11855698D02*
X6404563Y-11846174D01*
X6404563Y-11846174D02*
X6423610Y-11836650D01*
X6423610Y-11836650D02*
X6452182Y-11836650D01*
X6452182Y-11836650D02*
X6471230Y-11846174D01*
X6471230Y-11846174D02*
X6480753Y-11855698D01*
X6480753Y-11855698D02*
X6490277Y-11874746D01*
X6490277Y-11874746D02*
X6490277Y-11931888D01*
X6490277Y-11931888D02*
X6480753Y-11950936D01*
X6480753Y-11950936D02*
X6471230Y-11960460D01*
X6471230Y-11960460D02*
X6452182Y-11969984D01*
X6452182Y-11969984D02*
X6423610Y-11969984D01*
X6604563Y-11969984D02*
X6585515Y-11960460D01*
X6585515Y-11960460D02*
X6575991Y-11941412D01*
X6575991Y-11941412D02*
X6575991Y-11769984D01*
X6756944Y-11960460D02*
X6737896Y-11969984D01*
X6737896Y-11969984D02*
X6699801Y-11969984D01*
X6699801Y-11969984D02*
X6680753Y-11960460D01*
X6680753Y-11960460D02*
X6671230Y-11941412D01*
X6671230Y-11941412D02*
X6671230Y-11865222D01*
X6671230Y-11865222D02*
X6680753Y-11846174D01*
X6680753Y-11846174D02*
X6699801Y-11836650D01*
X6699801Y-11836650D02*
X6737896Y-11836650D01*
X6737896Y-11836650D02*
X6756944Y-11846174D01*
X6756944Y-11846174D02*
X6766468Y-11865222D01*
X6766468Y-11865222D02*
X6766468Y-11884269D01*
X6766468Y-11884269D02*
X6671230Y-11903317D01*
X6842658Y-11960460D02*
X6861706Y-11969984D01*
X6861706Y-11969984D02*
X6899801Y-11969984D01*
X6899801Y-11969984D02*
X6918849Y-11960460D01*
X6918849Y-11960460D02*
X6928372Y-11941412D01*
X6928372Y-11941412D02*
X6928372Y-11931888D01*
X6928372Y-11931888D02*
X6918849Y-11912841D01*
X6918849Y-11912841D02*
X6899801Y-11903317D01*
X6899801Y-11903317D02*
X6871230Y-11903317D01*
X6871230Y-11903317D02*
X6852182Y-11893793D01*
X6852182Y-11893793D02*
X6842658Y-11874746D01*
X6842658Y-11874746D02*
X6842658Y-11865222D01*
X6842658Y-11865222D02*
X6852182Y-11846174D01*
X6852182Y-11846174D02*
X6871230Y-11836650D01*
X6871230Y-11836650D02*
X6899801Y-11836650D01*
X6899801Y-11836650D02*
X6918849Y-11846174D01*
X6995039Y-12046174D02*
X7004563Y-12036650D01*
X7004563Y-12036650D02*
X7023611Y-12008079D01*
X7023611Y-12008079D02*
X7033134Y-11989031D01*
X7033134Y-11989031D02*
X7042658Y-11960460D01*
X7042658Y-11960460D02*
X7052182Y-11912841D01*
X7052182Y-11912841D02*
X7052182Y-11874746D01*
X7052182Y-11874746D02*
X7042658Y-11827127D01*
X7042658Y-11827127D02*
X7033134Y-11798555D01*
X7033134Y-11798555D02*
X7023611Y-11779508D01*
X7023611Y-11779508D02*
X7004563Y-11750936D01*
X7004563Y-11750936D02*
X6995039Y-11741412D01*
M02*
