M48
; DRILL file {KiCad 8.0.7} date 2025-09-21T15:13:04-0400
; FORMAT={-:-/ absolute / metric / decimal}
; #@! TF.CreationDate,2025-09-21T15:13:04-04:00
; #@! TF.GenerationSoftware,Kicad,Pcbnew,8.0.7
; #@! TF.FileFunction,Plated,1,2,PTH
FMAT,2
METRIC
; #@! TA.AperFunction,Plated,PTH,ViaDrill
T1C0.300
; #@! TA.AperFunction,Plated,PTH,ComponentDrill
T2C0.770
; #@! TA.AperFunction,Plated,PTH,ComponentDrill
T3C0.800
; #@! TA.AperFunction,Plated,PTH,ComponentDrill
T4C0.900
; #@! TA.AperFunction,Plated,PTH,ComponentDrill
T5C1.000
; #@! TA.AperFunction,Plated,PTH,ComponentDrill
T6C1.320
; #@! TA.AperFunction,Plated,PTH,ComponentDrill
T7C1.600
%
G90
G05
T1
X35.56Y-40.64
X40.64Y-58.42
X45.72Y-63.5
X50.317Y-37.617
X50.8Y-55.88
X52.349Y-80.289
X81.28Y-53.34
X81.28Y-81.28
X83.396Y-83.396
X83.82Y-78.74
X86.36Y-78.74
X89.324Y-81.704
X101.6Y-73.66
X111.76Y-76.2
X127.0Y-22.86
X127.0Y-66.04
X129.54Y-81.28
X134.62Y-50.8
X134.62Y-63.5
X134.62Y-76.2
X137.16Y-48.26
X137.16Y-68.58
X149.86Y-55.88
X152.759Y-68.939
T2
X53.02Y-71.12
X53.02Y-73.66
X53.02Y-76.2
X53.02Y-78.74
X53.02Y-81.28
X53.02Y-83.82
X53.02Y-86.36
X60.96Y-71.12
X60.96Y-73.66
X60.96Y-76.2
X60.96Y-78.74
X60.96Y-81.28
X60.96Y-83.82
X60.96Y-86.36
T3
X33.02Y-27.94
X43.18Y-27.94
X50.8Y-35.56
X50.8Y-45.72
X50.8Y-50.8
X50.8Y-60.96
X91.44Y-33.02
X101.6Y-33.02
X107.95Y-33.02
X107.95Y-35.56
X107.95Y-38.1
X107.95Y-40.64
X107.95Y-43.18
X107.95Y-45.72
X107.95Y-48.26
X107.95Y-50.8
X107.95Y-53.34
X107.95Y-55.88
X107.95Y-58.42
X107.95Y-60.96
X107.95Y-63.5
X107.95Y-66.04
X107.95Y-68.58
X107.95Y-71.12
X130.81Y-33.02
X130.81Y-35.56
X130.81Y-38.1
X130.81Y-40.64
X130.81Y-43.18
X130.81Y-45.72
X130.81Y-48.26
X130.81Y-50.8
X130.81Y-53.34
X130.81Y-55.88
X130.81Y-58.42
X130.81Y-60.96
X130.81Y-63.5
X130.81Y-66.04
X130.81Y-68.58
X130.81Y-71.12
T4
X53.34Y-27.94
X55.88Y-27.94
T5
X25.4Y-33.02
X25.4Y-35.56
X25.4Y-38.1
X25.4Y-40.64
X25.4Y-50.8
X25.4Y-53.34
X25.4Y-55.88
X25.4Y-58.42
X25.4Y-68.58
X25.4Y-71.12
X25.4Y-73.66
X25.4Y-76.2
X33.02Y-22.86
X35.56Y-22.86
X43.18Y-22.86
X45.72Y-22.86
X45.72Y-35.56
X45.72Y-38.1
X45.72Y-40.64
X45.72Y-43.18
X45.72Y-50.8
X45.72Y-53.34
X45.72Y-55.88
X45.72Y-58.42
X83.82Y-66.04
X83.82Y-68.58
X83.82Y-71.12
X83.82Y-73.66
X83.82Y-76.2
X88.9Y-88.9
X91.44Y-88.9
X101.6Y-22.86
X101.6Y-25.4
X115.015Y-90.725
X117.555Y-90.725
X120.095Y-90.725
X122.635Y-90.725
X125.175Y-90.725
X147.32Y-88.9
X149.86Y-22.86
X149.86Y-88.9
X152.4Y-22.86
X165.1Y-53.34
X165.1Y-55.88
X165.1Y-58.42
X165.1Y-60.96
T6
X142.24Y-48.26
X142.24Y-50.8
X142.24Y-53.34
X142.24Y-55.88
X142.24Y-58.42
X142.24Y-60.96
X142.24Y-63.5
X142.24Y-66.04
X157.48Y-48.26
X157.48Y-50.8
X157.48Y-53.34
X157.48Y-55.88
X157.48Y-58.42
X157.48Y-60.96
X157.48Y-63.5
X157.48Y-66.04
T7
X71.12Y-22.86
X78.74Y-22.86
X81.28Y-43.18
X86.36Y-22.86
X93.98Y-22.86
X101.6Y-88.9
X137.16Y-83.82
X137.16Y-88.9
X165.1Y-35.56
X165.1Y-45.72
M30
